{"glyphs":{"0":{"ha":914,"x_min":115,"x_max":799,"o":"m 363 -1 q 183 56 251 -1 q 115 235 115 114 l 115 789 q 184 966 115 904 q 364 1028 253 1028 l 557 1028 q 739 963 679 1028 q 799 789 799 899 l 799 235 q 735 56 799 114 q 557 -1 671 -1 l 363 -1 m 542 71 q 718 243 718 71 l 718 783 q 674 912 718 868 q 544 956 631 956 l 375 956 q 244 910 292 956 q 196 783 196 865 l 196 243 q 244 115 196 160 q 376 71 292 71 l 542 71 z "},"1":{"ha":499,"x_min":67,"x_max":367,"o":"m 286 949 l 67 882 l 67 933 l 292 1031 l 367 1031 l 367 0 l 286 0 l 286 949 z "},"2":{"ha":826,"x_min":79,"x_max":756,"o":"m 79 67 l 468 436 q 599 597 561 525 q 636 764 636 669 q 583 903 636 854 q 393 953 529 953 l 119 953 l 119 1013 q 411 1028 300 1028 q 646 960 575 1028 q 717 771 717 893 q 674 579 717 664 q 528 397 631 494 l 190 75 l 756 75 l 756 0 l 79 0 l 79 67 z "},"3":{"ha":815,"x_min":63,"x_max":707,"o":"m 426 -8 q 63 6 211 -8 l 63 67 l 403 67 q 565 104 506 67 q 624 240 624 142 l 624 315 q 568 436 624 399 q 433 476 513 474 l 168 486 l 168 543 l 431 553 q 610 700 610 560 l 610 779 q 554 908 610 863 q 393 953 499 953 l 101 953 l 101 1014 q 422 1028 244 1029 q 622 964 556 1028 q 689 792 689 900 l 689 701 q 640 569 689 613 q 536 515 590 525 q 610 485 571 508 q 678 416 650 461 q 707 307 707 371 l 707 229 q 634 53 707 114 q 426 -8 561 -8 z "},"4":{"ha":815,"x_min":38,"x_max":781,"o":"m 550 274 l 58 274 l 38 324 l 439 1019 l 522 1019 l 131 343 l 550 343 l 550 639 l 569 726 l 631 726 l 631 343 l 781 343 l 781 289 l 631 274 l 631 3 l 550 3 l 550 274 z "},"5":{"ha":886,"x_min":126,"x_max":789,"o":"m 479 -6 q 126 6 250 -6 l 126 67 l 479 67 q 644 116 581 67 q 708 250 708 165 l 708 375 q 660 499 708 454 q 518 543 611 543 l 400 543 q 236 415 261 543 l 160 415 l 189 1019 l 757 1019 l 757 947 l 260 947 l 240 531 q 303 590 258 565 q 414 614 349 614 l 539 614 q 722 551 656 614 q 789 388 789 488 l 789 236 q 703 57 789 119 q 479 -6 618 -6 z "},"6":{"ha":872,"x_min":108,"x_max":775,"o":"m 382 -3 q 233 42 293 -3 q 141 200 174 86 q 108 514 108 314 q 199 901 108 775 q 461 1028 290 1028 q 714 1015 582 1028 l 714 956 l 458 956 q 260 853 332 956 q 189 551 189 751 q 486 564 303 564 q 702 517 629 564 q 775 356 775 469 l 775 214 q 710 49 775 100 q 543 -3 646 -3 l 382 -3 m 531 69 q 651 103 607 69 q 696 224 696 138 l 696 346 q 641 464 696 433 q 471 494 586 494 l 189 494 q 213 236 189 329 q 281 106 236 143 q 393 69 325 69 l 531 69 z "},"7":{"ha":750,"x_min":49,"x_max":689,"o":"m 589 939 l 49 939 l 49 1019 l 658 1019 l 689 972 l 306 0 l 214 0 l 589 939 z "},"8":{"ha":900,"x_min":124,"x_max":776,"o":"m 365 -1 q 188 47 251 -1 q 124 194 124 94 l 124 343 q 166 460 124 415 q 260 515 208 504 q 143 696 143 565 l 143 814 q 203 975 143 924 q 363 1026 263 1026 l 553 1026 q 705 976 653 1026 q 757 814 757 925 l 757 696 q 728 592 757 642 q 649 528 699 543 q 744 467 711 517 q 776 353 776 418 l 776 194 q 718 47 776 94 q 553 -1 660 -1 l 365 -1 m 532 556 q 642 597 606 556 q 678 692 678 639 l 678 799 q 644 920 678 883 q 540 957 611 957 l 375 957 q 258 919 294 957 q 222 799 222 882 l 222 692 q 260 593 222 631 q 374 556 299 556 l 532 556 m 540 68 q 696 203 696 68 l 696 343 q 658 453 696 421 q 532 485 621 485 l 374 485 q 299 470 339 485 q 232 424 260 456 q 204 343 204 393 l 204 203 q 251 101 204 133 q 375 68 297 68 l 540 68 z "},"9":{"ha":872,"x_min":100,"x_max":767,"o":"m 413 -6 q 161 6 306 -6 l 161 67 l 417 67 q 615 169 544 67 q 686 471 686 271 q 388 458 569 458 q 173 505 246 458 q 100 665 100 551 l 100 808 q 164 973 100 921 q 332 1025 228 1025 l 492 1025 q 640 981 581 1025 q 733 822 700 936 q 767 508 767 708 q 675 121 767 247 q 413 -6 583 -6 m 686 528 q 663 785 686 693 q 594 915 639 878 q 481 951 550 951 l 344 951 q 224 918 268 951 q 179 799 179 885 l 179 676 q 233 558 179 589 q 403 528 288 528 l 686 528 z "},"\r":{"ha":381,"x_min":0,"x_max":0,"o":""}," ":{"ha":381,"x_min":0,"x_max":0,"o":""},"A":{"ha":932,"x_min":54,"x_max":878,"o":"m 414 1019 l 518 1019 l 878 0 l 793 0 l 681 317 l 250 317 l 139 0 l 54 0 l 414 1019 m 657 389 l 465 947 l 271 389 l 657 389 z "},"Á":{"ha":932,"x_min":54,"x_max":878,"o":"m 414 1019 l 518 1019 l 878 0 l 793 0 l 681 317 l 250 317 l 139 0 l 54 0 l 414 1019 m 657 389 l 465 947 l 271 389 l 657 389 m 600 1286 l 672 1286 l 494 1099 l 447 1099 l 600 1286 z "},"Ă":{"ha":932,"x_min":54,"x_max":878,"o":"m 414 1019 l 518 1019 l 878 0 l 793 0 l 681 317 l 250 317 l 139 0 l 54 0 l 414 1019 m 657 389 l 465 947 l 271 389 l 657 389 m 456 1097 q 328 1143 378 1097 q 278 1290 278 1189 l 318 1290 q 356 1175 318 1213 q 451 1138 393 1138 q 596 1290 596 1138 l 636 1290 q 585 1142 636 1186 q 456 1097 535 1097 z "},"Ắ":{"ha":932,"x_min":54,"x_max":878,"o":"m 414 1019 l 518 1019 l 878 0 l 793 0 l 681 317 l 250 317 l 139 0 l 54 0 l 414 1019 m 657 389 l 465 947 l 271 389 l 657 389 m 575 1433 l 647 1433 l 469 1246 l 422 1246 l 575 1433 m 318 1243 q 355 1157 318 1185 q 451 1129 392 1129 q 596 1243 596 1129 l 636 1243 q 585 1126 636 1161 q 456 1092 535 1092 q 328 1128 378 1092 q 278 1243 278 1164 l 318 1243 z "},"Ặ":{"ha":932,"x_min":54,"x_max":878,"o":"m 414 1019 l 518 1019 l 878 0 l 793 0 l 681 317 l 250 317 l 139 0 l 54 0 l 414 1019 m 657 389 l 465 947 l 271 389 l 657 389 m 456 1097 q 328 1143 378 1097 q 278 1290 278 1189 l 318 1290 q 356 1175 318 1213 q 451 1138 393 1138 q 596 1290 596 1138 l 636 1290 q 585 1142 636 1186 q 456 1097 535 1097 m 444 -285 q 429 -279 435 -285 q 424 -265 424 -274 l 424 -165 q 444 -144 424 -144 l 481 -144 q 501 -165 501 -144 l 501 -265 q 481 -285 501 -285 l 444 -285 z "},"Ằ":{"ha":932,"x_min":54,"x_max":878,"o":"m 414 1019 l 518 1019 l 878 0 l 793 0 l 681 317 l 250 317 l 139 0 l 54 0 l 414 1019 m 657 389 l 465 947 l 271 389 l 657 389 m 281 1433 l 351 1433 l 506 1246 l 458 1246 l 281 1433 m 318 1243 q 355 1157 318 1185 q 451 1129 392 1129 q 596 1243 596 1129 l 636 1243 q 585 1126 636 1161 q 456 1092 535 1092 q 328 1128 378 1092 q 278 1243 278 1164 l 318 1243 z "},"Ẳ":{"ha":932,"x_min":54,"x_max":878,"o":"m 414 1019 l 518 1019 l 878 0 l 793 0 l 681 317 l 250 317 l 139 0 l 54 0 l 414 1019 m 657 389 l 465 947 l 271 389 l 657 389 m 433 1228 q 499 1265 479 1242 q 519 1317 519 1289 q 446 1386 519 1386 q 396 1378 421 1386 l 396 1414 q 456 1424 424 1424 q 538 1395 510 1424 q 565 1318 565 1367 q 533 1241 565 1275 q 433 1189 500 1207 l 433 1228 m 456 1092 q 328 1128 378 1092 q 278 1243 278 1164 l 318 1243 q 355 1157 318 1185 q 451 1129 392 1129 q 596 1243 596 1129 l 636 1243 q 585 1126 636 1161 q 456 1092 535 1092 z "},"Ẵ":{"ha":932,"x_min":54,"x_max":878,"o":"m 414 1019 l 518 1019 l 878 0 l 793 0 l 681 317 l 250 317 l 139 0 l 54 0 l 414 1019 m 657 389 l 465 947 l 271 389 l 657 389 m 354 1399 q 408 1390 382 1399 q 465 1365 433 1381 q 521 1342 501 1349 q 564 1335 540 1335 q 621 1352 599 1335 q 643 1401 643 1369 l 686 1401 q 654 1320 683 1349 q 571 1292 625 1292 q 525 1299 546 1292 q 464 1324 504 1306 q 410 1347 433 1339 q 361 1356 386 1356 q 306 1340 328 1356 q 285 1292 285 1324 l 242 1292 q 275 1374 243 1350 q 354 1399 307 1399 m 318 1243 q 355 1157 318 1185 q 451 1129 392 1129 q 596 1243 596 1129 l 636 1243 q 585 1126 636 1161 q 456 1092 535 1092 q 328 1128 378 1092 q 278 1243 278 1164 l 318 1243 z "},"Â":{"ha":932,"x_min":54,"x_max":878,"o":"m 414 1019 l 518 1019 l 878 0 l 793 0 l 681 317 l 250 317 l 139 0 l 54 0 l 414 1019 m 657 389 l 465 947 l 271 389 l 657 389 m 440 1283 l 499 1283 l 657 1099 l 606 1099 l 468 1243 l 317 1099 l 265 1099 l 440 1283 z "},"Ấ":{"ha":932,"x_min":54,"x_max":878,"o":"m 414 1019 l 518 1019 l 878 0 l 793 0 l 681 317 l 250 317 l 139 0 l 54 0 l 414 1019 m 657 389 l 465 947 l 271 389 l 657 389 m 789 1383 l 625 1201 l 578 1201 l 717 1383 l 789 1383 m 497 1231 l 657 1099 l 606 1099 l 468 1190 l 315 1099 l 265 1099 l 439 1231 l 497 1231 z "},"Ậ":{"ha":932,"x_min":54,"x_max":878,"o":"m 414 1019 l 518 1019 l 878 0 l 793 0 l 681 317 l 250 317 l 139 0 l 54 0 l 414 1019 m 657 389 l 465 947 l 271 389 l 657 389 m 440 1283 l 499 1283 l 657 1099 l 606 1099 l 468 1243 l 317 1099 l 265 1099 l 440 1283 m 444 -285 q 429 -279 435 -285 q 424 -265 424 -274 l 424 -165 q 444 -144 424 -144 l 481 -144 q 501 -165 501 -144 l 501 -265 q 481 -285 501 -285 l 444 -285 z "},"Ầ":{"ha":932,"x_min":54,"x_max":878,"o":"m 414 1019 l 518 1019 l 878 0 l 793 0 l 681 317 l 250 317 l 139 0 l 54 0 l 414 1019 m 657 389 l 465 947 l 271 389 l 657 389 m 213 1383 l 353 1201 l 306 1201 l 142 1383 l 213 1383 m 497 1231 l 657 1099 l 606 1099 l 468 1190 l 315 1099 l 265 1099 l 439 1231 l 497 1231 z "},"Ẩ":{"ha":932,"x_min":54,"x_max":878,"o":"m 414 1019 l 518 1019 l 878 0 l 793 0 l 681 317 l 250 317 l 139 0 l 54 0 l 414 1019 m 657 389 l 465 947 l 271 389 l 657 389 m 608 1208 q 667 1240 649 1219 q 686 1285 686 1261 q 671 1327 686 1313 q 621 1342 656 1342 q 571 1333 596 1342 l 571 1367 q 631 1376 599 1376 q 705 1353 681 1376 q 729 1288 729 1329 q 699 1217 729 1249 q 608 1169 669 1186 l 608 1208 m 439 1231 l 497 1231 l 657 1099 l 606 1099 l 468 1190 l 315 1099 l 265 1099 l 439 1231 z "},"Ẫ":{"ha":932,"x_min":54,"x_max":878,"o":"m 414 1019 l 518 1019 l 878 0 l 793 0 l 681 317 l 250 317 l 139 0 l 54 0 l 414 1019 m 657 389 l 465 947 l 271 389 l 657 389 m 354 1404 q 408 1395 382 1404 q 465 1371 433 1386 q 521 1347 501 1354 q 564 1340 540 1340 q 621 1358 599 1340 q 643 1407 643 1375 l 686 1407 q 654 1326 683 1354 q 571 1297 625 1297 q 523 1305 546 1297 q 463 1329 500 1313 q 358 1361 399 1361 q 306 1345 326 1361 q 285 1297 285 1329 l 242 1297 q 275 1380 243 1356 q 354 1404 307 1404 m 657 1099 l 606 1099 l 468 1190 l 315 1099 l 265 1099 l 439 1231 l 497 1231 l 657 1099 z "},"Ȁ":{"ha":932,"x_min":54,"x_max":878,"o":"m 414 1019 l 518 1019 l 878 0 l 793 0 l 681 317 l 250 317 l 139 0 l 54 0 l 414 1019 m 657 389 l 465 947 l 271 389 l 657 389 m 192 1286 l 263 1286 l 417 1099 l 369 1099 l 192 1286 m 381 1286 l 451 1286 l 606 1099 l 558 1099 l 381 1286 z "},"Ä":{"ha":932,"x_min":54,"x_max":878,"o":"m 414 1019 l 518 1019 l 878 0 l 793 0 l 681 317 l 250 317 l 139 0 l 54 0 l 414 1019 m 657 389 l 465 947 l 271 389 l 657 389 m 267 1136 q 253 1142 258 1136 q 247 1156 247 1147 l 247 1256 q 267 1276 247 1276 l 304 1276 q 324 1256 324 1276 l 324 1156 q 304 1136 324 1136 l 267 1136 m 604 1136 q 590 1142 596 1136 q 585 1156 585 1147 l 585 1256 q 604 1276 585 1276 l 642 1276 q 661 1256 661 1276 l 661 1156 q 656 1141 661 1146 q 642 1136 650 1136 l 604 1136 z "},"Ạ":{"ha":932,"x_min":54,"x_max":878,"o":"m 414 1019 l 518 1019 l 878 0 l 793 0 l 681 317 l 250 317 l 139 0 l 54 0 l 414 1019 m 657 389 l 465 947 l 271 389 l 657 389 m 444 -285 q 429 -279 435 -285 q 424 -265 424 -274 l 424 -165 q 444 -144 424 -144 l 481 -144 q 501 -165 501 -144 l 501 -265 q 481 -285 501 -285 l 444 -285 z "},"À":{"ha":932,"x_min":54,"x_max":878,"o":"m 414 1019 l 518 1019 l 878 0 l 793 0 l 681 317 l 250 317 l 139 0 l 54 0 l 414 1019 m 657 389 l 465 947 l 271 389 l 657 389 m 267 1286 l 338 1286 l 492 1099 l 444 1099 l 267 1286 z "},"Ả":{"ha":932,"x_min":54,"x_max":878,"o":"m 414 1019 l 518 1019 l 878 0 l 793 0 l 681 317 l 250 317 l 139 0 l 54 0 l 414 1019 m 657 389 l 465 947 l 271 389 l 657 389 m 436 1108 q 502 1146 482 1122 q 522 1197 522 1169 q 449 1267 522 1267 q 399 1258 424 1267 l 399 1294 q 458 1304 426 1304 q 540 1276 513 1304 q 568 1199 568 1247 q 535 1122 568 1156 q 436 1069 503 1088 l 436 1108 z "},"Ȃ":{"ha":932,"x_min":54,"x_max":878,"o":"m 414 1019 l 518 1019 l 878 0 l 793 0 l 681 317 l 250 317 l 139 0 l 54 0 l 414 1019 m 657 389 l 465 947 l 271 389 l 657 389 m 461 1292 q 589 1246 539 1292 q 639 1099 639 1200 l 599 1099 q 561 1214 599 1176 q 465 1251 524 1251 q 321 1099 321 1251 l 281 1099 q 331 1247 281 1203 q 461 1292 382 1292 z "},"Ā":{"ha":932,"x_min":54,"x_max":878,"o":"m 414 1019 l 518 1019 l 878 0 l 793 0 l 681 317 l 250 317 l 139 0 l 54 0 l 414 1019 m 657 389 l 465 947 l 271 389 l 657 389 m 275 1214 l 636 1214 l 636 1165 l 275 1165 l 275 1214 z "},"Ą":{"ha":932,"x_min":54,"x_max":878,"o":"m 414 1019 l 518 1019 l 878 0 l 793 0 l 681 317 l 250 317 l 139 0 l 54 0 l 414 1019 m 657 389 l 465 947 l 271 389 l 657 389 m 832 -257 q 725 -223 765 -257 q 685 -135 685 -189 q 712 -60 685 -94 q 793 0 739 -25 l 826 0 q 756 -54 781 -24 q 732 -118 732 -85 q 764 -189 732 -164 q 857 -214 796 -214 l 865 -214 l 865 -254 q 832 -257 843 -257 z "},"Å":{"ha":932,"x_min":54,"x_max":878,"o":"m 414 1019 l 518 1019 l 878 0 l 793 0 l 681 317 l 250 317 l 139 0 l 54 0 l 414 1019 m 657 389 l 465 947 l 271 389 l 657 389 m 465 1058 q 352 1092 389 1058 q 315 1204 315 1125 q 352 1317 315 1283 q 465 1351 389 1351 q 576 1318 540 1351 q 613 1204 613 1285 q 576 1092 613 1125 q 465 1058 540 1058 m 465 1096 q 547 1119 522 1096 q 571 1204 571 1142 q 547 1290 571 1267 q 465 1314 522 1314 q 383 1290 408 1314 q 357 1204 357 1267 q 383 1119 357 1142 q 465 1096 408 1096 z "},"Ǻ":{"ha":932,"x_min":54,"x_max":878,"o":"m 465 1058 q 352 1092 389 1058 q 315 1204 315 1125 q 351 1317 315 1283 q 461 1351 388 1350 l 600 1522 l 672 1522 l 507 1349 q 587 1306 561 1340 q 613 1204 613 1272 q 576 1092 613 1125 q 465 1058 540 1058 m 465 1314 q 383 1290 408 1314 q 357 1204 357 1267 q 383 1119 357 1142 q 465 1096 408 1096 q 547 1119 522 1096 q 571 1204 571 1142 q 547 1290 571 1267 q 465 1314 522 1314 m 878 0 l 793 0 l 681 317 l 250 317 l 139 0 l 54 0 l 414 1019 l 518 1019 l 878 0 m 657 389 l 465 947 l 271 389 l 657 389 z "},"Ã":{"ha":932,"x_min":54,"x_max":878,"o":"m 414 1019 l 518 1019 l 878 0 l 793 0 l 681 317 l 250 317 l 139 0 l 54 0 l 414 1019 m 657 389 l 465 947 l 271 389 l 657 389 m 233 1128 q 272 1233 235 1200 q 363 1267 310 1267 q 420 1254 393 1267 q 483 1218 447 1242 q 539 1186 518 1196 q 582 1176 560 1176 q 648 1201 622 1176 q 674 1269 674 1225 l 717 1269 q 681 1167 715 1204 q 585 1129 646 1129 q 531 1141 557 1129 q 469 1176 504 1153 q 413 1209 436 1199 q 365 1219 389 1219 q 301 1197 326 1219 q 276 1128 276 1174 l 233 1128 z "},"Æ":{"ha":1331,"x_min":54,"x_max":1246,"o":"m 876 -6 q 725 33 776 -7 q 671 165 674 72 l 671 314 l 332 314 l 136 0 l 54 0 l 574 857 q 683 979 622 939 q 838 1019 743 1019 q 1154 1011 954 1019 q 1246 1008 1188 1011 l 1246 946 l 851 946 q 769 923 793 946 q 746 849 746 900 l 746 543 l 1188 536 l 1188 476 l 746 469 l 746 200 q 781 100 746 131 q 888 69 817 69 l 1246 69 l 1246 7 q 876 -6 1064 -1 m 671 383 l 671 876 l 369 383 l 671 383 z "},"Ǽ":{"ha":1331,"x_min":54,"x_max":1246,"o":"m 876 -6 q 725 33 776 -7 q 671 165 674 72 l 671 314 l 332 314 l 136 0 l 54 0 l 574 857 q 683 979 622 939 q 838 1019 743 1019 q 1154 1011 954 1019 q 1246 1008 1188 1011 l 1246 946 l 851 946 q 769 923 793 946 q 746 849 746 900 l 746 543 l 1188 536 l 1188 476 l 746 469 l 746 200 q 781 100 746 131 q 888 69 817 69 l 1246 69 l 1246 7 q 876 -6 1064 -1 m 671 383 l 671 876 l 369 383 l 671 383 m 869 1286 l 942 1286 l 764 1099 l 717 1099 l 869 1286 z "},"B":{"ha":828,"x_min":113,"x_max":763,"o":"m 113 1019 l 472 1019 q 726 760 726 1019 q 685 608 726 668 q 582 529 643 547 q 706 454 650 514 q 763 283 763 394 q 692 63 763 126 q 483 0 621 0 l 113 0 l 113 1019 m 479 558 q 601 614 554 558 q 649 761 649 669 q 471 947 649 947 l 193 947 l 193 558 l 479 558 m 482 72 q 633 121 581 72 q 685 296 685 169 q 627 440 685 388 q 482 493 569 493 l 193 493 l 193 72 l 482 72 z "},"Ḃ":{"ha":828,"x_min":113,"x_max":763,"o":"m 113 1019 l 472 1019 q 726 760 726 1019 q 685 608 726 668 q 582 529 643 547 q 706 454 650 514 q 763 283 763 394 q 692 63 763 126 q 483 0 621 0 l 113 0 l 113 1019 m 479 558 q 601 614 554 558 q 649 761 649 669 q 471 947 649 947 l 193 947 l 193 558 l 479 558 m 482 72 q 633 121 581 72 q 685 296 685 169 q 627 440 685 388 q 482 493 569 493 l 193 493 l 193 72 l 482 72 m 388 1146 q 372 1151 378 1146 q 367 1165 367 1157 l 367 1265 q 388 1286 367 1286 l 424 1286 q 444 1265 444 1286 l 444 1165 q 424 1146 444 1146 l 388 1146 z "},"C":{"ha":804,"x_min":88,"x_max":739,"o":"m 444 -8 q 236 33 311 -8 q 124 185 161 74 q 88 513 88 297 q 125 828 88 717 q 241 984 163 940 q 454 1028 319 1028 q 591 1018 508 1028 q 739 994 674 1008 l 739 935 q 619 949 700 942 q 464 956 539 956 q 289 919 351 956 q 197 788 226 883 q 168 513 168 693 q 196 228 168 324 q 284 98 224 132 q 458 64 344 64 q 739 82 618 64 l 739 22 q 592 0 672 8 q 444 -8 511 -8 z "},"Ć":{"ha":804,"x_min":88,"x_max":739,"o":"m 444 -8 q 236 33 311 -8 q 124 185 161 74 q 88 513 88 297 q 125 828 88 717 q 241 984 163 940 q 454 1028 319 1028 q 591 1018 508 1028 q 739 994 674 1008 l 739 935 q 619 949 700 942 q 464 956 539 956 q 289 919 351 956 q 197 788 226 883 q 168 513 168 693 q 196 228 168 324 q 284 98 224 132 q 458 64 344 64 q 739 82 618 64 l 739 22 q 592 0 672 8 q 444 -8 511 -8 m 588 1286 l 660 1286 l 482 1099 l 435 1099 l 588 1286 z "},"Č":{"ha":804,"x_min":88,"x_max":739,"o":"m 444 -8 q 236 33 311 -8 q 124 185 161 74 q 88 513 88 297 q 125 828 88 717 q 241 984 163 940 q 454 1028 319 1028 q 591 1018 508 1028 q 739 994 674 1008 l 739 935 q 619 949 700 942 q 464 956 539 956 q 289 919 351 956 q 197 788 226 883 q 168 513 168 693 q 196 228 168 324 q 284 98 224 132 q 458 64 344 64 q 739 82 618 64 l 739 22 q 592 0 672 8 q 444 -8 511 -8 m 264 1283 l 315 1283 l 453 1139 l 604 1283 l 656 1283 l 481 1099 l 422 1099 l 264 1283 z "},"Ç":{"ha":804,"x_min":88,"x_max":739,"o":"m 464 956 q 289 919 351 956 q 197 788 226 883 q 168 513 168 693 q 196 228 168 324 q 284 98 224 132 q 458 64 344 64 q 739 82 618 64 l 739 22 q 478 -8 607 -4 l 431 -78 q 510 -101 485 -79 q 535 -165 535 -124 q 501 -235 535 -210 q 406 -260 467 -260 l 367 -260 l 367 -226 l 400 -224 q 463 -204 442 -221 q 483 -156 483 -187 q 461 -111 483 -128 q 382 -93 439 -94 l 438 -8 q 234 34 308 -7 q 124 187 160 75 q 88 513 88 299 q 125 828 88 717 q 241 984 163 940 q 454 1028 319 1028 q 591 1018 508 1028 q 739 994 674 1008 l 739 935 q 619 949 700 942 q 464 956 539 956 z "},"Ḉ":{"ha":804,"x_min":88,"x_max":739,"o":"m 482 1099 l 435 1099 l 588 1286 l 660 1286 l 482 1099 m 464 956 q 289 919 351 956 q 197 788 226 883 q 168 513 168 693 q 196 228 168 324 q 284 98 224 132 q 458 64 344 64 q 739 82 618 64 l 739 22 q 478 -8 607 -4 l 431 -78 q 510 -101 485 -79 q 535 -165 535 -124 q 501 -235 535 -210 q 406 -260 467 -260 l 367 -260 l 367 -226 l 400 -224 q 463 -204 442 -221 q 483 -156 483 -187 q 461 -111 483 -128 q 382 -93 439 -94 l 438 -8 q 234 34 308 -7 q 124 187 160 75 q 88 513 88 299 q 125 828 88 717 q 241 984 163 940 q 454 1028 319 1028 q 591 1018 508 1028 q 739 994 674 1008 l 739 935 q 619 949 700 942 q 464 956 539 956 z "},"Ĉ":{"ha":804,"x_min":88,"x_max":739,"o":"m 444 -8 q 236 33 311 -8 q 124 185 161 74 q 88 513 88 297 q 125 828 88 717 q 241 984 163 940 q 454 1028 319 1028 q 591 1018 508 1028 q 739 994 674 1008 l 739 935 q 619 949 700 942 q 464 956 539 956 q 289 919 351 956 q 197 788 226 883 q 168 513 168 693 q 196 228 168 324 q 284 98 224 132 q 458 64 344 64 q 739 82 618 64 l 739 22 q 592 0 672 8 q 444 -8 511 -8 m 428 1283 l 486 1283 l 644 1099 l 593 1099 l 456 1243 l 304 1099 l 253 1099 l 428 1283 z "},"Ċ":{"ha":804,"x_min":88,"x_max":739,"o":"m 444 -8 q 236 33 311 -8 q 124 185 161 74 q 88 513 88 297 q 125 828 88 717 q 241 984 163 940 q 454 1028 319 1028 q 591 1018 508 1028 q 739 994 674 1008 l 739 935 q 619 949 700 942 q 464 956 539 956 q 289 919 351 956 q 197 788 226 883 q 168 513 168 693 q 196 228 168 324 q 284 98 224 132 q 458 64 344 64 q 739 82 618 64 l 739 22 q 592 0 672 8 q 444 -8 511 -8 m 433 1146 q 418 1151 424 1146 q 413 1165 413 1157 l 413 1265 q 433 1286 413 1286 l 469 1286 q 490 1265 490 1286 l 490 1165 q 469 1146 490 1146 l 433 1146 z "},"D":{"ha":925,"x_min":113,"x_max":836,"o":"m 113 1019 l 507 1019 q 759 894 682 1019 q 836 510 836 768 q 752 135 836 271 q 507 0 668 0 l 113 0 l 113 1019 m 501 72 q 692 189 629 72 q 756 510 756 306 q 730 764 756 668 q 649 903 704 860 q 501 947 593 947 l 193 947 l 193 72 l 501 72 z "},"Ð":{"ha":925,"x_min":22,"x_max":836,"o":"m 507 1019 q 759 894 682 1019 q 836 510 836 768 q 752 135 836 271 q 507 0 668 0 l 113 0 l 113 488 l 22 488 l 22 546 l 113 546 l 113 1019 l 507 1019 m 501 72 q 692 189 629 72 q 756 510 756 306 q 730 764 756 668 q 649 903 704 860 q 501 947 593 947 l 193 947 l 193 546 l 450 546 l 450 488 l 193 488 l 193 72 l 501 72 z "},"Ď":{"ha":925,"x_min":113,"x_max":836,"o":"m 113 1019 l 507 1019 q 759 894 682 1019 q 836 510 836 768 q 752 135 836 271 q 507 0 668 0 l 113 0 l 113 1019 m 501 72 q 692 189 629 72 q 756 510 756 306 q 730 764 756 668 q 649 903 704 860 q 501 947 593 947 l 193 947 l 193 72 l 501 72 m 249 1283 l 300 1283 l 438 1139 l 589 1283 l 640 1283 l 465 1099 l 407 1099 l 249 1283 z "},"Đ":{"ha":925,"x_min":22,"x_max":836,"o":"m 507 1019 q 759 894 682 1019 q 836 510 836 768 q 752 135 836 271 q 507 0 668 0 l 113 0 l 113 488 l 22 488 l 22 546 l 113 546 l 113 1019 l 507 1019 m 501 72 q 692 189 629 72 q 756 510 756 306 q 730 764 756 668 q 649 903 704 860 q 501 947 593 947 l 193 947 l 193 546 l 450 546 l 450 488 l 193 488 l 193 72 l 501 72 z "},"Ḋ":{"ha":925,"x_min":113,"x_max":836,"o":"m 113 1019 l 507 1019 q 759 894 682 1019 q 836 510 836 768 q 752 135 836 271 q 507 0 668 0 l 113 0 l 113 1019 m 501 72 q 692 189 629 72 q 756 510 756 306 q 730 764 756 668 q 649 903 704 860 q 501 947 593 947 l 193 947 l 193 72 l 501 72 m 418 1146 q 403 1151 408 1146 q 397 1165 397 1157 l 397 1265 q 418 1286 397 1286 l 454 1286 q 475 1265 475 1286 l 475 1165 q 454 1146 475 1146 l 418 1146 z "},"Ḍ":{"ha":925,"x_min":113,"x_max":836,"o":"m 113 1019 l 507 1019 q 759 894 682 1019 q 836 510 836 768 q 752 135 836 271 q 507 0 668 0 l 113 0 l 113 1019 m 501 72 q 692 189 629 72 q 756 510 756 306 q 730 764 756 668 q 649 903 704 860 q 501 947 593 947 l 193 947 l 193 72 l 501 72 m 404 -285 q 389 -279 394 -285 q 383 -265 383 -274 l 383 -165 q 404 -144 383 -144 l 440 -144 q 461 -165 461 -144 l 461 -265 q 440 -285 461 -285 l 404 -285 z "},"Ḏ":{"ha":925,"x_min":113,"x_max":836,"o":"m 113 1019 l 507 1019 q 759 894 682 1019 q 836 510 836 768 q 752 135 836 271 q 507 0 668 0 l 113 0 l 113 1019 m 501 72 q 692 189 629 72 q 756 510 756 306 q 730 764 756 668 q 649 903 704 860 q 501 947 593 947 l 193 947 l 193 72 l 501 72 m 238 -203 l 599 -203 l 599 -251 l 238 -251 l 238 -203 z "},"E":{"ha":811,"x_min":113,"x_max":725,"o":"m 319 -6 q 171 32 229 -6 q 113 185 113 69 l 113 824 q 167 973 113 926 q 300 1019 221 1019 q 626 1013 374 1019 l 725 1008 l 725 946 l 321 946 q 226 913 260 946 q 193 814 193 881 l 193 543 l 667 536 l 667 476 l 193 469 l 193 200 q 231 96 193 122 q 331 69 268 69 l 725 69 l 725 7 q 319 -6 542 -1 z "},"É":{"ha":811,"x_min":113,"x_max":725,"o":"m 319 -6 q 171 32 229 -6 q 113 185 113 69 l 113 824 q 167 973 113 926 q 300 1019 221 1019 q 626 1013 374 1019 l 725 1008 l 725 946 l 321 946 q 226 913 260 946 q 193 814 193 881 l 193 543 l 667 536 l 667 476 l 193 469 l 193 200 q 231 96 193 122 q 331 69 268 69 l 725 69 l 725 7 q 319 -6 542 -1 m 567 1286 l 639 1286 l 461 1099 l 414 1099 l 567 1286 z "},"Ĕ":{"ha":811,"x_min":113,"x_max":725,"o":"m 319 -6 q 171 32 229 -6 q 113 185 113 69 l 113 824 q 167 973 113 926 q 300 1019 221 1019 q 626 1013 374 1019 l 725 1008 l 725 946 l 321 946 q 226 913 260 946 q 193 814 193 881 l 193 543 l 667 536 l 667 476 l 193 469 l 193 200 q 231 96 193 122 q 331 69 268 69 l 725 69 l 725 7 q 319 -6 542 -1 m 422 1097 q 294 1143 344 1097 q 244 1290 244 1189 l 285 1290 q 322 1175 285 1213 q 418 1138 360 1138 q 563 1290 563 1138 l 603 1290 q 552 1142 603 1186 q 422 1097 501 1097 z "},"Ě":{"ha":811,"x_min":113,"x_max":725,"o":"m 319 -6 q 171 32 229 -6 q 113 185 113 69 l 113 824 q 167 973 113 926 q 300 1019 221 1019 q 626 1013 374 1019 l 725 1008 l 725 946 l 321 946 q 226 913 260 946 q 193 814 193 881 l 193 543 l 667 536 l 667 476 l 193 469 l 193 200 q 231 96 193 122 q 331 69 268 69 l 725 69 l 725 7 q 319 -6 542 -1 m 243 1283 l 294 1283 l 432 1139 l 583 1283 l 635 1283 l 460 1099 l 401 1099 l 243 1283 z "},"Ḝ":{"ha":811,"x_min":113,"x_max":725,"o":"m 422 1097 q 294 1143 344 1097 q 244 1290 244 1189 l 285 1290 q 322 1175 285 1213 q 418 1138 360 1138 q 563 1290 563 1138 l 603 1290 q 552 1142 603 1186 q 422 1097 501 1097 m 321 946 q 226 913 260 946 q 193 814 193 881 l 193 543 l 667 536 l 667 476 l 193 469 l 193 200 q 231 96 193 122 q 331 69 268 69 l 725 69 l 725 7 q 460 -3 640 3 l 408 -78 q 488 -101 463 -79 q 513 -165 513 -124 q 478 -235 513 -210 q 383 -260 444 -260 l 344 -260 l 344 -226 l 378 -224 q 440 -204 419 -221 q 461 -156 461 -187 q 439 -111 461 -128 q 360 -93 417 -94 l 419 -3 q 319 -6 350 -6 q 171 32 229 -6 q 113 185 113 69 l 113 824 q 167 973 113 926 q 300 1019 221 1019 q 626 1013 374 1019 l 725 1008 l 725 946 l 321 946 z "},"Ê":{"ha":811,"x_min":113,"x_max":725,"o":"m 319 -6 q 171 32 229 -6 q 113 185 113 69 l 113 824 q 167 973 113 926 q 300 1019 221 1019 q 626 1013 374 1019 l 725 1008 l 725 946 l 321 946 q 226 913 260 946 q 193 814 193 881 l 193 543 l 667 536 l 667 476 l 193 469 l 193 200 q 231 96 193 122 q 331 69 268 69 l 725 69 l 725 7 q 319 -6 542 -1 m 407 1283 l 465 1283 l 624 1099 l 572 1099 l 435 1243 l 283 1099 l 232 1099 l 407 1283 z "},"Ế":{"ha":811,"x_min":113,"x_max":756,"o":"m 319 -6 q 171 32 229 -6 q 113 185 113 69 l 113 824 q 167 973 113 926 q 300 1019 221 1019 q 626 1013 374 1019 l 725 1008 l 725 946 l 321 946 q 226 913 260 946 q 193 814 193 881 l 193 543 l 667 536 l 667 476 l 193 469 l 193 200 q 231 96 193 122 q 331 69 268 69 l 725 69 l 725 7 q 319 -6 542 -1 m 756 1383 l 592 1201 l 544 1201 l 683 1383 l 756 1383 m 464 1231 l 624 1099 l 572 1099 l 435 1190 l 282 1099 l 232 1099 l 406 1231 l 464 1231 z "},"Ệ":{"ha":811,"x_min":113,"x_max":725,"o":"m 319 -6 q 171 32 229 -6 q 113 185 113 69 l 113 824 q 167 973 113 926 q 300 1019 221 1019 q 626 1013 374 1019 l 725 1008 l 725 946 l 321 946 q 226 913 260 946 q 193 814 193 881 l 193 543 l 667 536 l 667 476 l 193 469 l 193 200 q 231 96 193 122 q 331 69 268 69 l 725 69 l 725 7 q 319 -6 542 -1 m 407 1283 l 465 1283 l 624 1099 l 572 1099 l 435 1243 l 283 1099 l 232 1099 l 407 1283 m 418 -285 q 403 -279 408 -285 q 397 -265 397 -274 l 397 -165 q 418 -144 397 -144 l 454 -144 q 475 -165 475 -144 l 475 -265 q 454 -285 475 -285 l 418 -285 z "},"Ề":{"ha":811,"x_min":108,"x_max":725,"o":"m 319 -6 q 171 32 229 -6 q 113 185 113 69 l 113 824 q 167 973 113 926 q 300 1019 221 1019 q 626 1013 374 1019 l 725 1008 l 725 946 l 321 946 q 226 913 260 946 q 193 814 193 881 l 193 543 l 667 536 l 667 476 l 193 469 l 193 200 q 231 96 193 122 q 331 69 268 69 l 725 69 l 725 7 q 319 -6 542 -1 m 179 1383 l 319 1201 l 272 1201 l 108 1383 l 179 1383 m 464 1231 l 624 1099 l 572 1099 l 435 1190 l 282 1099 l 232 1099 l 406 1231 l 464 1231 z "},"Ể":{"ha":811,"x_min":113,"x_max":725,"o":"m 319 -6 q 171 32 229 -6 q 113 185 113 69 l 113 824 q 167 973 113 926 q 300 1019 221 1019 q 626 1013 374 1019 l 725 1008 l 725 946 l 321 946 q 226 913 260 946 q 193 814 193 881 l 193 543 l 667 536 l 667 476 l 193 469 l 193 200 q 231 96 193 122 q 331 69 268 69 l 725 69 l 725 7 q 319 -6 542 -1 m 575 1208 q 634 1240 615 1219 q 653 1285 653 1261 q 638 1327 653 1313 q 588 1342 622 1342 q 538 1333 563 1342 l 538 1367 q 597 1376 565 1376 q 672 1353 647 1376 q 696 1288 696 1329 q 666 1217 696 1249 q 575 1169 636 1186 l 575 1208 m 406 1231 l 464 1231 l 624 1099 l 572 1099 l 435 1190 l 282 1099 l 232 1099 l 406 1231 z "},"Ễ":{"ha":811,"x_min":113,"x_max":725,"o":"m 319 -6 q 171 32 229 -6 q 113 185 113 69 l 113 824 q 167 973 113 926 q 300 1019 221 1019 q 626 1013 374 1019 l 725 1008 l 725 946 l 321 946 q 226 913 260 946 q 193 814 193 881 l 193 543 l 667 536 l 667 476 l 193 469 l 193 200 q 231 96 193 122 q 331 69 268 69 l 725 69 l 725 7 q 319 -6 542 -1 m 321 1404 q 374 1395 349 1404 q 432 1371 400 1386 q 488 1347 468 1354 q 531 1340 507 1340 q 588 1358 565 1340 q 610 1407 610 1375 l 653 1407 q 621 1326 650 1354 q 538 1297 592 1297 q 490 1305 513 1297 q 429 1329 467 1313 q 325 1361 365 1361 q 272 1345 293 1361 q 251 1297 251 1329 l 208 1297 q 242 1380 210 1356 q 321 1404 274 1404 m 624 1099 l 572 1099 l 435 1190 l 282 1099 l 232 1099 l 406 1231 l 464 1231 l 624 1099 z "},"Ȅ":{"ha":811,"x_min":113,"x_max":725,"o":"m 319 -6 q 171 32 229 -6 q 113 185 113 69 l 113 824 q 167 973 113 926 q 300 1019 221 1019 q 626 1013 374 1019 l 725 1008 l 725 946 l 321 946 q 226 913 260 946 q 193 814 193 881 l 193 543 l 667 536 l 667 476 l 193 469 l 193 200 q 231 96 193 122 q 331 69 268 69 l 725 69 l 725 7 q 319 -6 542 -1 m 158 1286 l 229 1286 l 383 1099 l 336 1099 l 158 1286 m 347 1286 l 418 1286 l 572 1099 l 525 1099 l 347 1286 z "},"Ë":{"ha":811,"x_min":113,"x_max":725,"o":"m 319 -6 q 171 32 229 -6 q 113 185 113 69 l 113 824 q 167 973 113 926 q 300 1019 221 1019 q 626 1013 374 1019 l 725 1008 l 725 946 l 321 946 q 226 913 260 946 q 193 814 193 881 l 193 543 l 667 536 l 667 476 l 193 469 l 193 200 q 231 96 193 122 q 331 69 268 69 l 725 69 l 725 7 q 319 -6 542 -1 m 233 1136 q 219 1142 225 1136 q 214 1156 214 1147 l 214 1256 q 233 1276 214 1276 l 271 1276 q 290 1256 290 1276 l 290 1156 q 271 1136 290 1136 l 233 1136 m 571 1136 q 557 1142 563 1136 q 551 1156 551 1147 l 551 1256 q 571 1276 551 1276 l 608 1276 q 628 1256 628 1276 l 628 1156 q 622 1141 628 1146 q 608 1136 617 1136 l 571 1136 z "},"Ė":{"ha":811,"x_min":113,"x_max":725,"o":"m 319 -6 q 171 32 229 -6 q 113 185 113 69 l 113 824 q 167 973 113 926 q 300 1019 221 1019 q 626 1013 374 1019 l 725 1008 l 725 946 l 321 946 q 226 913 260 946 q 193 814 193 881 l 193 543 l 667 536 l 667 476 l 193 469 l 193 200 q 231 96 193 122 q 331 69 268 69 l 725 69 l 725 7 q 319 -6 542 -1 m 413 1146 q 397 1151 403 1146 q 392 1165 392 1157 l 392 1265 q 413 1286 392 1286 l 449 1286 q 469 1265 469 1286 l 469 1165 q 449 1146 469 1146 l 413 1146 z "},"Ẹ":{"ha":811,"x_min":113,"x_max":725,"o":"m 319 -6 q 171 32 229 -6 q 113 185 113 69 l 113 824 q 167 973 113 926 q 300 1019 221 1019 q 626 1013 374 1019 l 725 1008 l 725 946 l 321 946 q 226 913 260 946 q 193 814 193 881 l 193 543 l 667 536 l 667 476 l 193 469 l 193 200 q 231 96 193 122 q 331 69 268 69 l 725 69 l 725 7 q 319 -6 542 -1 m 418 -285 q 403 -279 408 -285 q 397 -265 397 -274 l 397 -165 q 418 -144 397 -144 l 454 -144 q 475 -165 475 -144 l 475 -265 q 454 -285 475 -285 l 418 -285 z "},"È":{"ha":811,"x_min":113,"x_max":725,"o":"m 319 -6 q 171 32 229 -6 q 113 185 113 69 l 113 824 q 167 973 113 926 q 300 1019 221 1019 q 626 1013 374 1019 l 725 1008 l 725 946 l 321 946 q 226 913 260 946 q 193 814 193 881 l 193 543 l 667 536 l 667 476 l 193 469 l 193 200 q 231 96 193 122 q 331 69 268 69 l 725 69 l 725 7 q 319 -6 542 -1 m 233 1286 l 304 1286 l 458 1099 l 411 1099 l 233 1286 z "},"Ẻ":{"ha":811,"x_min":113,"x_max":725,"o":"m 319 -6 q 171 32 229 -6 q 113 185 113 69 l 113 824 q 167 973 113 926 q 300 1019 221 1019 q 626 1013 374 1019 l 725 1008 l 725 946 l 321 946 q 226 913 260 946 q 193 814 193 881 l 193 543 l 667 536 l 667 476 l 193 469 l 193 200 q 231 96 193 122 q 331 69 268 69 l 725 69 l 725 7 q 319 -6 542 -1 m 403 1108 q 469 1146 449 1122 q 489 1197 489 1169 q 415 1267 489 1267 q 365 1258 390 1267 l 365 1294 q 425 1304 393 1304 q 507 1276 479 1304 q 535 1199 535 1247 q 502 1122 535 1156 q 403 1069 469 1088 l 403 1108 z "},"Ȇ":{"ha":811,"x_min":113,"x_max":725,"o":"m 319 -6 q 171 32 229 -6 q 113 185 113 69 l 113 824 q 167 973 113 926 q 300 1019 221 1019 q 626 1013 374 1019 l 725 1008 l 725 946 l 321 946 q 226 913 260 946 q 193 814 193 881 l 193 543 l 667 536 l 667 476 l 193 469 l 193 200 q 231 96 193 122 q 331 69 268 69 l 725 69 l 725 7 q 319 -6 542 -1 m 428 1292 q 556 1246 506 1292 q 606 1099 606 1200 l 565 1099 q 528 1214 565 1176 q 432 1251 490 1251 q 288 1099 288 1251 l 247 1099 q 298 1247 247 1203 q 428 1292 349 1292 z "},"Ē":{"ha":811,"x_min":113,"x_max":725,"o":"m 319 -6 q 171 32 229 -6 q 113 185 113 69 l 113 824 q 167 973 113 926 q 300 1019 221 1019 q 626 1013 374 1019 l 725 1008 l 725 946 l 321 946 q 226 913 260 946 q 193 814 193 881 l 193 543 l 667 536 l 667 476 l 193 469 l 193 200 q 231 96 193 122 q 331 69 268 69 l 725 69 l 725 7 q 319 -6 542 -1 m 242 1214 l 603 1214 l 603 1165 l 242 1165 l 242 1214 z "},"Ḗ":{"ha":811,"x_min":113,"x_max":725,"o":"m 319 -6 q 171 32 229 -6 q 113 185 113 69 l 113 824 q 167 973 113 926 q 300 1019 221 1019 q 626 1013 374 1019 l 725 1008 l 725 946 l 321 946 q 226 913 260 946 q 193 814 193 881 l 193 543 l 667 536 l 667 476 l 193 469 l 193 200 q 231 96 193 122 q 331 69 268 69 l 725 69 l 725 7 q 319 -6 542 -1 m 242 1214 l 603 1214 l 603 1165 l 242 1165 l 242 1214 m 563 1461 l 635 1461 l 457 1274 l 410 1274 l 563 1461 z "},"Ḕ":{"ha":811,"x_min":113,"x_max":725,"o":"m 319 -6 q 171 32 229 -6 q 113 185 113 69 l 113 824 q 167 973 113 926 q 300 1019 221 1019 q 626 1013 374 1019 l 725 1008 l 725 946 l 321 946 q 226 913 260 946 q 193 814 193 881 l 193 543 l 667 536 l 667 476 l 193 469 l 193 200 q 231 96 193 122 q 331 69 268 69 l 725 69 l 725 7 q 319 -6 542 -1 m 242 1214 l 603 1214 l 603 1165 l 242 1165 l 242 1214 m 225 1461 l 296 1461 l 450 1274 l 403 1274 l 225 1461 z "},"Ę":{"ha":811,"x_min":113,"x_max":765,"o":"m 765 -207 l 765 -247 q 732 -250 743 -250 q 625 -216 665 -250 q 585 -128 585 -182 q 611 -54 585 -89 q 690 6 638 -19 q 319 -6 581 0 q 171 32 229 -6 q 113 185 113 69 l 113 824 q 167 973 113 926 q 300 1019 221 1019 q 626 1013 374 1019 l 725 1008 l 725 946 l 321 946 q 226 913 260 946 q 193 814 193 881 l 193 543 l 667 536 l 667 476 l 193 469 l 193 200 q 231 96 193 122 q 331 69 268 69 l 725 69 l 725 7 l 726 7 q 656 -47 681 -17 q 632 -111 632 -78 q 664 -182 632 -157 q 757 -207 696 -207 l 765 -207 z "},"Ẽ":{"ha":811,"x_min":113,"x_max":725,"o":"m 319 -6 q 171 32 229 -6 q 113 185 113 69 l 113 824 q 167 973 113 926 q 300 1019 221 1019 q 626 1013 374 1019 l 725 1008 l 725 946 l 321 946 q 226 913 260 946 q 193 814 193 881 l 193 543 l 667 536 l 667 476 l 193 469 l 193 200 q 231 96 193 122 q 331 69 268 69 l 725 69 l 725 7 q 319 -6 542 -1 m 200 1128 q 239 1233 201 1200 q 329 1267 276 1267 q 387 1254 360 1267 q 450 1218 414 1242 q 506 1186 485 1196 q 549 1176 526 1176 q 615 1201 589 1176 q 640 1269 640 1225 l 683 1269 q 647 1167 682 1204 q 551 1129 613 1129 q 497 1141 524 1129 q 436 1176 471 1153 q 379 1209 403 1199 q 332 1219 356 1219 q 268 1197 293 1219 q 243 1128 243 1174 l 200 1128 z "},"F":{"ha":782,"x_min":113,"x_max":725,"o":"m 113 824 q 167 973 113 926 q 300 1019 221 1019 q 725 1008 496 1019 l 725 946 l 319 946 q 226 913 260 946 q 193 814 193 879 l 193 522 l 667 515 l 667 456 l 193 449 l 193 0 l 113 0 l 113 824 z "},"Ḟ":{"ha":782,"x_min":113,"x_max":725,"o":"m 113 824 q 167 973 113 926 q 300 1019 221 1019 q 725 1008 496 1019 l 725 946 l 319 946 q 226 913 260 946 q 193 814 193 879 l 193 522 l 667 515 l 667 456 l 193 449 l 193 0 l 113 0 l 113 824 m 413 1146 q 397 1151 403 1146 q 392 1165 392 1157 l 392 1265 q 413 1286 392 1286 l 449 1286 q 469 1265 469 1286 l 469 1165 q 449 1146 469 1146 l 413 1146 z "},"G":{"ha":901,"x_min":88,"x_max":788,"o":"m 413 -7 q 215 46 285 -7 q 116 210 144 99 q 88 514 88 322 q 118 807 88 696 q 222 973 149 918 q 424 1028 294 1028 q 588 1019 497 1028 q 747 996 679 1010 l 747 936 q 605 949 694 943 q 433 956 515 956 q 272 911 329 956 q 192 772 215 867 q 168 511 168 676 q 192 242 168 336 q 272 107 215 147 q 438 67 329 67 q 574 85 501 67 q 710 128 647 103 l 710 460 l 443 460 l 443 518 q 669 532 531 532 q 788 526 747 532 l 788 0 l 729 0 l 715 72 q 572 17 651 40 q 413 -7 492 -7 z "},"Ğ":{"ha":901,"x_min":88,"x_max":788,"o":"m 413 -7 q 215 46 285 -7 q 116 210 144 99 q 88 514 88 322 q 118 807 88 696 q 222 973 149 918 q 424 1028 294 1028 q 588 1019 497 1028 q 747 996 679 1010 l 747 936 q 605 949 694 943 q 433 956 515 956 q 272 911 329 956 q 192 772 215 867 q 168 511 168 676 q 192 242 168 336 q 272 107 215 147 q 438 67 329 67 q 574 85 501 67 q 710 128 647 103 l 710 460 l 443 460 l 443 518 q 669 532 531 532 q 788 526 747 532 l 788 0 l 729 0 l 715 72 q 572 17 651 40 q 413 -7 492 -7 m 447 1097 q 319 1143 369 1097 q 269 1290 269 1189 l 310 1290 q 347 1175 310 1213 q 443 1138 385 1138 q 588 1290 588 1138 l 628 1290 q 577 1142 628 1186 q 447 1097 526 1097 z "},"Ǧ":{"ha":901,"x_min":88,"x_max":788,"o":"m 413 -7 q 215 46 285 -7 q 116 210 144 99 q 88 514 88 322 q 118 807 88 696 q 222 973 149 918 q 424 1028 294 1028 q 588 1019 497 1028 q 747 996 679 1010 l 747 936 q 605 949 694 943 q 433 956 515 956 q 272 911 329 956 q 192 772 215 867 q 168 511 168 676 q 192 242 168 336 q 272 107 215 147 q 438 67 329 67 q 574 85 501 67 q 710 128 647 103 l 710 460 l 443 460 l 443 518 q 669 532 531 532 q 788 526 747 532 l 788 0 l 729 0 l 715 72 q 572 17 651 40 q 413 -7 492 -7 m 268 1283 l 319 1283 l 457 1139 l 608 1283 l 660 1283 l 485 1099 l 426 1099 l 268 1283 z "},"Ĝ":{"ha":901,"x_min":88,"x_max":788,"o":"m 413 -7 q 215 46 285 -7 q 116 210 144 99 q 88 514 88 322 q 118 807 88 696 q 222 973 149 918 q 424 1028 294 1028 q 588 1019 497 1028 q 747 996 679 1010 l 747 936 q 605 949 694 943 q 433 956 515 956 q 272 911 329 956 q 192 772 215 867 q 168 511 168 676 q 192 242 168 336 q 272 107 215 147 q 438 67 329 67 q 574 85 501 67 q 710 128 647 103 l 710 460 l 443 460 l 443 518 q 669 532 531 532 q 788 526 747 532 l 788 0 l 729 0 l 715 72 q 572 17 651 40 q 413 -7 492 -7 m 432 1283 l 490 1283 l 649 1099 l 597 1099 l 460 1243 l 308 1099 l 257 1099 l 432 1283 z "},"Ģ":{"ha":901,"x_min":88,"x_max":788,"o":"m 413 -7 q 215 46 285 -7 q 116 210 144 99 q 88 514 88 322 q 118 807 88 696 q 222 973 149 918 q 424 1028 294 1028 q 588 1019 497 1028 q 747 996 679 1010 l 747 936 q 605 949 694 943 q 433 956 515 956 q 272 911 329 956 q 192 772 215 867 q 168 511 168 676 q 192 242 168 336 q 272 107 215 147 q 438 67 329 67 q 574 85 501 67 q 710 128 647 103 l 710 460 l 443 460 l 443 518 q 669 532 531 532 q 788 526 747 532 l 788 0 l 729 0 l 715 72 q 572 17 651 40 q 413 -7 492 -7 m 353 -242 l 396 -236 q 456 -221 435 -232 q 488 -178 476 -210 q 497 -83 499 -146 l 549 -83 q 536 -197 549 -156 q 492 -256 524 -237 q 400 -275 460 -275 l 353 -275 l 353 -242 z "},"Ġ":{"ha":901,"x_min":88,"x_max":788,"o":"m 413 -7 q 215 46 285 -7 q 116 210 144 99 q 88 514 88 322 q 118 807 88 696 q 222 973 149 918 q 424 1028 294 1028 q 588 1019 497 1028 q 747 996 679 1010 l 747 936 q 605 949 694 943 q 433 956 515 956 q 272 911 329 956 q 192 772 215 867 q 168 511 168 676 q 192 242 168 336 q 272 107 215 147 q 438 67 329 67 q 574 85 501 67 q 710 128 647 103 l 710 460 l 443 460 l 443 518 q 669 532 531 532 q 788 526 747 532 l 788 0 l 729 0 l 715 72 q 572 17 651 40 q 413 -7 492 -7 m 438 1146 q 422 1151 428 1146 q 417 1165 417 1157 l 417 1265 q 438 1286 417 1286 l 474 1286 q 494 1265 494 1286 l 494 1165 q 474 1146 494 1146 l 438 1146 z "},"Ḡ":{"ha":901,"x_min":88,"x_max":788,"o":"m 413 -7 q 215 46 285 -7 q 116 210 144 99 q 88 514 88 322 q 118 807 88 696 q 222 973 149 918 q 424 1028 294 1028 q 588 1019 497 1028 q 747 996 679 1010 l 747 936 q 605 949 694 943 q 433 956 515 956 q 272 911 329 956 q 192 772 215 867 q 168 511 168 676 q 192 242 168 336 q 272 107 215 147 q 438 67 329 67 q 574 85 501 67 q 710 128 647 103 l 710 460 l 443 460 l 443 518 q 669 532 531 532 q 788 526 747 532 l 788 0 l 729 0 l 715 72 q 572 17 651 40 q 413 -7 492 -7 m 267 1214 l 628 1214 l 628 1165 l 267 1165 l 267 1214 z "},"H":{"ha":938,"x_min":113,"x_max":824,"o":"m 113 1019 l 193 1019 l 193 532 l 743 532 l 743 1019 l 824 1019 l 824 0 l 743 0 l 743 460 l 193 460 l 193 0 l 113 0 l 113 1019 z "},"Ħ":{"ha":938,"x_min":22,"x_max":915,"o":"m 915 732 l 824 732 l 824 0 l 743 0 l 743 460 l 193 460 l 193 0 l 113 0 l 113 732 l 22 732 l 22 783 l 113 783 l 113 1019 l 193 1019 l 193 783 l 743 783 l 743 1019 l 824 1019 l 824 783 l 915 783 l 915 732 m 743 732 l 193 732 l 193 532 l 743 532 l 743 732 z "},"Ḫ":{"ha":938,"x_min":113,"x_max":824,"o":"m 113 1019 l 193 1019 l 193 532 l 743 532 l 743 1019 l 824 1019 l 824 0 l 743 0 l 743 460 l 193 460 l 193 0 l 113 0 l 113 1019 m 461 -306 q 333 -260 383 -306 q 283 -112 283 -214 l 324 -112 q 361 -228 324 -190 q 457 -265 399 -265 q 601 -112 601 -265 l 642 -112 q 591 -261 642 -217 q 461 -306 540 -306 z "},"Ĥ":{"ha":938,"x_min":113,"x_max":824,"o":"m 113 1019 l 193 1019 l 193 532 l 743 532 l 743 1019 l 824 1019 l 824 0 l 743 0 l 743 460 l 193 460 l 193 0 l 113 0 l 113 1019 m 443 1283 l 501 1283 l 660 1099 l 608 1099 l 471 1243 l 319 1099 l 268 1099 l 443 1283 z "},"Ḥ":{"ha":938,"x_min":113,"x_max":824,"o":"m 113 1019 l 193 1019 l 193 532 l 743 532 l 743 1019 l 824 1019 l 824 0 l 743 0 l 743 460 l 193 460 l 193 0 l 113 0 l 113 1019 m 447 -285 q 432 -279 438 -285 q 426 -265 426 -274 l 426 -165 q 447 -144 426 -144 l 483 -144 q 504 -165 504 -144 l 504 -265 q 483 -285 504 -285 l 447 -285 z "},"I":{"ha":307,"x_min":113,"x_max":193,"o":"m 113 1019 l 193 1019 l 193 0 l 113 0 l 113 1019 z "},"Í":{"ha":307,"x_min":113,"x_max":360,"o":"m 113 1019 l 193 1019 l 193 0 l 113 0 l 113 1019 m 288 1286 l 360 1286 l 182 1099 l 135 1099 l 288 1286 z "},"Ĭ":{"ha":307,"x_min":-35,"x_max":324,"o":"m 113 1019 l 193 1019 l 193 0 l 113 0 l 113 1019 m 143 1097 q 15 1143 65 1097 q -35 1290 -35 1189 l 6 1290 q 43 1175 6 1213 q 139 1138 81 1138 q 283 1290 283 1138 l 324 1290 q 273 1142 324 1186 q 143 1097 222 1097 z "},"Î":{"ha":307,"x_min":-47,"x_max":344,"o":"m 113 1019 l 193 1019 l 193 0 l 113 0 l 113 1019 m 128 1283 l 186 1283 l 344 1099 l 293 1099 l 156 1243 l 4 1099 l -47 1099 l 128 1283 z "},"Ȉ":{"ha":307,"x_min":-119,"x_max":294,"o":"m 113 1019 l 193 1019 l 193 0 l 113 0 l 113 1019 m -119 1286 l -49 1286 l 106 1099 l 58 1099 l -119 1286 m 69 1286 l 140 1286 l 294 1099 l 247 1099 l 69 1286 z "},"Ï":{"ha":307,"x_min":-65,"x_max":349,"o":"m 113 1019 l 193 1019 l 193 0 l 113 0 l 113 1019 m -46 1136 q -60 1142 -54 1136 q -65 1156 -65 1147 l -65 1256 q -46 1276 -65 1276 l -8 1276 q 11 1256 11 1276 l 11 1156 q -8 1136 11 1136 l -46 1136 m 292 1136 q 278 1142 283 1136 q 272 1156 272 1147 l 272 1256 q 292 1276 272 1276 l 329 1276 q 349 1256 349 1276 l 349 1156 q 343 1141 349 1146 q 329 1136 338 1136 l 292 1136 z "},"Ḯ":{"ha":307,"x_min":-65,"x_max":357,"o":"m 113 1019 l 193 1019 l 193 0 l 113 0 l 113 1019 m -46 1136 q -60 1142 -54 1136 q -65 1156 -65 1147 l -65 1256 q -46 1276 -65 1276 l -8 1276 q 11 1256 11 1276 l 11 1156 q -8 1136 11 1136 l -46 1136 m 292 1136 q 278 1142 283 1136 q 272 1156 272 1147 l 272 1256 q 292 1276 272 1276 l 329 1276 q 349 1256 349 1276 l 349 1156 q 343 1141 349 1146 q 329 1136 338 1136 l 292 1136 m 285 1506 l 357 1506 l 179 1318 l 132 1318 l 285 1506 z "},"İ":{"ha":307,"x_min":113,"x_max":193,"o":"m 113 1019 l 193 1019 l 193 0 l 113 0 l 113 1019 m 133 1146 q 118 1151 124 1146 q 113 1165 113 1157 l 113 1265 q 133 1286 113 1286 l 169 1286 q 190 1265 190 1286 l 190 1165 q 169 1146 190 1146 l 133 1146 z "},"Ị":{"ha":307,"x_min":111,"x_max":193,"o":"m 113 1019 l 193 1019 l 193 0 l 113 0 l 113 1019 m 132 -285 q 117 -279 122 -285 q 111 -265 111 -274 l 111 -165 q 132 -144 111 -144 l 168 -144 q 189 -165 189 -144 l 189 -265 q 168 -285 189 -285 l 132 -285 z "},"Ì":{"ha":307,"x_min":-46,"x_max":193,"o":"m 113 1019 l 193 1019 l 193 0 l 113 0 l 113 1019 m -46 1286 l 25 1286 l 179 1099 l 132 1099 l -46 1286 z "},"Ỉ":{"ha":307,"x_min":86,"x_max":256,"o":"m 113 1019 l 193 1019 l 193 0 l 113 0 l 113 1019 m 124 1108 q 190 1146 169 1122 q 210 1197 210 1169 q 136 1267 210 1267 q 86 1258 111 1267 l 86 1294 q 146 1304 114 1304 q 228 1276 200 1304 q 256 1199 256 1247 q 223 1122 256 1156 q 124 1069 190 1088 l 124 1108 z "},"Ȋ":{"ha":307,"x_min":-32,"x_max":326,"o":"m 113 1019 l 193 1019 l 193 0 l 113 0 l 113 1019 m 149 1292 q 276 1246 226 1292 q 326 1099 326 1200 l 286 1099 q 249 1214 286 1176 q 153 1251 211 1251 q 8 1099 8 1251 l -32 1099 q 19 1247 -32 1203 q 149 1292 69 1292 z "},"Ī":{"ha":307,"x_min":-37,"x_max":324,"o":"m 113 1019 l 193 1019 l 193 0 l 113 0 l 113 1019 m -37 1214 l 324 1214 l 324 1165 l -37 1165 l -37 1214 z "},"Į":{"ha":307,"x_min":53,"x_max":233,"o":"m 113 1019 l 193 1019 l 193 0 l 113 0 l 113 1019 m 200 -257 q 93 -223 133 -257 q 53 -135 53 -189 q 80 -60 53 -94 q 161 0 107 -25 l 194 0 q 124 -54 149 -24 q 100 -118 100 -85 q 132 -189 100 -164 q 225 -214 164 -214 l 233 -214 l 233 -254 q 200 -257 211 -257 z "},"Ĩ":{"ha":307,"x_min":-79,"x_max":404,"o":"m 113 1019 l 193 1019 l 193 0 l 113 0 l 113 1019 m -79 1128 q -40 1233 -78 1200 q 50 1267 -3 1267 q 108 1254 81 1267 q 171 1218 135 1242 q 226 1186 206 1196 q 269 1176 247 1176 q 335 1201 310 1176 q 361 1269 361 1225 l 404 1269 q 368 1167 403 1204 q 272 1129 333 1129 q 218 1141 244 1129 q 157 1176 192 1153 q 100 1209 124 1199 q 53 1219 76 1219 q -11 1197 14 1219 q -36 1128 -36 1174 l -79 1128 z "},"J":{"ha":526,"x_min":38,"x_max":413,"o":"m 192 -8 q 111 1 154 -8 q 38 25 68 11 l 38 86 q 109 70 69 76 q 179 64 149 64 q 293 98 254 64 q 332 224 332 132 l 332 1019 l 413 1019 l 413 215 q 359 42 413 93 q 192 -8 306 -8 z "},"Ĵ":{"ha":526,"x_min":38,"x_max":564,"o":"m 192 -8 q 111 1 154 -8 q 38 25 68 11 l 38 86 q 109 70 69 76 q 179 64 149 64 q 293 98 254 64 q 332 224 332 132 l 332 1019 l 413 1019 l 413 215 q 359 42 413 93 q 192 -8 306 -8 m 347 1283 l 406 1283 l 564 1099 l 513 1099 l 375 1243 l 224 1099 l 172 1099 l 347 1283 z "},"K":{"ha":824,"x_min":113,"x_max":776,"o":"m 113 1019 l 193 1019 l 193 546 l 388 546 l 688 1019 l 774 1019 l 451 510 l 776 0 l 689 0 l 386 474 l 193 474 l 193 0 l 113 0 l 113 1019 z "},"Ķ":{"ha":824,"x_min":113,"x_max":776,"o":"m 113 1019 l 193 1019 l 193 546 l 388 546 l 688 1019 l 774 1019 l 451 510 l 776 0 l 689 0 l 386 474 l 193 474 l 193 0 l 113 0 l 113 1019 m 281 -242 l 324 -236 q 383 -221 363 -232 q 415 -178 404 -210 q 425 -83 426 -146 l 476 -83 q 464 -197 476 -156 q 419 -256 451 -237 q 328 -275 388 -275 l 281 -275 l 281 -242 z "},"L":{"ha":738,"x_min":113,"x_max":699,"o":"m 307 0 q 165 44 217 0 q 113 193 113 88 l 113 1019 l 193 1019 l 193 203 q 228 102 193 129 q 321 75 264 75 l 699 75 l 699 0 l 307 0 z "},"Ĺ":{"ha":738,"x_min":113,"x_max":699,"o":"m 307 0 q 165 44 217 0 q 113 193 113 88 l 113 1019 l 193 1019 l 193 203 q 228 102 193 129 q 321 75 264 75 l 699 75 l 699 0 l 307 0 m 288 1286 l 360 1286 l 182 1099 l 135 1099 l 288 1286 z "},"Ľ":{"ha":738,"x_min":113,"x_max":699,"o":"m 307 0 q 165 44 217 0 q 113 193 113 88 l 113 1019 l 193 1019 l 193 203 q 228 102 193 129 q 321 75 264 75 l 699 75 l 699 0 l 307 0 m 321 1006 l 321 1088 l 396 1088 l 396 1006 l 389 808 l 328 808 l 321 1006 z "},"Ļ":{"ha":738,"x_min":113,"x_max":699,"o":"m 307 0 q 165 44 217 0 q 113 193 113 88 l 113 1019 l 193 1019 l 193 203 q 228 102 193 129 q 321 75 264 75 l 699 75 l 699 0 l 307 0 m 258 -242 l 301 -236 q 361 -221 340 -232 q 393 -178 382 -210 q 403 -83 404 -146 l 454 -83 q 442 -197 454 -156 q 397 -256 429 -237 q 306 -275 365 -275 l 258 -275 l 258 -242 z "},"Ŀ":{"ha":738,"x_min":113,"x_max":699,"o":"m 307 0 q 165 44 217 0 q 113 193 113 88 l 113 1019 l 193 1019 l 193 203 q 228 102 193 129 q 321 75 264 75 l 699 75 l 699 0 l 307 0 m 513 494 q 499 500 504 494 q 493 514 493 506 l 493 560 q 513 581 493 581 l 556 581 q 576 560 576 581 l 576 514 q 556 494 576 494 l 513 494 z "},"Ḷ":{"ha":738,"x_min":113,"x_max":699,"o":"m 307 0 q 165 44 217 0 q 113 193 113 88 l 113 1019 l 193 1019 l 193 203 q 228 102 193 129 q 321 75 264 75 l 699 75 l 699 0 l 307 0 m 351 -285 q 336 -279 342 -285 q 331 -265 331 -274 l 331 -165 q 351 -144 331 -144 l 388 -144 q 408 -165 408 -144 l 408 -265 q 388 -285 408 -285 l 351 -285 z "},"Ḻ":{"ha":738,"x_min":113,"x_max":699,"o":"m 307 0 q 165 44 217 0 q 113 193 113 88 l 113 1019 l 193 1019 l 193 203 q 228 102 193 129 q 321 75 264 75 l 699 75 l 699 0 l 307 0 m 185 -203 l 546 -203 l 546 -251 l 185 -251 l 185 -203 z "},"Ł":{"ha":738,"x_min":4,"x_max":699,"o":"m 699 75 l 699 0 l 307 0 q 165 44 217 0 q 113 193 113 88 l 113 486 l 4 440 l 4 492 l 113 538 l 113 1019 l 193 1019 l 193 563 l 386 646 l 386 596 l 193 513 l 193 203 q 228 102 193 129 q 321 75 264 75 l 699 75 z "},"M":{"ha":1140,"x_min":85,"x_max":1054,"o":"m 976 0 l 872 900 l 607 0 l 532 0 l 263 894 l 163 0 l 85 0 l 200 1019 l 288 1019 l 569 107 l 847 1019 l 936 1019 l 1054 0 l 976 0 z "},"Ṁ":{"ha":1140,"x_min":85,"x_max":1054,"o":"m 976 0 l 872 900 l 607 0 l 532 0 l 263 894 l 163 0 l 85 0 l 200 1019 l 288 1019 l 569 107 l 847 1019 l 936 1019 l 1054 0 l 976 0 m 547 1146 q 532 1151 538 1146 q 526 1165 526 1157 l 526 1265 q 547 1286 526 1286 l 583 1286 q 604 1265 604 1286 l 604 1165 q 583 1146 604 1146 l 547 1146 z "},"Ṃ":{"ha":1140,"x_min":85,"x_max":1054,"o":"m 976 0 l 872 900 l 607 0 l 532 0 l 263 894 l 163 0 l 85 0 l 200 1019 l 288 1019 l 569 107 l 847 1019 l 936 1019 l 1054 0 l 976 0 m 546 -285 q 531 -279 536 -285 q 525 -265 525 -274 l 525 -165 q 546 -144 525 -144 l 582 -144 q 603 -165 603 -144 l 603 -265 q 582 -285 603 -285 l 546 -285 z "},"N":{"ha":939,"x_min":135,"x_max":847,"o":"m 135 1019 l 203 1019 l 767 140 l 767 1019 l 847 1019 l 847 0 l 781 0 l 215 879 l 215 0 l 135 0 l 135 1019 z "},"Ń":{"ha":939,"x_min":135,"x_max":847,"o":"m 135 1019 l 203 1019 l 767 140 l 767 1019 l 847 1019 l 847 0 l 781 0 l 215 879 l 215 0 l 135 0 l 135 1019 m 604 1286 l 676 1286 l 499 1099 l 451 1099 l 604 1286 z "},"Ň":{"ha":939,"x_min":135,"x_max":847,"o":"m 135 1019 l 203 1019 l 767 140 l 767 1019 l 847 1019 l 847 0 l 781 0 l 215 879 l 215 0 l 135 0 l 135 1019 m 281 1283 l 332 1283 l 469 1139 l 621 1283 l 672 1283 l 497 1099 l 439 1099 l 281 1283 z "},"Ņ":{"ha":939,"x_min":135,"x_max":847,"o":"m 135 1019 l 203 1019 l 767 140 l 767 1019 l 847 1019 l 847 0 l 781 0 l 215 879 l 215 0 l 135 0 l 135 1019 m 356 -242 l 399 -236 q 458 -221 438 -232 q 490 -178 479 -210 q 500 -83 501 -146 l 551 -83 q 539 -197 551 -156 q 494 -256 526 -237 q 403 -275 463 -275 l 356 -275 l 356 -242 z "},"Ṅ":{"ha":939,"x_min":135,"x_max":847,"o":"m 135 1019 l 203 1019 l 767 140 l 767 1019 l 847 1019 l 847 0 l 781 0 l 215 879 l 215 0 l 135 0 l 135 1019 m 449 -285 q 433 -279 439 -285 q 428 -265 428 -274 l 428 -165 q 449 -144 428 -144 l 485 -144 q 506 -165 506 -144 l 506 -265 q 485 -285 506 -285 l 449 -285 z "},"Ṇ":{"ha":939,"x_min":135,"x_max":847,"o":"m 135 1019 l 203 1019 l 767 140 l 767 1019 l 847 1019 l 847 0 l 781 0 l 215 879 l 215 0 l 135 0 l 135 1019 m 449 -285 q 433 -279 439 -285 q 428 -265 428 -274 l 428 -165 q 449 -144 428 -144 l 485 -144 q 506 -165 506 -144 l 506 -265 q 485 -285 506 -285 l 449 -285 z "},"Ŋ":{"ha":936,"x_min":135,"x_max":847,"o":"m 847 1019 l 847 -114 q 789 -287 847 -236 q 607 -337 731 -337 q 526 -328 569 -337 q 453 -304 482 -318 l 453 -243 q 596 -265 533 -265 q 724 -231 681 -265 q 767 -106 767 -197 l 767 22 l 215 879 l 215 0 l 135 0 l 135 1019 l 203 1019 l 767 140 l 767 1019 l 847 1019 z "},"Ṉ":{"ha":939,"x_min":135,"x_max":847,"o":"m 135 1019 l 203 1019 l 767 140 l 767 1019 l 847 1019 l 847 0 l 781 0 l 215 879 l 215 0 l 135 0 l 135 1019 m 282 -203 l 643 -203 l 643 -251 l 282 -251 l 282 -203 z "},"Ñ":{"ha":939,"x_min":135,"x_max":847,"o":"m 135 1019 l 203 1019 l 767 140 l 767 1019 l 847 1019 l 847 0 l 781 0 l 215 879 l 215 0 l 135 0 l 135 1019 m 238 1128 q 276 1233 239 1200 q 367 1267 314 1267 q 424 1254 397 1267 q 488 1218 451 1242 q 543 1186 522 1196 q 586 1176 564 1176 q 652 1201 626 1176 q 678 1269 678 1225 l 721 1269 q 685 1167 719 1204 q 589 1129 650 1129 q 535 1141 561 1129 q 474 1176 508 1153 q 417 1209 440 1199 q 369 1219 393 1219 q 306 1197 331 1219 q 281 1128 281 1174 l 238 1128 z "},"O":{"ha":947,"x_min":88,"x_max":860,"o":"m 474 -8 q 251 28 332 -8 q 129 176 171 65 q 88 504 88 286 q 130 835 88 722 q 254 988 172 949 q 474 1028 336 1028 q 697 988 615 1028 q 819 836 778 949 q 860 504 860 724 q 818 176 860 286 q 696 28 776 65 q 474 -8 615 -8 m 474 64 q 655 96 592 64 q 749 222 718 128 q 779 504 779 315 q 749 797 779 701 q 655 924 718 893 q 474 956 592 956 q 298 924 361 956 q 201 796 235 893 q 168 504 168 699 q 197 221 168 314 q 288 96 225 128 q 474 64 351 64 z "},"Ó":{"ha":947,"x_min":88,"x_max":860,"o":"m 474 -8 q 251 28 332 -8 q 129 176 171 65 q 88 504 88 286 q 130 835 88 722 q 254 988 172 949 q 474 1028 336 1028 q 697 988 615 1028 q 819 836 778 949 q 860 504 860 724 q 818 176 860 286 q 696 28 776 65 q 474 -8 615 -8 m 474 64 q 655 96 592 64 q 749 222 718 128 q 779 504 779 315 q 749 797 779 701 q 655 924 718 893 q 474 956 592 956 q 298 924 361 956 q 201 796 235 893 q 168 504 168 699 q 197 221 168 314 q 288 96 225 128 q 474 64 351 64 m 608 1286 l 681 1286 l 503 1099 l 456 1099 l 608 1286 z "},"Ŏ":{"ha":947,"x_min":88,"x_max":860,"o":"m 474 -8 q 251 28 332 -8 q 129 176 171 65 q 88 504 88 286 q 130 835 88 722 q 254 988 172 949 q 474 1028 336 1028 q 697 988 615 1028 q 819 836 778 949 q 860 504 860 724 q 818 176 860 286 q 696 28 776 65 q 474 -8 615 -8 m 474 64 q 655 96 592 64 q 749 222 718 128 q 779 504 779 315 q 749 797 779 701 q 655 924 718 893 q 474 956 592 956 q 298 924 361 956 q 201 796 235 893 q 168 504 168 699 q 197 221 168 314 q 288 96 225 128 q 474 64 351 64 m 464 1097 q 336 1143 386 1097 q 286 1290 286 1189 l 326 1290 q 364 1175 326 1213 q 460 1138 401 1138 q 604 1290 604 1138 l 644 1290 q 594 1142 644 1186 q 464 1097 543 1097 z "},"Ô":{"ha":947,"x_min":88,"x_max":860,"o":"m 474 -8 q 251 28 332 -8 q 129 176 171 65 q 88 504 88 286 q 130 835 88 722 q 254 988 172 949 q 474 1028 336 1028 q 697 988 615 1028 q 819 836 778 949 q 860 504 860 724 q 818 176 860 286 q 696 28 776 65 q 474 -8 615 -8 m 474 64 q 655 96 592 64 q 749 222 718 128 q 779 504 779 315 q 749 797 779 701 q 655 924 718 893 q 474 956 592 956 q 298 924 361 956 q 201 796 235 893 q 168 504 168 699 q 197 221 168 314 q 288 96 225 128 q 474 64 351 64 m 449 1283 l 507 1283 l 665 1099 l 614 1099 l 476 1243 l 325 1099 l 274 1099 l 449 1283 z "},"Ố":{"ha":947,"x_min":88,"x_max":860,"o":"m 474 -8 q 251 28 332 -8 q 129 176 171 65 q 88 504 88 286 q 130 835 88 722 q 254 988 172 949 q 474 1028 336 1028 q 697 988 615 1028 q 819 836 778 949 q 860 504 860 724 q 818 176 860 286 q 696 28 776 65 q 474 -8 615 -8 m 474 64 q 655 96 592 64 q 749 222 718 128 q 779 504 779 315 q 749 797 779 701 q 655 924 718 893 q 474 956 592 956 q 298 924 361 956 q 201 796 235 893 q 168 504 168 699 q 197 221 168 314 q 288 96 225 128 q 474 64 351 64 m 797 1383 l 633 1201 l 586 1201 l 725 1383 l 797 1383 m 506 1231 l 665 1099 l 614 1099 l 476 1190 l 324 1099 l 274 1099 l 447 1231 l 506 1231 z "},"Ộ":{"ha":947,"x_min":88,"x_max":860,"o":"m 474 -8 q 251 28 332 -8 q 129 176 171 65 q 88 504 88 286 q 130 835 88 722 q 254 988 172 949 q 474 1028 336 1028 q 697 988 615 1028 q 819 836 778 949 q 860 504 860 724 q 818 176 860 286 q 696 28 776 65 q 474 -8 615 -8 m 474 64 q 655 96 592 64 q 749 222 718 128 q 779 504 779 315 q 749 797 779 701 q 655 924 718 893 q 474 956 592 956 q 298 924 361 956 q 201 796 235 893 q 168 504 168 699 q 197 221 168 314 q 288 96 225 128 q 474 64 351 64 m 449 1283 l 507 1283 l 665 1099 l 614 1099 l 476 1243 l 325 1099 l 274 1099 l 449 1283 m 453 -285 q 438 -279 443 -285 q 432 -265 432 -274 l 432 -165 q 453 -144 432 -144 l 489 -144 q 510 -165 510 -144 l 510 -265 q 489 -285 510 -285 l 453 -285 z "},"Ồ":{"ha":947,"x_min":88,"x_max":860,"o":"m 474 -8 q 251 28 332 -8 q 129 176 171 65 q 88 504 88 286 q 130 835 88 722 q 254 988 172 949 q 474 1028 336 1028 q 697 988 615 1028 q 819 836 778 949 q 860 504 860 724 q 818 176 860 286 q 696 28 776 65 q 474 -8 615 -8 m 474 64 q 655 96 592 64 q 749 222 718 128 q 779 504 779 315 q 749 797 779 701 q 655 924 718 893 q 474 956 592 956 q 298 924 361 956 q 201 796 235 893 q 168 504 168 699 q 197 221 168 314 q 288 96 225 128 q 474 64 351 64 m 221 1383 l 361 1201 l 314 1201 l 150 1383 l 221 1383 m 506 1231 l 665 1099 l 614 1099 l 476 1190 l 324 1099 l 274 1099 l 447 1231 l 506 1231 z "},"Ổ":{"ha":947,"x_min":88,"x_max":860,"o":"m 474 -8 q 251 28 332 -8 q 129 176 171 65 q 88 504 88 286 q 130 835 88 722 q 254 988 172 949 q 474 1028 336 1028 q 697 988 615 1028 q 819 836 778 949 q 860 504 860 724 q 818 176 860 286 q 696 28 776 65 q 474 -8 615 -8 m 474 64 q 655 96 592 64 q 749 222 718 128 q 779 504 779 315 q 749 797 779 701 q 655 924 718 893 q 474 956 592 956 q 298 924 361 956 q 201 796 235 893 q 168 504 168 699 q 197 221 168 314 q 288 96 225 128 q 474 64 351 64 m 617 1208 q 676 1240 657 1219 q 694 1285 694 1261 q 679 1327 694 1313 q 629 1342 664 1342 q 579 1333 604 1342 l 579 1367 q 639 1376 607 1376 q 713 1353 689 1376 q 738 1288 738 1329 q 708 1217 738 1249 q 617 1169 678 1186 l 617 1208 m 447 1231 l 506 1231 l 665 1099 l 614 1099 l 476 1190 l 324 1099 l 274 1099 l 447 1231 z "},"Ỗ":{"ha":947,"x_min":88,"x_max":860,"o":"m 474 -8 q 251 28 332 -8 q 129 176 171 65 q 88 504 88 286 q 130 835 88 722 q 254 988 172 949 q 474 1028 336 1028 q 697 988 615 1028 q 819 836 778 949 q 860 504 860 724 q 818 176 860 286 q 696 28 776 65 q 474 -8 615 -8 m 474 64 q 655 96 592 64 q 749 222 718 128 q 779 504 779 315 q 749 797 779 701 q 655 924 718 893 q 474 956 592 956 q 298 924 361 956 q 201 796 235 893 q 168 504 168 699 q 197 221 168 314 q 288 96 225 128 q 474 64 351 64 m 363 1404 q 416 1395 390 1404 q 474 1371 442 1386 q 529 1347 510 1354 q 572 1340 549 1340 q 629 1358 607 1340 q 651 1407 651 1375 l 694 1407 q 663 1326 692 1354 q 579 1297 633 1297 q 531 1305 554 1297 q 471 1329 508 1313 q 367 1361 407 1361 q 314 1345 335 1361 q 293 1297 293 1329 l 250 1297 q 283 1380 251 1356 q 363 1404 315 1404 m 665 1099 l 614 1099 l 476 1190 l 324 1099 l 274 1099 l 447 1231 l 506 1231 l 665 1099 z "},"Ȍ":{"ha":947,"x_min":88,"x_max":860,"o":"m 474 -8 q 251 28 332 -8 q 129 176 171 65 q 88 504 88 286 q 130 835 88 722 q 254 988 172 949 q 474 1028 336 1028 q 697 988 615 1028 q 819 836 778 949 q 860 504 860 724 q 818 176 860 286 q 696 28 776 65 q 474 -8 615 -8 m 474 64 q 655 96 592 64 q 749 222 718 128 q 779 504 779 315 q 749 797 779 701 q 655 924 718 893 q 474 956 592 956 q 298 924 361 956 q 201 796 235 893 q 168 504 168 699 q 197 221 168 314 q 288 96 225 128 q 474 64 351 64 m 200 1286 l 271 1286 l 425 1099 l 378 1099 l 200 1286 m 389 1286 l 460 1286 l 614 1099 l 567 1099 l 389 1286 z "},"Ö":{"ha":947,"x_min":88,"x_max":860,"o":"m 474 -8 q 251 28 332 -8 q 129 176 171 65 q 88 504 88 286 q 130 835 88 722 q 254 988 172 949 q 474 1028 336 1028 q 697 988 615 1028 q 819 836 778 949 q 860 504 860 724 q 818 176 860 286 q 696 28 776 65 q 474 -8 615 -8 m 474 64 q 655 96 592 64 q 749 222 718 128 q 779 504 779 315 q 749 797 779 701 q 655 924 718 893 q 474 956 592 956 q 298 924 361 956 q 201 796 235 893 q 168 504 168 699 q 197 221 168 314 q 288 96 225 128 q 474 64 351 64 m 275 1136 q 261 1142 267 1136 q 256 1156 256 1147 l 256 1256 q 275 1276 256 1276 l 313 1276 q 332 1256 332 1276 l 332 1156 q 313 1136 332 1136 l 275 1136 m 613 1136 q 599 1142 604 1136 q 593 1156 593 1147 l 593 1256 q 613 1276 593 1276 l 650 1276 q 669 1256 669 1276 l 669 1156 q 664 1141 669 1146 q 650 1136 658 1136 l 613 1136 z "},"Ȫ":{"ha":947,"x_min":88,"x_max":860,"o":"m 474 -8 q 251 28 332 -8 q 129 176 171 65 q 88 504 88 286 q 130 835 88 722 q 254 988 172 949 q 474 1028 336 1028 q 697 988 615 1028 q 819 836 778 949 q 860 504 860 724 q 818 176 860 286 q 696 28 776 65 q 474 -8 615 -8 m 474 64 q 655 96 592 64 q 749 222 718 128 q 779 504 779 315 q 749 797 779 701 q 655 924 718 893 q 474 956 592 956 q 298 924 361 956 q 201 796 235 893 q 168 504 168 699 q 197 221 168 314 q 288 96 225 128 q 474 64 351 64 m 297 1136 q 283 1142 289 1136 q 278 1156 278 1147 l 278 1256 q 297 1276 278 1276 l 335 1276 q 354 1256 354 1276 l 354 1156 q 335 1136 354 1136 l 297 1136 m 635 1136 q 621 1142 626 1136 q 615 1156 615 1147 l 615 1256 q 635 1276 615 1276 l 672 1276 q 692 1256 692 1276 l 692 1156 q 686 1141 692 1146 q 672 1136 681 1136 l 635 1136 m 306 1436 l 667 1436 l 667 1388 l 306 1388 l 306 1436 z "},"Ȱ":{"ha":947,"x_min":88,"x_max":860,"o":"m 474 -8 q 251 28 332 -8 q 129 176 171 65 q 88 504 88 286 q 130 835 88 722 q 254 988 172 949 q 474 1028 336 1028 q 697 988 615 1028 q 819 836 778 949 q 860 504 860 724 q 818 176 860 286 q 696 28 776 65 q 474 -8 615 -8 m 474 64 q 655 96 592 64 q 749 222 718 128 q 779 504 779 315 q 749 797 779 701 q 655 924 718 893 q 474 956 592 956 q 298 924 361 956 q 201 796 235 893 q 168 504 168 699 q 197 221 168 314 q 288 96 225 128 q 474 64 351 64 m 454 1146 q 439 1151 444 1146 q 433 1165 433 1157 l 433 1265 q 454 1286 433 1286 l 490 1286 q 511 1265 511 1286 l 511 1165 q 490 1146 511 1146 l 454 1146 m 283 1425 l 644 1425 l 644 1376 l 283 1376 l 283 1425 z "},"Ọ":{"ha":947,"x_min":88,"x_max":860,"o":"m 474 -8 q 251 28 332 -8 q 129 176 171 65 q 88 504 88 286 q 130 835 88 722 q 254 988 172 949 q 474 1028 336 1028 q 697 988 615 1028 q 819 836 778 949 q 860 504 860 724 q 818 176 860 286 q 696 28 776 65 q 474 -8 615 -8 m 474 64 q 655 96 592 64 q 749 222 718 128 q 779 504 779 315 q 749 797 779 701 q 655 924 718 893 q 474 956 592 956 q 298 924 361 956 q 201 796 235 893 q 168 504 168 699 q 197 221 168 314 q 288 96 225 128 q 474 64 351 64 m 453 -285 q 438 -279 443 -285 q 432 -265 432 -274 l 432 -165 q 453 -144 432 -144 l 489 -144 q 510 -165 510 -144 l 510 -265 q 489 -285 510 -285 l 453 -285 z "},"Ò":{"ha":947,"x_min":88,"x_max":860,"o":"m 474 -8 q 251 28 332 -8 q 129 176 171 65 q 88 504 88 286 q 130 835 88 722 q 254 988 172 949 q 474 1028 336 1028 q 697 988 615 1028 q 819 836 778 949 q 860 504 860 724 q 818 176 860 286 q 696 28 776 65 q 474 -8 615 -8 m 474 64 q 655 96 592 64 q 749 222 718 128 q 779 504 779 315 q 749 797 779 701 q 655 924 718 893 q 474 956 592 956 q 298 924 361 956 q 201 796 235 893 q 168 504 168 699 q 197 221 168 314 q 288 96 225 128 q 474 64 351 64 m 275 1286 l 346 1286 l 500 1099 l 453 1099 l 275 1286 z "},"Ỏ":{"ha":947,"x_min":88,"x_max":860,"o":"m 474 -8 q 251 28 332 -8 q 129 176 171 65 q 88 504 88 286 q 130 835 88 722 q 254 988 172 949 q 474 1028 336 1028 q 697 988 615 1028 q 819 836 778 949 q 860 504 860 724 q 818 176 860 286 q 696 28 776 65 q 474 -8 615 -8 m 474 64 q 655 96 592 64 q 749 222 718 128 q 779 504 779 315 q 749 797 779 701 q 655 924 718 893 q 474 956 592 956 q 298 924 361 956 q 201 796 235 893 q 168 504 168 699 q 197 221 168 314 q 288 96 225 128 q 474 64 351 64 m 444 1108 q 510 1146 490 1122 q 531 1197 531 1169 q 457 1267 531 1267 q 407 1258 432 1267 l 407 1294 q 467 1304 435 1304 q 549 1276 521 1304 q 576 1199 576 1247 q 544 1122 576 1156 q 444 1069 511 1088 l 444 1108 z "},"Ơ":{"ha":947,"x_min":88,"x_max":876,"o":"m 721 974 q 826 815 792 925 q 860 504 860 704 q 818 176 860 286 q 696 28 776 65 q 474 -8 615 -8 q 251 28 332 -8 q 129 176 171 65 q 88 504 88 286 q 130 835 88 722 q 254 988 172 949 q 474 1028 336 1028 q 597 1019 540 1028 l 703 1019 q 815 1179 815 1019 l 876 1179 q 833 1024 876 1072 q 721 974 790 976 m 474 64 q 655 96 592 64 q 749 222 718 128 q 779 504 779 315 q 749 797 779 701 q 655 924 718 893 q 474 956 592 956 q 298 924 361 956 q 201 796 235 893 q 168 504 168 699 q 197 221 168 314 q 288 96 225 128 q 474 64 351 64 z "},"Ớ":{"ha":947,"x_min":88,"x_max":876,"o":"m 721 974 q 826 815 792 925 q 860 504 860 704 q 818 176 860 286 q 696 28 776 65 q 474 -8 615 -8 q 251 28 332 -8 q 129 176 171 65 q 88 504 88 286 q 130 835 88 722 q 254 988 172 949 q 474 1028 336 1028 q 597 1019 540 1028 l 703 1019 q 815 1179 815 1019 l 876 1179 q 833 1024 876 1072 q 721 974 790 976 m 474 64 q 655 96 592 64 q 749 222 718 128 q 779 504 779 315 q 749 797 779 701 q 655 924 718 893 q 474 956 592 956 q 298 924 361 956 q 201 796 235 893 q 168 504 168 699 q 197 221 168 314 q 288 96 225 128 q 474 64 351 64 m 594 1286 l 667 1286 l 489 1099 l 442 1099 l 594 1286 z "},"Ợ":{"ha":947,"x_min":88,"x_max":876,"o":"m 721 974 q 826 815 792 925 q 860 504 860 704 q 818 176 860 286 q 696 28 776 65 q 474 -8 615 -8 q 251 28 332 -8 q 129 176 171 65 q 88 504 88 286 q 130 835 88 722 q 254 988 172 949 q 474 1028 336 1028 q 597 1019 540 1028 l 703 1019 q 815 1179 815 1019 l 876 1179 q 833 1024 876 1072 q 721 974 790 976 m 474 64 q 655 96 592 64 q 749 222 718 128 q 779 504 779 315 q 749 797 779 701 q 655 924 718 893 q 474 956 592 956 q 298 924 361 956 q 201 796 235 893 q 168 504 168 699 q 197 221 168 314 q 288 96 225 128 q 474 64 351 64 m 450 -285 q 435 -279 440 -285 q 429 -265 429 -274 l 429 -165 q 450 -144 429 -144 l 486 -144 q 507 -165 507 -144 l 507 -265 q 486 -285 507 -285 l 450 -285 z "},"Ờ":{"ha":947,"x_min":88,"x_max":876,"o":"m 721 974 q 826 815 792 925 q 860 504 860 704 q 818 176 860 286 q 696 28 776 65 q 474 -8 615 -8 q 251 28 332 -8 q 129 176 171 65 q 88 504 88 286 q 130 835 88 722 q 254 988 172 949 q 474 1028 336 1028 q 597 1019 540 1028 l 703 1019 q 815 1179 815 1019 l 876 1179 q 833 1024 876 1072 q 721 974 790 976 m 474 64 q 655 96 592 64 q 749 222 718 128 q 779 504 779 315 q 749 797 779 701 q 655 924 718 893 q 474 956 592 956 q 298 924 361 956 q 201 796 235 893 q 168 504 168 699 q 197 221 168 314 q 288 96 225 128 q 474 64 351 64 m 258 1286 l 329 1286 l 483 1099 l 436 1099 l 258 1286 z "},"Ở":{"ha":947,"x_min":88,"x_max":876,"o":"m 721 974 q 826 815 792 925 q 860 504 860 704 q 818 176 860 286 q 696 28 776 65 q 474 -8 615 -8 q 251 28 332 -8 q 129 176 171 65 q 88 504 88 286 q 130 835 88 722 q 254 988 172 949 q 474 1028 336 1028 q 597 1019 540 1028 l 703 1019 q 815 1179 815 1019 l 876 1179 q 833 1024 876 1072 q 721 974 790 976 m 474 64 q 655 96 592 64 q 749 222 718 128 q 779 504 779 315 q 749 797 779 701 q 655 924 718 893 q 474 956 592 956 q 298 924 361 956 q 201 796 235 893 q 168 504 168 699 q 197 221 168 314 q 288 96 225 128 q 474 64 351 64 m 446 1108 q 512 1146 492 1122 q 532 1197 532 1169 q 458 1267 532 1267 q 408 1258 433 1267 l 408 1294 q 468 1304 436 1304 q 550 1276 522 1304 q 578 1199 578 1247 q 545 1122 578 1156 q 446 1069 513 1088 l 446 1108 z "},"Ỡ":{"ha":947,"x_min":88,"x_max":876,"o":"m 721 974 q 826 815 792 925 q 860 504 860 704 q 818 176 860 286 q 696 28 776 65 q 474 -8 615 -8 q 251 28 332 -8 q 129 176 171 65 q 88 504 88 286 q 130 835 88 722 q 254 988 172 949 q 474 1028 336 1028 q 597 1019 540 1028 l 703 1019 q 815 1179 815 1019 l 876 1179 q 833 1024 876 1072 q 721 974 790 976 m 474 64 q 655 96 592 64 q 749 222 718 128 q 779 504 779 315 q 749 797 779 701 q 655 924 718 893 q 474 956 592 956 q 298 924 361 956 q 201 796 235 893 q 168 504 168 699 q 197 221 168 314 q 288 96 225 128 q 474 64 351 64 m 233 1128 q 272 1233 235 1200 q 363 1267 310 1267 q 420 1254 393 1267 q 483 1218 447 1242 q 539 1186 518 1196 q 582 1176 560 1176 q 648 1201 622 1176 q 674 1269 674 1225 l 717 1269 q 681 1167 715 1204 q 585 1129 646 1129 q 531 1141 557 1129 q 469 1176 504 1153 q 413 1209 436 1199 q 365 1219 389 1219 q 301 1197 326 1219 q 276 1128 276 1174 l 233 1128 z "},"Ő":{"ha":947,"x_min":88,"x_max":860,"o":"m 474 -8 q 251 28 332 -8 q 129 176 171 65 q 88 504 88 286 q 130 835 88 722 q 254 988 172 949 q 474 1028 336 1028 q 697 988 615 1028 q 819 836 778 949 q 860 504 860 724 q 818 176 860 286 q 696 28 776 65 q 474 -8 615 -8 m 474 64 q 655 96 592 64 q 749 222 718 128 q 779 504 779 315 q 749 797 779 701 q 655 924 718 893 q 474 956 592 956 q 298 924 361 956 q 201 796 235 893 q 168 504 168 699 q 197 221 168 314 q 288 96 225 128 q 474 64 351 64 m 467 1286 l 536 1286 l 364 1099 l 317 1099 l 467 1286 m 669 1286 l 739 1286 l 567 1099 l 519 1099 l 669 1286 z "},"Ȏ":{"ha":947,"x_min":88,"x_max":860,"o":"m 474 -8 q 251 28 332 -8 q 129 176 171 65 q 88 504 88 286 q 130 835 88 722 q 254 988 172 949 q 474 1028 336 1028 q 697 988 615 1028 q 819 836 778 949 q 860 504 860 724 q 818 176 860 286 q 696 28 776 65 q 474 -8 615 -8 m 474 64 q 655 96 592 64 q 749 222 718 128 q 779 504 779 315 q 749 797 779 701 q 655 924 718 893 q 474 956 592 956 q 298 924 361 956 q 201 796 235 893 q 168 504 168 699 q 197 221 168 314 q 288 96 225 128 q 474 64 351 64 m 469 1292 q 597 1246 547 1292 q 647 1099 647 1200 l 607 1099 q 569 1214 607 1176 q 474 1251 532 1251 q 329 1099 329 1251 l 289 1099 q 340 1247 289 1203 q 469 1292 390 1292 z "},"Ō":{"ha":947,"x_min":88,"x_max":860,"o":"m 474 -8 q 251 28 332 -8 q 129 176 171 65 q 88 504 88 286 q 130 835 88 722 q 254 988 172 949 q 474 1028 336 1028 q 697 988 615 1028 q 819 836 778 949 q 860 504 860 724 q 818 176 860 286 q 696 28 776 65 q 474 -8 615 -8 m 474 64 q 655 96 592 64 q 749 222 718 128 q 779 504 779 315 q 749 797 779 701 q 655 924 718 893 q 474 956 592 956 q 298 924 361 956 q 201 796 235 893 q 168 504 168 699 q 197 221 168 314 q 288 96 225 128 q 474 64 351 64 m 283 1214 l 644 1214 l 644 1165 l 283 1165 l 283 1214 z "},"Ṓ":{"ha":947,"x_min":88,"x_max":860,"o":"m 474 -8 q 251 28 332 -8 q 129 176 171 65 q 88 504 88 286 q 130 835 88 722 q 254 988 172 949 q 474 1028 336 1028 q 697 988 615 1028 q 819 836 778 949 q 860 504 860 724 q 818 176 860 286 q 696 28 776 65 q 474 -8 615 -8 m 474 64 q 655 96 592 64 q 749 222 718 128 q 779 504 779 315 q 749 797 779 701 q 655 924 718 893 q 474 956 592 956 q 298 924 361 956 q 201 796 235 893 q 168 504 168 699 q 197 221 168 314 q 288 96 225 128 q 474 64 351 64 m 283 1214 l 644 1214 l 644 1165 l 283 1165 l 283 1214 m 606 1464 l 678 1464 l 500 1276 l 453 1276 l 606 1464 z "},"Ṑ":{"ha":947,"x_min":88,"x_max":860,"o":"m 474 -8 q 251 28 332 -8 q 129 176 171 65 q 88 504 88 286 q 130 835 88 722 q 254 988 172 949 q 474 1028 336 1028 q 697 988 615 1028 q 819 836 778 949 q 860 504 860 724 q 818 176 860 286 q 696 28 776 65 q 474 -8 615 -8 m 474 64 q 655 96 592 64 q 749 222 718 128 q 779 504 779 315 q 749 797 779 701 q 655 924 718 893 q 474 956 592 956 q 298 924 361 956 q 201 796 235 893 q 168 504 168 699 q 197 221 168 314 q 288 96 225 128 q 474 64 351 64 m 283 1214 l 644 1214 l 644 1165 l 283 1165 l 283 1214 m 267 1464 l 338 1464 l 492 1276 l 444 1276 l 267 1464 z "},"Ǫ":{"ha":947,"x_min":88,"x_max":860,"o":"m 565 -4 q 501 -57 524 -28 q 479 -118 479 -86 q 511 -189 479 -164 q 604 -214 543 -214 l 613 -214 l 613 -254 q 579 -257 590 -257 q 472 -223 513 -257 q 432 -135 432 -189 q 455 -65 432 -99 q 525 -7 478 -32 q 474 -8 508 -8 q 251 28 332 -8 q 129 176 171 65 q 88 504 88 286 q 130 835 88 722 q 254 988 172 949 q 474 1028 336 1028 q 697 988 615 1028 q 819 836 778 949 q 860 504 860 724 q 828 205 860 313 q 733 51 796 97 q 565 -4 669 6 m 168 504 q 197 221 168 314 q 288 96 225 128 q 474 64 351 64 q 655 96 592 64 q 749 222 718 128 q 779 504 779 315 q 749 797 779 701 q 655 924 718 893 q 474 956 592 956 q 298 924 361 956 q 201 796 235 893 q 168 504 168 699 z "},"Ø":{"ha":947,"x_min":88,"x_max":860,"o":"m 776 919 q 839 761 818 861 q 860 504 860 661 q 818 176 860 286 q 696 28 776 65 q 474 -8 615 -8 q 316 6 381 -8 q 207 57 251 19 l 169 0 l 107 0 l 171 96 q 108 251 129 153 q 88 504 88 350 q 130 835 88 722 q 254 988 172 949 q 474 1028 336 1028 q 630 1013 565 1028 q 739 960 694 997 l 779 1019 l 842 1019 l 776 919 m 168 504 q 180 299 168 381 q 218 168 192 218 l 696 893 q 608 942 661 929 q 474 956 556 956 q 298 924 361 956 q 201 796 235 893 q 168 504 168 699 m 474 64 q 655 96 592 64 q 749 222 718 128 q 779 504 779 315 q 767 715 779 632 q 728 847 754 797 l 251 124 q 339 77 286 90 q 474 64 392 64 z "},"Ǿ":{"ha":947,"x_min":88,"x_max":860,"o":"m 776 919 q 839 761 818 861 q 860 504 860 661 q 818 176 860 286 q 696 28 776 65 q 474 -8 615 -8 q 316 6 381 -8 q 207 57 251 19 l 169 0 l 107 0 l 171 96 q 108 251 129 153 q 88 504 88 350 q 130 835 88 722 q 254 988 172 949 q 474 1028 336 1028 q 630 1013 565 1028 q 739 960 694 997 l 779 1019 l 842 1019 l 776 919 m 168 504 q 180 299 168 381 q 218 168 192 218 l 696 893 q 608 942 661 929 q 474 956 556 956 q 298 924 361 956 q 201 796 235 893 q 168 504 168 699 m 474 64 q 655 96 592 64 q 749 222 718 128 q 779 504 779 315 q 767 715 779 632 q 728 847 754 797 l 251 124 q 339 77 286 90 q 474 64 392 64 m 608 1286 l 681 1286 l 503 1099 l 456 1099 l 608 1286 z "},"Õ":{"ha":947,"x_min":88,"x_max":860,"o":"m 474 -8 q 251 28 332 -8 q 129 176 171 65 q 88 504 88 286 q 130 835 88 722 q 254 988 172 949 q 474 1028 336 1028 q 697 988 615 1028 q 819 836 778 949 q 860 504 860 724 q 818 176 860 286 q 696 28 776 65 q 474 -8 615 -8 m 474 64 q 655 96 592 64 q 749 222 718 128 q 779 504 779 315 q 749 797 779 701 q 655 924 718 893 q 474 956 592 956 q 298 924 361 956 q 201 796 235 893 q 168 504 168 699 q 197 221 168 314 q 288 96 225 128 q 474 64 351 64 m 242 1128 q 281 1233 243 1200 q 371 1267 318 1267 q 428 1254 401 1267 q 492 1218 456 1242 q 547 1186 526 1196 q 590 1176 568 1176 q 656 1201 631 1176 q 682 1269 682 1225 l 725 1269 q 689 1167 724 1204 q 593 1129 654 1129 q 539 1141 565 1129 q 478 1176 513 1153 q 421 1209 444 1199 q 374 1219 397 1219 q 310 1197 335 1219 q 285 1128 285 1174 l 242 1128 z "},"Ṍ":{"ha":947,"x_min":88,"x_max":860,"o":"m 474 -8 q 251 28 332 -8 q 129 176 171 65 q 88 504 88 286 q 130 835 88 722 q 254 988 172 949 q 474 1028 336 1028 q 697 988 615 1028 q 819 836 778 949 q 860 504 860 724 q 818 176 860 286 q 696 28 776 65 q 474 -8 615 -8 m 474 64 q 655 96 592 64 q 749 222 718 128 q 779 504 779 315 q 749 797 779 701 q 655 924 718 893 q 474 956 592 956 q 298 924 361 956 q 201 796 235 893 q 168 504 168 699 q 197 221 168 314 q 288 96 225 128 q 474 64 351 64 m 242 1128 q 281 1233 243 1200 q 371 1267 318 1267 q 428 1254 401 1267 q 492 1218 456 1242 q 547 1186 526 1196 q 590 1176 568 1176 q 656 1201 631 1176 q 682 1269 682 1225 l 725 1269 q 689 1167 724 1204 q 593 1129 654 1129 q 539 1141 565 1129 q 478 1176 513 1153 q 421 1209 444 1199 q 374 1219 397 1219 q 310 1197 335 1219 q 285 1128 285 1174 l 242 1128 m 600 1500 l 672 1500 l 494 1313 l 447 1313 l 600 1500 z "},"Ṏ":{"ha":947,"x_min":88,"x_max":860,"o":"m 474 -8 q 251 28 332 -8 q 129 176 171 65 q 88 504 88 286 q 130 835 88 722 q 254 988 172 949 q 474 1028 336 1028 q 697 988 615 1028 q 819 836 778 949 q 860 504 860 724 q 818 176 860 286 q 696 28 776 65 q 474 -8 615 -8 m 474 64 q 655 96 592 64 q 749 222 718 128 q 779 504 779 315 q 749 797 779 701 q 655 924 718 893 q 474 956 592 956 q 298 924 361 956 q 201 796 235 893 q 168 504 168 699 q 197 221 168 314 q 288 96 225 128 q 474 64 351 64 m 242 1128 q 281 1233 243 1200 q 371 1267 318 1267 q 428 1254 401 1267 q 492 1218 456 1242 q 547 1186 526 1196 q 590 1176 568 1176 q 656 1201 631 1176 q 682 1269 682 1225 l 725 1269 q 689 1167 724 1204 q 593 1129 654 1129 q 539 1141 565 1129 q 478 1176 513 1153 q 421 1209 444 1199 q 374 1219 397 1219 q 310 1197 335 1219 q 285 1128 285 1174 l 242 1128 m 286 1350 q 272 1356 278 1350 q 267 1369 267 1361 l 267 1469 q 286 1490 267 1490 l 324 1490 q 343 1469 343 1490 l 343 1369 q 324 1350 343 1350 l 286 1350 m 624 1350 q 610 1356 615 1350 q 604 1369 604 1361 l 604 1469 q 624 1490 604 1490 l 661 1490 q 681 1469 681 1490 l 681 1369 q 675 1355 681 1360 q 661 1350 669 1350 l 624 1350 z "},"Ȭ":{"ha":947,"x_min":88,"x_max":860,"o":"m 474 -8 q 251 28 332 -8 q 129 176 171 65 q 88 504 88 286 q 130 835 88 722 q 254 988 172 949 q 474 1028 336 1028 q 697 988 615 1028 q 819 836 778 949 q 860 504 860 724 q 818 176 860 286 q 696 28 776 65 q 474 -8 615 -8 m 474 64 q 655 96 592 64 q 749 222 718 128 q 779 504 779 315 q 749 797 779 701 q 655 924 718 893 q 474 956 592 956 q 298 924 361 956 q 201 796 235 893 q 168 504 168 699 q 197 221 168 314 q 288 96 225 128 q 474 64 351 64 m 308 1428 l 669 1428 l 669 1379 l 308 1379 l 308 1428 m 242 1128 q 281 1233 243 1200 q 371 1267 318 1267 q 428 1254 401 1267 q 492 1218 456 1242 q 547 1186 526 1196 q 590 1176 568 1176 q 656 1201 631 1176 q 682 1269 682 1225 l 725 1269 q 689 1167 724 1204 q 593 1129 654 1129 q 539 1141 565 1129 q 478 1176 513 1153 q 421 1209 444 1199 q 374 1219 397 1219 q 310 1197 335 1219 q 285 1128 285 1174 l 242 1128 z "},"Œ":{"ha":1478,"x_min":88,"x_max":1392,"o":"m 988 946 q 893 913 926 946 q 860 814 860 881 l 860 543 l 1333 536 l 1333 476 l 860 469 l 860 200 q 897 96 860 122 q 997 69 935 69 l 1392 69 l 1392 7 q 986 -6 1208 -1 q 860 18 913 -6 q 788 113 807 42 q 669 17 743 42 q 474 -8 594 -8 q 251 28 332 -8 q 129 176 171 65 q 88 504 88 286 q 130 835 88 722 q 254 988 172 949 q 474 1028 336 1028 q 670 1000 594 1028 q 789 900 746 972 q 856 991 808 963 q 965 1019 904 1019 q 1293 1011 1090 1019 q 1392 1008 1328 1011 l 1392 946 l 988 946 m 474 64 q 655 96 592 64 q 749 222 718 128 q 779 504 779 315 q 749 797 779 701 q 655 924 718 893 q 474 956 592 956 q 298 924 361 956 q 201 796 235 893 q 168 504 168 699 q 197 221 168 314 q 288 96 225 128 q 474 64 351 64 z "},"P":{"ha":832,"x_min":113,"x_max":768,"o":"m 113 1019 l 510 1019 q 768 701 768 1019 q 690 444 768 515 q 503 374 611 374 q 360 378 463 374 q 193 386 258 382 l 193 0 l 113 0 l 113 1019 m 493 446 q 688 701 688 446 q 638 893 688 839 q 504 947 588 947 l 193 947 l 193 446 l 493 446 z "},"Ṗ":{"ha":832,"x_min":113,"x_max":768,"o":"m 113 1019 l 510 1019 q 768 701 768 1019 q 690 444 768 515 q 503 374 611 374 q 360 378 463 374 q 193 386 258 382 l 193 0 l 113 0 l 113 1019 m 493 446 q 688 701 688 446 q 638 893 688 839 q 504 947 588 947 l 193 947 l 193 446 l 493 446 m 376 1146 q 361 1151 367 1146 q 356 1165 356 1157 l 356 1265 q 376 1286 356 1286 l 413 1286 q 433 1265 433 1286 l 433 1165 q 413 1146 433 1146 l 376 1146 z "},"Þ":{"ha":768,"x_min":113,"x_max":704,"o":"m 113 1019 l 193 1019 l 193 826 l 446 826 q 704 532 704 826 q 626 295 704 361 q 439 229 547 229 q 193 242 406 229 l 193 0 l 113 0 l 113 1019 m 429 303 q 571 354 518 303 q 624 532 624 406 q 574 704 624 656 q 440 753 524 753 l 193 753 l 193 303 l 429 303 z "},"Q":{"ha":947,"x_min":88,"x_max":860,"o":"m 474 -8 q 251 28 332 -8 q 129 176 171 65 q 88 504 88 286 q 130 835 88 722 q 254 988 172 949 q 474 1028 336 1028 q 697 988 615 1028 q 819 836 778 949 q 860 504 860 724 q 818 176 860 286 q 696 28 776 65 q 474 -8 615 -8 m 474 64 q 655 96 592 64 q 749 222 718 128 q 779 504 779 315 q 749 797 779 701 q 655 924 718 893 q 474 956 592 956 q 298 924 361 956 q 201 796 235 893 q 168 504 168 699 q 197 221 168 314 q 288 96 225 128 q 474 64 351 64 m 700 -224 q 565 -177 625 -224 q 492 -47 504 -131 l 547 -47 q 608 -131 565 -103 q 700 -158 650 -158 q 769 -147 736 -158 l 769 -214 q 700 -224 739 -224 z "},"R":{"ha":836,"x_min":113,"x_max":775,"o":"m 113 1019 l 508 1019 q 694 959 622 1019 q 765 728 765 899 q 706 513 765 574 q 561 439 647 451 l 775 0 l 694 0 l 485 431 q 193 436 351 431 l 193 0 l 113 0 l 113 1019 m 499 497 q 635 545 586 497 q 685 728 685 593 q 635 901 685 856 q 499 947 585 947 l 193 947 l 193 497 l 499 497 z "},"Ŕ":{"ha":836,"x_min":113,"x_max":775,"o":"m 113 1019 l 508 1019 q 694 959 622 1019 q 765 728 765 899 q 706 513 765 574 q 561 439 647 451 l 775 0 l 694 0 l 485 431 q 193 436 351 431 l 193 0 l 113 0 l 113 1019 m 499 497 q 635 545 586 497 q 685 728 685 593 q 635 901 685 856 q 499 947 585 947 l 193 947 l 193 497 l 499 497 m 539 1286 l 611 1286 l 433 1099 l 386 1099 l 539 1286 z "},"Ř":{"ha":836,"x_min":113,"x_max":775,"o":"m 113 1019 l 508 1019 q 694 959 622 1019 q 765 728 765 899 q 706 513 765 574 q 561 439 647 451 l 775 0 l 694 0 l 485 431 q 193 436 351 431 l 193 0 l 113 0 l 113 1019 m 499 497 q 635 545 586 497 q 685 728 685 593 q 635 901 685 856 q 499 947 585 947 l 193 947 l 193 497 l 499 497 m 215 1283 l 267 1283 l 404 1139 l 556 1283 l 607 1283 l 432 1099 l 374 1099 l 215 1283 z "},"Ŗ":{"ha":836,"x_min":113,"x_max":775,"o":"m 113 1019 l 508 1019 q 694 959 622 1019 q 765 728 765 899 q 706 513 765 574 q 561 439 647 451 l 775 0 l 694 0 l 485 431 q 193 436 351 431 l 193 0 l 113 0 l 113 1019 m 499 497 q 635 545 586 497 q 685 728 685 593 q 635 901 685 856 q 499 947 585 947 l 193 947 l 193 497 l 499 497 m 292 -242 l 335 -236 q 394 -221 374 -232 q 426 -178 415 -210 q 436 -83 438 -146 l 488 -83 q 475 -197 488 -156 q 431 -256 463 -237 q 339 -275 399 -275 l 292 -275 l 292 -242 z "},"Ȑ":{"ha":836,"x_min":113,"x_max":775,"o":"m 113 1019 l 508 1019 q 694 959 622 1019 q 765 728 765 899 q 706 513 765 574 q 561 439 647 451 l 775 0 l 694 0 l 485 431 q 193 436 351 431 l 193 0 l 113 0 l 113 1019 m 499 497 q 635 545 586 497 q 685 728 685 593 q 635 901 685 856 q 499 947 585 947 l 193 947 l 193 497 l 499 497 m 131 1286 l 201 1286 l 356 1099 l 308 1099 l 131 1286 m 319 1286 l 390 1286 l 544 1099 l 497 1099 l 319 1286 z "},"Ṛ":{"ha":836,"x_min":113,"x_max":775,"o":"m 113 1019 l 508 1019 q 694 959 622 1019 q 765 728 765 899 q 706 513 765 574 q 561 439 647 451 l 775 0 l 694 0 l 485 431 q 193 436 351 431 l 193 0 l 113 0 l 113 1019 m 499 497 q 635 545 586 497 q 685 728 685 593 q 635 901 685 856 q 499 947 585 947 l 193 947 l 193 497 l 499 497 m 385 -285 q 369 -279 375 -285 q 364 -265 364 -274 l 364 -165 q 385 -144 364 -144 l 421 -144 q 442 -165 442 -144 l 442 -265 q 421 -285 442 -285 l 385 -285 z "},"Ȓ":{"ha":836,"x_min":113,"x_max":775,"o":"m 113 1019 l 508 1019 q 694 959 622 1019 q 765 728 765 899 q 706 513 765 574 q 561 439 647 451 l 775 0 l 694 0 l 485 431 q 193 436 351 431 l 193 0 l 113 0 l 113 1019 m 499 497 q 635 545 586 497 q 685 728 685 593 q 635 901 685 856 q 499 947 585 947 l 193 947 l 193 497 l 499 497 m 400 1292 q 528 1246 478 1292 q 578 1099 578 1200 l 538 1099 q 500 1214 538 1176 q 404 1251 463 1251 q 260 1099 260 1251 l 219 1099 q 270 1247 219 1203 q 400 1292 321 1292 z "},"Ṟ":{"ha":836,"x_min":113,"x_max":775,"o":"m 113 1019 l 508 1019 q 694 959 622 1019 q 765 728 765 899 q 706 513 765 574 q 561 439 647 451 l 775 0 l 694 0 l 485 431 q 193 436 351 431 l 193 0 l 113 0 l 113 1019 m 499 497 q 635 545 586 497 q 685 728 685 593 q 635 901 685 856 q 499 947 585 947 l 193 947 l 193 497 l 499 497 m 218 -203 l 579 -203 l 579 -251 l 218 -251 l 218 -203 z "},"S":{"ha":799,"x_min":90,"x_max":710,"o":"m 397 -8 q 237 -1 336 -8 q 92 14 138 6 l 92 75 q 394 64 192 64 q 569 100 507 64 q 632 235 632 136 l 632 313 q 592 433 632 392 q 465 474 551 474 l 347 474 q 156 528 221 474 q 90 710 90 583 l 90 769 q 162 967 90 907 q 375 1028 233 1028 q 522 1019 432 1028 q 664 1003 611 1011 l 664 942 q 382 956 463 956 q 221 915 274 956 q 168 767 168 874 l 168 713 q 213 588 168 624 q 349 551 258 551 l 472 551 q 650 489 590 551 q 710 321 710 426 l 710 236 q 625 46 710 100 q 397 -8 540 -8 z "},"Ś":{"ha":799,"x_min":90,"x_max":710,"o":"m 397 -8 q 237 -1 336 -8 q 92 14 138 6 l 92 75 q 394 64 192 64 q 569 100 507 64 q 632 235 632 136 l 632 313 q 592 433 632 392 q 465 474 551 474 l 347 474 q 156 528 221 474 q 90 710 90 583 l 90 769 q 162 967 90 907 q 375 1028 233 1028 q 522 1019 432 1028 q 664 1003 611 1011 l 664 942 q 382 956 463 956 q 221 915 274 956 q 168 767 168 874 l 168 713 q 213 588 168 624 q 349 551 258 551 l 472 551 q 650 489 590 551 q 710 321 710 426 l 710 236 q 625 46 710 100 q 397 -8 540 -8 m 525 1286 l 597 1286 l 419 1099 l 372 1099 l 525 1286 z "},"Ṥ":{"ha":799,"x_min":90,"x_max":710,"o":"m 397 -8 q 237 -1 336 -8 q 92 14 138 6 l 92 75 q 394 64 192 64 q 569 100 507 64 q 632 235 632 136 l 632 313 q 592 433 632 392 q 465 474 551 474 l 347 474 q 156 528 221 474 q 90 710 90 583 l 90 769 q 162 967 90 907 q 375 1028 233 1028 q 522 1019 432 1028 q 664 1003 611 1011 l 664 942 q 382 956 463 956 q 221 915 274 956 q 168 767 168 874 l 168 713 q 213 588 168 624 q 349 551 258 551 l 472 551 q 650 489 590 551 q 710 321 710 426 l 710 236 q 625 46 710 100 q 397 -8 540 -8 m 475 1286 l 547 1286 l 369 1099 l 322 1099 l 475 1286 m 418 1326 q 403 1332 408 1326 q 397 1346 397 1338 l 397 1446 q 418 1467 397 1467 l 454 1467 q 475 1446 475 1467 l 475 1346 q 454 1326 475 1326 l 418 1326 z "},"Š":{"ha":799,"x_min":90,"x_max":710,"o":"m 397 -8 q 237 -1 336 -8 q 92 14 138 6 l 92 75 q 394 64 192 64 q 569 100 507 64 q 632 235 632 136 l 632 313 q 592 433 632 392 q 465 474 551 474 l 347 474 q 156 528 221 474 q 90 710 90 583 l 90 769 q 162 967 90 907 q 375 1028 233 1028 q 522 1019 432 1028 q 664 1003 611 1011 l 664 942 q 382 956 463 956 q 221 915 274 956 q 168 767 168 874 l 168 713 q 213 588 168 624 q 349 551 258 551 l 472 551 q 650 489 590 551 q 710 321 710 426 l 710 236 q 625 46 710 100 q 397 -8 540 -8 m 201 1283 l 253 1283 l 390 1139 l 542 1283 l 593 1283 l 418 1099 l 360 1099 l 201 1283 z "},"Ṧ":{"ha":799,"x_min":90,"x_max":710,"o":"m 397 -8 q 237 -1 336 -8 q 92 14 138 6 l 92 75 q 394 64 192 64 q 569 100 507 64 q 632 235 632 136 l 632 313 q 592 433 632 392 q 465 474 551 474 l 347 474 q 156 528 221 474 q 90 710 90 583 l 90 769 q 162 967 90 907 q 375 1028 233 1028 q 522 1019 432 1028 q 664 1003 611 1011 l 664 942 q 382 956 463 956 q 221 915 274 956 q 168 767 168 874 l 168 713 q 213 588 168 624 q 349 551 258 551 l 472 551 q 650 489 590 551 q 710 321 710 426 l 710 236 q 625 46 710 100 q 397 -8 540 -8 m 201 1283 l 253 1283 l 390 1139 l 542 1283 l 593 1283 l 418 1099 l 360 1099 l 201 1283 m 371 1329 q 356 1335 361 1329 q 350 1349 350 1340 l 350 1449 q 371 1469 350 1469 l 407 1469 q 428 1449 428 1469 l 428 1349 q 407 1329 428 1329 l 371 1329 z "},"Ş":{"ha":799,"x_min":90,"x_max":710,"o":"m 472 551 q 650 489 590 551 q 710 321 710 426 l 710 236 q 628 48 710 103 q 407 -8 546 -7 l 360 -78 q 439 -101 414 -79 q 464 -165 464 -124 q 430 -235 464 -210 q 335 -260 396 -260 l 296 -260 l 296 -226 l 329 -224 q 392 -204 371 -221 q 413 -156 413 -187 q 390 -111 413 -128 q 311 -93 368 -94 l 367 -8 q 213 1 294 -6 q 92 14 131 7 l 92 75 q 394 64 192 64 q 569 100 507 64 q 632 235 632 136 l 632 313 q 592 433 632 392 q 465 474 551 474 l 347 474 q 156 528 221 474 q 90 710 90 583 l 90 769 q 162 967 90 907 q 375 1028 233 1028 q 522 1019 432 1028 q 664 1003 611 1011 l 664 942 q 382 956 463 956 q 221 915 274 956 q 168 767 168 874 l 168 713 q 213 588 168 624 q 349 551 258 551 l 472 551 z "},"Ŝ":{"ha":799,"x_min":90,"x_max":710,"o":"m 397 -8 q 237 -1 336 -8 q 92 14 138 6 l 92 75 q 394 64 192 64 q 569 100 507 64 q 632 235 632 136 l 632 313 q 592 433 632 392 q 465 474 551 474 l 347 474 q 156 528 221 474 q 90 710 90 583 l 90 769 q 162 967 90 907 q 375 1028 233 1028 q 522 1019 432 1028 q 664 1003 611 1011 l 664 942 q 382 956 463 956 q 221 915 274 956 q 168 767 168 874 l 168 713 q 213 588 168 624 q 349 551 258 551 l 472 551 q 650 489 590 551 q 710 321 710 426 l 710 236 q 625 46 710 100 q 397 -8 540 -8 m 365 1283 l 424 1283 l 582 1099 l 531 1099 l 393 1243 l 242 1099 l 190 1099 l 365 1283 z "},"Ș":{"ha":799,"x_min":90,"x_max":710,"o":"m 397 -8 q 237 -1 336 -8 q 92 14 138 6 l 92 75 q 394 64 192 64 q 569 100 507 64 q 632 235 632 136 l 632 313 q 592 433 632 392 q 465 474 551 474 l 347 474 q 156 528 221 474 q 90 710 90 583 l 90 769 q 162 967 90 907 q 375 1028 233 1028 q 522 1019 432 1028 q 664 1003 611 1011 l 664 942 q 382 956 463 956 q 221 915 274 956 q 168 767 168 874 l 168 713 q 213 588 168 624 q 349 551 258 551 l 472 551 q 650 489 590 551 q 710 321 710 426 l 710 236 q 625 46 710 100 q 397 -8 540 -8 m 276 -242 l 319 -236 q 379 -221 358 -232 q 411 -178 400 -210 q 421 -83 422 -146 l 472 -83 q 460 -197 472 -156 q 415 -256 447 -237 q 324 -275 383 -275 l 276 -275 l 276 -242 z "},"Ṡ":{"ha":799,"x_min":90,"x_max":710,"o":"m 397 -8 q 237 -1 336 -8 q 92 14 138 6 l 92 75 q 394 64 192 64 q 569 100 507 64 q 632 235 632 136 l 632 313 q 592 433 632 392 q 465 474 551 474 l 347 474 q 156 528 221 474 q 90 710 90 583 l 90 769 q 162 967 90 907 q 375 1028 233 1028 q 522 1019 432 1028 q 664 1003 611 1011 l 664 942 q 382 956 463 956 q 221 915 274 956 q 168 767 168 874 l 168 713 q 213 588 168 624 q 349 551 258 551 l 472 551 q 650 489 590 551 q 710 321 710 426 l 710 236 q 625 46 710 100 q 397 -8 540 -8 m 371 1146 q 356 1151 361 1146 q 350 1165 350 1157 l 350 1265 q 371 1286 350 1286 l 407 1286 q 428 1265 428 1286 l 428 1165 q 407 1146 428 1146 l 371 1146 z "},"Ṣ":{"ha":799,"x_min":90,"x_max":710,"o":"m 397 -8 q 237 -1 336 -8 q 92 14 138 6 l 92 75 q 394 64 192 64 q 569 100 507 64 q 632 235 632 136 l 632 313 q 592 433 632 392 q 465 474 551 474 l 347 474 q 156 528 221 474 q 90 710 90 583 l 90 769 q 162 967 90 907 q 375 1028 233 1028 q 522 1019 432 1028 q 664 1003 611 1011 l 664 942 q 382 956 463 956 q 221 915 274 956 q 168 767 168 874 l 168 713 q 213 588 168 624 q 349 551 258 551 l 472 551 q 650 489 590 551 q 710 321 710 426 l 710 236 q 625 46 710 100 q 397 -8 540 -8 m 369 -285 q 354 -279 360 -285 q 349 -265 349 -274 l 349 -165 q 369 -144 349 -144 l 406 -144 q 426 -165 426 -144 l 426 -265 q 406 -285 426 -285 l 369 -285 z "},"Ṩ":{"ha":799,"x_min":90,"x_max":710,"o":"m 397 -8 q 237 -1 336 -8 q 92 14 138 6 l 92 75 q 394 64 192 64 q 569 100 507 64 q 632 235 632 136 l 632 313 q 592 433 632 392 q 465 474 551 474 l 347 474 q 156 528 221 474 q 90 710 90 583 l 90 769 q 162 967 90 907 q 375 1028 233 1028 q 522 1019 432 1028 q 664 1003 611 1011 l 664 942 q 382 956 463 956 q 221 915 274 956 q 168 767 168 874 l 168 713 q 213 588 168 624 q 349 551 258 551 l 472 551 q 650 489 590 551 q 710 321 710 426 l 710 236 q 625 46 710 100 q 397 -8 540 -8 m 369 -285 q 354 -279 360 -285 q 349 -265 349 -274 l 349 -165 q 369 -144 349 -144 l 406 -144 q 426 -165 426 -144 l 426 -265 q 406 -285 426 -285 l 369 -285 m 371 1146 q 356 1151 361 1146 q 350 1165 350 1157 l 350 1265 q 371 1286 350 1286 l 407 1286 q 428 1265 428 1286 l 428 1165 q 407 1146 428 1146 l 371 1146 z "},"ẞ":{"ha":910,"x_min":113,"x_max":821,"o":"m 583 542 q 761 482 701 542 q 821 315 821 422 l 821 231 q 738 44 821 97 q 517 -8 656 -8 q 416 -3 481 -8 q 319 10 351 3 l 319 71 q 508 65 374 65 q 679 101 618 65 q 740 235 740 138 l 740 311 q 699 432 740 392 q 568 472 658 472 l 401 472 l 401 542 l 456 542 l 653 907 l 694 947 l 344 947 q 233 908 272 947 q 193 792 193 869 l 193 0 l 113 0 l 113 790 q 176 965 113 910 q 339 1019 240 1019 q 775 1011 492 1019 l 765 988 l 775 992 l 751 953 l 749 947 l 747 947 l 524 585 l 467 542 l 583 542 z "},"Ə":{"ha":842,"x_min":93,"x_max":754,"o":"m 417 -8 q 232 38 303 -8 q 127 188 161 85 q 93 464 93 292 l 93 528 l 672 528 q 642 797 671 707 q 546 922 614 888 q 346 956 478 956 q 197 947 254 956 q 131 938 140 939 l 131 997 q 375 1028 250 1028 q 596 988 515 1028 q 715 839 676 949 q 754 518 754 729 q 714 198 754 314 q 600 37 674 82 q 417 -8 526 -8 m 414 64 q 555 98 500 64 q 640 218 610 132 q 671 461 669 304 l 174 461 q 197 226 175 311 q 271 102 219 140 q 414 64 322 64 z "},"T":{"ha":778,"x_min":22,"x_max":756,"o":"m 349 947 l 22 947 l 22 1019 l 756 1019 l 756 947 l 429 947 l 429 0 l 349 0 l 349 947 z "},"Ŧ":{"ha":778,"x_min":22,"x_max":756,"o":"m 429 947 l 429 567 l 681 567 l 681 515 l 429 515 l 429 0 l 349 0 l 349 515 l 97 515 l 97 567 l 349 567 l 349 947 l 22 947 l 22 1019 l 756 1019 l 756 947 l 429 947 z "},"Ť":{"ha":778,"x_min":22,"x_max":756,"o":"m 349 947 l 22 947 l 22 1019 l 756 1019 l 756 947 l 429 947 l 429 0 l 349 0 l 349 947 m 200 1283 l 251 1283 l 389 1139 l 540 1283 l 592 1283 l 417 1099 l 358 1099 l 200 1283 z "},"Ţ":{"ha":778,"x_min":22,"x_max":756,"o":"m 411 0 l 358 -78 q 438 -101 413 -79 q 463 -165 463 -124 q 428 -235 463 -210 q 333 -260 394 -260 l 294 -260 l 294 -226 l 328 -224 q 390 -204 369 -221 q 411 -156 411 -187 q 389 -111 411 -128 q 310 -93 367 -94 l 371 0 l 349 0 l 349 947 l 22 947 l 22 1019 l 756 1019 l 756 947 l 429 947 l 429 0 l 411 0 z "},"Ț":{"ha":778,"x_min":22,"x_max":756,"o":"m 349 947 l 22 947 l 22 1019 l 756 1019 l 756 947 l 429 947 l 429 0 l 349 0 l 349 947 m 225 -242 l 268 -236 q 328 -221 307 -232 q 360 -178 349 -210 q 369 -83 371 -146 l 421 -83 q 408 -197 421 -156 q 364 -256 396 -237 q 272 -275 332 -275 l 225 -275 l 225 -242 z "},"Ṫ":{"ha":778,"x_min":22,"x_max":756,"o":"m 349 947 l 22 947 l 22 1019 l 756 1019 l 756 947 l 429 947 l 429 0 l 349 0 l 349 947 m 369 1146 q 354 1151 360 1146 q 349 1165 349 1157 l 349 1265 q 369 1286 349 1286 l 406 1286 q 426 1265 426 1286 l 426 1165 q 406 1146 426 1146 l 369 1146 z "},"Ṭ":{"ha":778,"x_min":22,"x_max":756,"o":"m 349 947 l 22 947 l 22 1019 l 756 1019 l 756 947 l 429 947 l 429 0 l 349 0 l 349 947 m 368 -285 q 353 -279 358 -285 q 347 -265 347 -274 l 347 -165 q 368 -144 347 -144 l 404 -144 q 425 -165 425 -144 l 425 -265 q 404 -285 425 -285 l 368 -285 z "},"Ṯ":{"ha":778,"x_min":22,"x_max":756,"o":"m 349 947 l 22 947 l 22 1019 l 756 1019 l 756 947 l 429 947 l 429 0 l 349 0 l 349 947 m 201 -203 l 563 -203 l 563 -251 l 201 -251 l 201 -203 z "},"U":{"ha":935,"x_min":99,"x_max":835,"o":"m 467 -8 q 191 64 283 -8 q 99 313 99 136 l 99 1019 l 179 1019 l 179 313 q 251 119 179 174 q 467 65 322 65 q 683 119 613 65 q 754 313 754 174 l 754 1019 l 835 1019 l 835 313 q 742 64 835 136 q 467 -8 650 -8 z "},"Ú":{"ha":935,"x_min":99,"x_max":835,"o":"m 467 -8 q 191 64 283 -8 q 99 313 99 136 l 99 1019 l 179 1019 l 179 313 q 251 119 179 174 q 467 65 322 65 q 683 119 613 65 q 754 313 754 174 l 754 1019 l 835 1019 l 835 313 q 742 64 835 136 q 467 -8 650 -8 m 599 1286 l 671 1286 l 493 1099 l 446 1099 l 599 1286 z "},"Ŭ":{"ha":935,"x_min":99,"x_max":835,"o":"m 467 -8 q 191 64 283 -8 q 99 313 99 136 l 99 1019 l 179 1019 l 179 313 q 251 119 179 174 q 467 65 322 65 q 683 119 613 65 q 754 313 754 174 l 754 1019 l 835 1019 l 835 313 q 742 64 835 136 q 467 -8 650 -8 m 454 1097 q 326 1143 376 1097 q 276 1290 276 1189 l 317 1290 q 354 1175 317 1213 q 450 1138 392 1138 q 594 1290 594 1138 l 635 1290 q 584 1142 635 1186 q 454 1097 533 1097 z "},"Û":{"ha":935,"x_min":99,"x_max":835,"o":"m 467 -8 q 191 64 283 -8 q 99 313 99 136 l 99 1019 l 179 1019 l 179 313 q 251 119 179 174 q 467 65 322 65 q 683 119 613 65 q 754 313 754 174 l 754 1019 l 835 1019 l 835 313 q 742 64 835 136 q 467 -8 650 -8 m 439 1283 l 497 1283 l 656 1099 l 604 1099 l 467 1243 l 315 1099 l 264 1099 l 439 1283 z "},"Ȕ":{"ha":935,"x_min":99,"x_max":835,"o":"m 467 -8 q 191 64 283 -8 q 99 313 99 136 l 99 1019 l 179 1019 l 179 313 q 251 119 179 174 q 467 65 322 65 q 683 119 613 65 q 754 313 754 174 l 754 1019 l 835 1019 l 835 313 q 742 64 835 136 q 467 -8 650 -8 m 190 1286 l 261 1286 l 415 1099 l 368 1099 l 190 1286 m 379 1286 l 450 1286 l 604 1099 l 557 1099 l 379 1286 z "},"Ü":{"ha":935,"x_min":99,"x_max":835,"o":"m 467 -8 q 191 64 283 -8 q 99 313 99 136 l 99 1019 l 179 1019 l 179 313 q 251 119 179 174 q 467 65 322 65 q 683 119 613 65 q 754 313 754 174 l 754 1019 l 835 1019 l 835 313 q 742 64 835 136 q 467 -8 650 -8 m 265 1136 q 251 1142 257 1136 q 246 1156 246 1147 l 246 1256 q 265 1276 246 1276 l 303 1276 q 322 1256 322 1276 l 322 1156 q 303 1136 322 1136 l 265 1136 m 603 1136 q 589 1142 594 1136 q 583 1156 583 1147 l 583 1256 q 603 1276 583 1276 l 640 1276 q 660 1256 660 1276 l 660 1156 q 654 1141 660 1146 q 640 1136 649 1136 l 603 1136 z "},"Ụ":{"ha":935,"x_min":99,"x_max":835,"o":"m 467 -8 q 191 64 283 -8 q 99 313 99 136 l 99 1019 l 179 1019 l 179 313 q 251 119 179 174 q 467 65 322 65 q 683 119 613 65 q 754 313 754 174 l 754 1019 l 835 1019 l 835 313 q 742 64 835 136 q 467 -8 650 -8 m 443 -285 q 428 -279 433 -285 q 422 -265 422 -274 l 422 -165 q 443 -144 422 -144 l 479 -144 q 500 -165 500 -144 l 500 -265 q 479 -285 500 -285 l 443 -285 z "},"Ù":{"ha":935,"x_min":99,"x_max":835,"o":"m 467 -8 q 191 64 283 -8 q 99 313 99 136 l 99 1019 l 179 1019 l 179 313 q 251 119 179 174 q 467 65 322 65 q 683 119 613 65 q 754 313 754 174 l 754 1019 l 835 1019 l 835 313 q 742 64 835 136 q 467 -8 650 -8 m 265 1286 l 336 1286 l 490 1099 l 443 1099 l 265 1286 z "},"Ủ":{"ha":935,"x_min":99,"x_max":835,"o":"m 467 -8 q 191 64 283 -8 q 99 313 99 136 l 99 1019 l 179 1019 l 179 313 q 251 119 179 174 q 467 65 322 65 q 683 119 613 65 q 754 313 754 174 l 754 1019 l 835 1019 l 835 313 q 742 64 835 136 q 467 -8 650 -8 m 435 1108 q 501 1146 481 1122 q 521 1197 521 1169 q 447 1267 521 1267 q 397 1258 422 1267 l 397 1294 q 457 1304 425 1304 q 539 1276 511 1304 q 567 1199 567 1247 q 534 1122 567 1156 q 435 1069 501 1088 l 435 1108 z "},"Ư":{"ha":935,"x_min":99,"x_max":974,"o":"m 974 1179 q 935 1031 974 1079 q 835 975 897 983 l 835 313 q 742 64 835 136 q 467 -8 650 -8 q 191 64 283 -8 q 99 313 99 136 l 99 1019 l 179 1019 l 179 313 q 251 119 179 174 q 467 65 322 65 q 683 119 613 65 q 754 313 754 174 l 754 1019 l 800 1019 q 913 1179 913 1019 l 974 1179 z "},"Ứ":{"ha":935,"x_min":99,"x_max":974,"o":"m 974 1179 q 935 1031 974 1079 q 835 975 897 983 l 835 313 q 742 64 835 136 q 467 -8 650 -8 q 191 64 283 -8 q 99 313 99 136 l 99 1019 l 179 1019 l 179 313 q 251 119 179 174 q 467 65 322 65 q 683 119 613 65 q 754 313 754 174 l 754 1019 l 800 1019 q 913 1179 913 1019 l 974 1179 m 583 1286 l 656 1286 l 478 1099 l 431 1099 l 583 1286 z "},"Ự":{"ha":935,"x_min":99,"x_max":974,"o":"m 974 1179 q 935 1031 974 1079 q 835 975 897 983 l 835 313 q 742 64 835 136 q 467 -8 650 -8 q 191 64 283 -8 q 99 313 99 136 l 99 1019 l 179 1019 l 179 313 q 251 119 179 174 q 467 65 322 65 q 683 119 613 65 q 754 313 754 174 l 754 1019 l 800 1019 q 913 1179 913 1019 l 974 1179 m 431 -285 q 415 -279 421 -285 q 410 -265 410 -274 l 410 -165 q 431 -144 410 -144 l 467 -144 q 488 -165 488 -144 l 488 -265 q 467 -285 488 -285 l 431 -285 z "},"Ừ":{"ha":935,"x_min":99,"x_max":974,"o":"m 974 1179 q 935 1031 974 1079 q 835 975 897 983 l 835 313 q 742 64 835 136 q 467 -8 650 -8 q 191 64 283 -8 q 99 313 99 136 l 99 1019 l 179 1019 l 179 313 q 251 119 179 174 q 467 65 322 65 q 683 119 613 65 q 754 313 754 174 l 754 1019 l 800 1019 q 913 1179 913 1019 l 974 1179 m 272 1286 l 343 1286 l 497 1099 l 450 1099 l 272 1286 z "},"Ử":{"ha":935,"x_min":99,"x_max":974,"o":"m 974 1179 q 935 1031 974 1079 q 835 975 897 983 l 835 313 q 742 64 835 136 q 467 -8 650 -8 q 191 64 283 -8 q 99 313 99 136 l 99 1019 l 179 1019 l 179 313 q 251 119 179 174 q 467 65 322 65 q 683 119 613 65 q 754 313 754 174 l 754 1019 l 800 1019 q 913 1179 913 1019 l 974 1179 m 439 1108 q 505 1146 485 1122 q 525 1197 525 1169 q 451 1267 525 1267 q 401 1258 426 1267 l 401 1294 q 461 1304 429 1304 q 543 1276 515 1304 q 571 1199 571 1247 q 538 1122 571 1156 q 439 1069 506 1088 l 439 1108 z "},"Ữ":{"ha":935,"x_min":99,"x_max":974,"o":"m 974 1179 q 935 1031 974 1079 q 835 975 897 983 l 835 313 q 742 64 835 136 q 467 -8 650 -8 q 191 64 283 -8 q 99 313 99 136 l 99 1019 l 179 1019 l 179 313 q 251 119 179 174 q 467 65 322 65 q 683 119 613 65 q 754 313 754 174 l 754 1019 l 800 1019 q 913 1179 913 1019 l 974 1179 m 236 1128 q 275 1233 238 1200 q 365 1267 313 1267 q 423 1254 396 1267 q 486 1218 450 1242 q 542 1186 521 1196 q 585 1176 563 1176 q 651 1201 625 1176 q 676 1269 676 1225 l 719 1269 q 683 1167 718 1204 q 588 1129 649 1129 q 533 1141 560 1129 q 472 1176 507 1153 q 415 1209 439 1199 q 368 1219 392 1219 q 304 1197 329 1219 q 279 1128 279 1174 l 236 1128 z "},"Ű":{"ha":935,"x_min":99,"x_max":835,"o":"m 467 -8 q 191 64 283 -8 q 99 313 99 136 l 99 1019 l 179 1019 l 179 313 q 251 119 179 174 q 467 65 322 65 q 683 119 613 65 q 754 313 754 174 l 754 1019 l 835 1019 l 835 313 q 742 64 835 136 q 467 -8 650 -8 m 457 1286 l 526 1286 l 354 1099 l 307 1099 l 457 1286 m 660 1286 l 729 1286 l 557 1099 l 510 1099 l 660 1286 z "},"Ȗ":{"ha":935,"x_min":99,"x_max":835,"o":"m 467 -8 q 191 64 283 -8 q 99 313 99 136 l 99 1019 l 179 1019 l 179 313 q 251 119 179 174 q 467 65 322 65 q 683 119 613 65 q 754 313 754 174 l 754 1019 l 835 1019 l 835 313 q 742 64 835 136 q 467 -8 650 -8 m 460 1292 q 588 1246 538 1292 q 638 1099 638 1200 l 597 1099 q 560 1214 597 1176 q 464 1251 522 1251 q 319 1099 319 1251 l 279 1099 q 330 1247 279 1203 q 460 1292 381 1292 z "},"Ū":{"ha":935,"x_min":99,"x_max":835,"o":"m 467 -8 q 191 64 283 -8 q 99 313 99 136 l 99 1019 l 179 1019 l 179 313 q 251 119 179 174 q 467 65 322 65 q 683 119 613 65 q 754 313 754 174 l 754 1019 l 835 1019 l 835 313 q 742 64 835 136 q 467 -8 650 -8 m 274 1214 l 635 1214 l 635 1165 l 274 1165 l 274 1214 z "},"Ṻ":{"ha":935,"x_min":99,"x_max":835,"o":"m 467 -8 q 191 64 283 -8 q 99 313 99 136 l 99 1019 l 179 1019 l 179 313 q 251 119 179 174 q 467 65 322 65 q 683 119 613 65 q 754 313 754 174 l 754 1019 l 835 1019 l 835 313 q 742 64 835 136 q 467 -8 650 -8 m 274 1214 l 635 1214 l 635 1165 l 274 1165 l 274 1214 m 265 1311 q 251 1317 257 1311 q 246 1331 246 1322 l 246 1431 q 265 1451 246 1451 l 303 1451 q 322 1431 322 1451 l 322 1331 q 303 1311 322 1311 l 265 1311 m 603 1311 q 589 1317 594 1311 q 583 1331 583 1322 l 583 1431 q 603 1451 583 1451 l 640 1451 q 660 1431 660 1451 l 660 1331 q 654 1316 660 1321 q 640 1311 649 1311 l 603 1311 z "},"Ų":{"ha":935,"x_min":99,"x_max":835,"o":"m 835 1019 l 835 313 q 772 92 835 165 q 582 0 708 18 q 513 -54 536 -24 q 489 -118 489 -85 q 521 -189 489 -164 q 614 -214 553 -214 l 622 -214 l 622 -254 q 589 -257 600 -257 q 482 -223 522 -257 q 442 -135 442 -189 q 539 -6 442 -56 q 467 -8 492 -8 q 191 64 283 -8 q 99 313 99 136 l 99 1019 l 179 1019 l 179 313 q 251 119 179 174 q 467 65 322 65 q 683 119 613 65 q 754 313 754 174 l 754 1019 l 835 1019 z "},"Ů":{"ha":935,"x_min":99,"x_max":835,"o":"m 467 -8 q 191 64 283 -8 q 99 313 99 136 l 99 1019 l 179 1019 l 179 313 q 251 119 179 174 q 467 65 322 65 q 683 119 613 65 q 754 313 754 174 l 754 1019 l 835 1019 l 835 313 q 742 64 835 136 q 467 -8 650 -8 m 464 1058 q 351 1092 388 1058 q 314 1204 314 1125 q 351 1317 314 1283 q 464 1351 388 1351 q 575 1318 539 1351 q 611 1204 611 1285 q 575 1092 611 1125 q 464 1058 539 1058 m 464 1096 q 545 1119 521 1096 q 569 1204 569 1142 q 545 1290 569 1267 q 464 1314 521 1314 q 381 1290 407 1314 q 356 1204 356 1267 q 381 1119 356 1142 q 464 1096 407 1096 z "},"Ũ":{"ha":935,"x_min":99,"x_max":835,"o":"m 467 -8 q 191 64 283 -8 q 99 313 99 136 l 99 1019 l 179 1019 l 179 313 q 251 119 179 174 q 467 65 322 65 q 683 119 613 65 q 754 313 754 174 l 754 1019 l 835 1019 l 835 313 q 742 64 835 136 q 467 -8 650 -8 m 232 1128 q 271 1233 233 1200 q 361 1267 308 1267 q 419 1254 392 1267 q 482 1218 446 1242 q 538 1186 517 1196 q 581 1176 558 1176 q 647 1201 621 1176 q 672 1269 672 1225 l 715 1269 q 679 1167 714 1204 q 583 1129 644 1129 q 529 1141 556 1129 q 468 1176 503 1153 q 411 1209 435 1199 q 364 1219 388 1219 q 300 1197 325 1219 q 275 1128 275 1174 l 232 1128 z "},"Ṹ":{"ha":935,"x_min":99,"x_max":835,"o":"m 467 -8 q 191 64 283 -8 q 99 313 99 136 l 99 1019 l 179 1019 l 179 313 q 251 119 179 174 q 467 65 322 65 q 683 119 613 65 q 754 313 754 174 l 754 1019 l 835 1019 l 835 313 q 742 64 835 136 q 467 -8 650 -8 m 232 1128 q 271 1233 233 1200 q 361 1267 308 1267 q 419 1254 392 1267 q 482 1218 446 1242 q 538 1186 517 1196 q 581 1176 558 1176 q 647 1201 621 1176 q 672 1269 672 1225 l 715 1269 q 679 1167 714 1204 q 583 1129 644 1129 q 529 1141 556 1129 q 468 1176 503 1153 q 411 1209 435 1199 q 364 1219 388 1219 q 300 1197 325 1219 q 275 1128 275 1174 l 232 1128 m 599 1494 l 671 1494 l 493 1307 l 446 1307 l 599 1494 z "},"V":{"ha":932,"x_min":54,"x_max":878,"o":"m 54 1019 l 139 1019 l 467 82 l 794 1019 l 878 1019 l 518 0 l 414 0 l 54 1019 z "},"W":{"ha":1376,"x_min":54,"x_max":1322,"o":"m 54 1019 l 139 1019 l 375 104 l 646 1019 l 732 1019 l 1001 104 l 1239 1019 l 1322 1019 l 1054 0 l 963 0 l 689 913 l 414 0 l 322 0 l 54 1019 z "},"Ẃ":{"ha":1376,"x_min":54,"x_max":1322,"o":"m 54 1019 l 139 1019 l 375 104 l 646 1019 l 732 1019 l 1001 104 l 1239 1019 l 1322 1019 l 1054 0 l 963 0 l 689 913 l 414 0 l 322 0 l 54 1019 m 829 1286 l 901 1286 l 724 1099 l 676 1099 l 829 1286 z "},"Ŵ":{"ha":1376,"x_min":54,"x_max":1322,"o":"m 54 1019 l 139 1019 l 375 104 l 646 1019 l 732 1019 l 1001 104 l 1239 1019 l 1322 1019 l 1054 0 l 963 0 l 689 913 l 414 0 l 322 0 l 54 1019 m 669 1283 l 728 1283 l 886 1099 l 835 1099 l 697 1243 l 546 1099 l 494 1099 l 669 1283 z "},"Ẅ":{"ha":1376,"x_min":54,"x_max":1322,"o":"m 54 1019 l 139 1019 l 375 104 l 646 1019 l 732 1019 l 1001 104 l 1239 1019 l 1322 1019 l 1054 0 l 963 0 l 689 913 l 414 0 l 322 0 l 54 1019 m 496 1136 q 482 1142 488 1136 q 476 1156 476 1147 l 476 1256 q 496 1276 476 1276 l 533 1276 q 553 1256 553 1276 l 553 1156 q 533 1136 553 1136 l 496 1136 m 833 1136 q 819 1142 825 1136 q 814 1156 814 1147 l 814 1256 q 833 1276 814 1276 l 871 1276 q 890 1256 890 1276 l 890 1156 q 885 1141 890 1146 q 871 1136 879 1136 l 833 1136 z "},"Ẁ":{"ha":1376,"x_min":54,"x_max":1322,"o":"m 54 1019 l 139 1019 l 375 104 l 646 1019 l 732 1019 l 1001 104 l 1239 1019 l 1322 1019 l 1054 0 l 963 0 l 689 913 l 414 0 l 322 0 l 54 1019 m 496 1286 l 567 1286 l 721 1099 l 674 1099 l 496 1286 z "},"X":{"ha":849,"x_min":57,"x_max":792,"o":"m 472 503 l 790 0 l 701 0 l 422 442 l 150 0 l 61 0 l 379 510 l 57 1019 l 146 1019 l 431 569 l 703 1019 l 792 1019 l 472 503 z "},"Y":{"ha":854,"x_min":57,"x_max":797,"o":"m 386 347 l 57 1019 l 142 1019 l 428 428 l 714 1019 l 797 1019 l 467 347 l 467 0 l 386 0 l 386 347 z "},"Ý":{"ha":854,"x_min":57,"x_max":797,"o":"m 386 347 l 57 1019 l 142 1019 l 428 428 l 714 1019 l 797 1019 l 467 347 l 467 0 l 386 0 l 386 347 m 563 1286 l 635 1286 l 457 1099 l 410 1099 l 563 1286 z "},"Ŷ":{"ha":854,"x_min":57,"x_max":797,"o":"m 386 347 l 57 1019 l 142 1019 l 428 428 l 714 1019 l 797 1019 l 467 347 l 467 0 l 386 0 l 386 347 m 403 1283 l 461 1283 l 619 1099 l 568 1099 l 431 1243 l 279 1099 l 228 1099 l 403 1283 z "},"Ÿ":{"ha":854,"x_min":57,"x_max":797,"o":"m 386 347 l 57 1019 l 142 1019 l 428 428 l 714 1019 l 797 1019 l 467 347 l 467 0 l 386 0 l 386 347 m 229 1136 q 215 1142 221 1136 q 210 1156 210 1147 l 210 1256 q 229 1276 210 1276 l 267 1276 q 286 1256 286 1276 l 286 1156 q 267 1136 286 1136 l 229 1136 m 567 1136 q 553 1142 558 1136 q 547 1156 547 1147 l 547 1256 q 567 1276 547 1276 l 604 1276 q 624 1256 624 1276 l 624 1156 q 618 1141 624 1146 q 604 1136 613 1136 l 567 1136 z "},"Ẏ":{"ha":854,"x_min":57,"x_max":797,"o":"m 386 347 l 57 1019 l 142 1019 l 428 428 l 714 1019 l 797 1019 l 467 347 l 467 0 l 386 0 l 386 347 m 407 -285 q 392 -279 397 -285 q 386 -265 386 -274 l 386 -165 q 407 -144 386 -144 l 443 -144 q 464 -165 464 -144 l 464 -265 q 443 -285 464 -285 l 407 -285 z "},"Ỵ":{"ha":854,"x_min":57,"x_max":797,"o":"m 386 347 l 57 1019 l 142 1019 l 428 428 l 714 1019 l 797 1019 l 467 347 l 467 0 l 386 0 l 386 347 m 407 -285 q 392 -279 397 -285 q 386 -265 386 -274 l 386 -165 q 407 -144 386 -144 l 443 -144 q 464 -165 464 -144 l 464 -265 q 443 -285 464 -285 l 407 -285 z "},"Ỳ":{"ha":854,"x_min":57,"x_max":797,"o":"m 386 347 l 57 1019 l 142 1019 l 428 428 l 714 1019 l 797 1019 l 467 347 l 467 0 l 386 0 l 386 347 m 229 1286 l 300 1286 l 454 1099 l 407 1099 l 229 1286 z "},"Ỷ":{"ha":854,"x_min":57,"x_max":797,"o":"m 386 347 l 57 1019 l 142 1019 l 428 428 l 714 1019 l 797 1019 l 467 347 l 467 0 l 386 0 l 386 347 m 399 1108 q 465 1146 444 1122 q 485 1197 485 1169 q 411 1267 485 1267 q 361 1258 386 1267 l 361 1294 q 421 1304 389 1304 q 503 1276 475 1304 q 531 1199 531 1247 q 498 1122 531 1156 q 399 1069 465 1088 l 399 1108 z "},"Ȳ":{"ha":854,"x_min":57,"x_max":797,"o":"m 386 347 l 57 1019 l 142 1019 l 428 428 l 714 1019 l 797 1019 l 467 347 l 467 0 l 386 0 l 386 347 m 238 1214 l 599 1214 l 599 1165 l 238 1165 l 238 1214 z "},"Ỹ":{"ha":854,"x_min":57,"x_max":797,"o":"m 386 347 l 57 1019 l 142 1019 l 428 428 l 714 1019 l 797 1019 l 467 347 l 467 0 l 386 0 l 386 347 m 196 1128 q 235 1233 197 1200 q 325 1267 272 1267 q 383 1254 356 1267 q 446 1218 410 1242 q 501 1186 481 1196 q 544 1176 522 1176 q 610 1201 585 1176 q 636 1269 636 1225 l 679 1269 q 643 1167 678 1204 q 547 1129 608 1129 q 493 1141 519 1129 q 432 1176 467 1153 q 375 1209 399 1199 q 328 1219 351 1219 q 264 1197 289 1219 q 239 1128 239 1174 l 196 1128 z "},"Z":{"ha":772,"x_min":63,"x_max":719,"o":"m 63 67 l 621 947 l 63 947 l 63 1019 l 719 1019 l 719 953 l 160 72 l 719 72 l 719 0 l 63 0 l 63 67 z "},"Ź":{"ha":772,"x_min":63,"x_max":719,"o":"m 63 67 l 621 947 l 63 947 l 63 1019 l 719 1019 l 719 953 l 160 72 l 719 72 l 719 0 l 63 0 l 63 67 m 519 1286 l 592 1286 l 414 1099 l 367 1099 l 519 1286 z "},"Ž":{"ha":772,"x_min":63,"x_max":719,"o":"m 63 67 l 621 947 l 63 947 l 63 1019 l 719 1019 l 719 953 l 160 72 l 719 72 l 719 0 l 63 0 l 63 67 m 196 1283 l 247 1283 l 385 1139 l 536 1283 l 588 1283 l 413 1099 l 354 1099 l 196 1283 z "},"Ż":{"ha":772,"x_min":63,"x_max":719,"o":"m 63 67 l 621 947 l 63 947 l 63 1019 l 719 1019 l 719 953 l 160 72 l 719 72 l 719 0 l 63 0 l 63 67 m 365 1146 q 350 1151 356 1146 q 344 1165 344 1157 l 344 1265 q 365 1286 344 1286 l 401 1286 q 422 1265 422 1286 l 422 1165 q 401 1146 422 1146 l 365 1146 z "},"Ẓ":{"ha":772,"x_min":63,"x_max":719,"o":"m 63 67 l 621 947 l 63 947 l 63 1019 l 719 1019 l 719 953 l 160 72 l 719 72 l 719 0 l 63 0 l 63 67 m 364 -285 q 349 -279 354 -285 q 343 -265 343 -274 l 343 -165 q 364 -144 343 -144 l 400 -144 q 421 -165 421 -144 l 421 -265 q 400 -285 421 -285 l 364 -285 z "},"a":{"ha":754,"x_min":67,"x_max":646,"o":"m 254 -8 q 119 41 171 -8 q 67 176 67 90 l 67 226 q 126 369 67 317 q 294 422 185 422 l 565 422 l 565 525 q 522 646 565 606 q 364 686 478 686 l 132 686 l 132 735 q 392 753 267 753 q 585 698 524 753 q 646 529 646 643 l 646 0 l 585 0 l 568 86 q 504 56 558 79 q 382 12 450 32 q 254 -8 314 -8 m 288 56 q 392 72 331 56 q 501 105 453 88 q 565 128 550 122 l 565 379 l 307 369 q 186 328 225 367 q 147 225 147 289 l 147 190 q 189 88 147 119 q 288 56 231 56 z "},"á":{"ha":754,"x_min":67,"x_max":646,"o":"m 254 -8 q 119 41 171 -8 q 67 176 67 90 l 67 226 q 126 369 67 317 q 294 422 185 422 l 565 422 l 565 525 q 522 646 565 606 q 364 686 478 686 l 132 686 l 132 735 q 392 753 267 753 q 585 698 524 753 q 646 529 646 643 l 646 0 l 585 0 l 568 86 q 504 56 558 79 q 382 12 450 32 q 254 -8 314 -8 m 288 56 q 392 72 331 56 q 501 105 453 88 q 565 128 550 122 l 565 379 l 307 369 q 186 328 225 367 q 147 225 147 289 l 147 190 q 189 88 147 119 q 288 56 231 56 m 488 1064 l 560 1064 l 382 876 l 335 876 l 488 1064 z "},"ă":{"ha":754,"x_min":67,"x_max":646,"o":"m 254 -8 q 119 41 171 -8 q 67 176 67 90 l 67 226 q 126 369 67 317 q 294 422 185 422 l 565 422 l 565 525 q 522 646 565 606 q 364 686 478 686 l 132 686 l 132 735 q 392 753 267 753 q 585 698 524 753 q 646 529 646 643 l 646 0 l 585 0 l 568 86 q 504 56 558 79 q 382 12 450 32 q 254 -8 314 -8 m 288 56 q 392 72 331 56 q 501 105 453 88 q 565 128 550 122 l 565 379 l 307 369 q 186 328 225 367 q 147 225 147 289 l 147 190 q 189 88 147 119 q 288 56 231 56 m 365 875 q 238 921 288 875 q 188 1068 188 967 l 228 1068 q 265 953 228 990 q 361 915 303 915 q 506 1068 506 915 l 546 1068 q 495 919 546 964 q 365 875 444 875 z "},"ắ":{"ha":754,"x_min":67,"x_max":646,"o":"m 254 -8 q 119 41 171 -8 q 67 176 67 90 l 67 226 q 126 369 67 317 q 294 422 185 422 l 565 422 l 565 525 q 522 646 565 606 q 364 686 478 686 l 132 686 l 132 735 q 392 753 267 753 q 585 698 524 753 q 646 529 646 643 l 646 0 l 585 0 l 568 86 q 504 56 558 79 q 382 12 450 32 q 254 -8 314 -8 m 288 56 q 392 72 331 56 q 501 105 453 88 q 565 128 550 122 l 565 379 l 307 369 q 186 328 225 367 q 147 225 147 289 l 147 190 q 189 88 147 119 q 288 56 231 56 m 485 1211 l 557 1211 l 379 1024 l 332 1024 l 485 1211 m 228 1021 q 265 935 228 963 q 361 907 301 907 q 506 1021 506 907 l 546 1021 q 495 904 546 939 q 365 869 444 869 q 238 906 288 869 q 188 1021 188 942 l 228 1021 z "},"ặ":{"ha":754,"x_min":67,"x_max":646,"o":"m 254 -8 q 119 41 171 -8 q 67 176 67 90 l 67 226 q 126 369 67 317 q 294 422 185 422 l 565 422 l 565 525 q 522 646 565 606 q 364 686 478 686 l 132 686 l 132 735 q 392 753 267 753 q 585 698 524 753 q 646 529 646 643 l 646 0 l 585 0 l 568 86 q 504 56 558 79 q 382 12 450 32 q 254 -8 314 -8 m 288 56 q 392 72 331 56 q 501 105 453 88 q 565 128 550 122 l 565 379 l 307 369 q 186 328 225 367 q 147 225 147 289 l 147 190 q 189 88 147 119 q 288 56 231 56 m 365 875 q 238 921 288 875 q 188 1068 188 967 l 228 1068 q 265 953 228 990 q 361 915 303 915 q 506 1068 506 915 l 546 1068 q 495 919 546 964 q 365 875 444 875 m 353 -285 q 338 -279 343 -285 q 332 -265 332 -274 l 332 -165 q 353 -144 332 -144 l 389 -144 q 410 -165 410 -144 l 410 -265 q 389 -285 410 -285 l 353 -285 z "},"ằ":{"ha":754,"x_min":67,"x_max":646,"o":"m 254 -8 q 119 41 171 -8 q 67 176 67 90 l 67 226 q 126 369 67 317 q 294 422 185 422 l 565 422 l 565 525 q 522 646 565 606 q 364 686 478 686 l 132 686 l 132 735 q 392 753 267 753 q 585 698 524 753 q 646 529 646 643 l 646 0 l 585 0 l 568 86 q 504 56 558 79 q 382 12 450 32 q 254 -8 314 -8 m 288 56 q 392 72 331 56 q 501 105 453 88 q 565 128 550 122 l 565 379 l 307 369 q 186 328 225 367 q 147 225 147 289 l 147 190 q 189 88 147 119 q 288 56 231 56 m 190 1211 l 261 1211 l 415 1024 l 368 1024 l 190 1211 m 228 1021 q 265 935 228 963 q 361 907 301 907 q 506 1021 506 907 l 546 1021 q 495 904 546 939 q 365 869 444 869 q 238 906 288 869 q 188 1021 188 942 l 228 1021 z "},"ẳ":{"ha":754,"x_min":67,"x_max":646,"o":"m 254 -8 q 119 41 171 -8 q 67 176 67 90 l 67 226 q 126 369 67 317 q 294 422 185 422 l 565 422 l 565 525 q 522 646 565 606 q 364 686 478 686 l 132 686 l 132 735 q 392 753 267 753 q 585 698 524 753 q 646 529 646 643 l 646 0 l 585 0 l 568 86 q 504 56 558 79 q 382 12 450 32 q 254 -8 314 -8 m 288 56 q 392 72 331 56 q 501 105 453 88 q 565 128 550 122 l 565 379 l 307 369 q 186 328 225 367 q 147 225 147 289 l 147 190 q 189 88 147 119 q 288 56 231 56 m 343 1006 q 409 1043 389 1019 q 429 1094 429 1067 q 356 1164 429 1164 q 306 1156 331 1164 l 306 1192 q 365 1201 333 1201 q 447 1173 419 1201 q 475 1096 475 1144 q 442 1019 475 1053 q 343 967 410 985 l 343 1006 m 365 869 q 238 906 288 869 q 188 1021 188 942 l 228 1021 q 265 935 228 963 q 361 907 301 907 q 506 1021 506 907 l 546 1021 q 495 904 546 939 q 365 869 444 869 z "},"ẵ":{"ha":754,"x_min":67,"x_max":646,"o":"m 254 -8 q 119 41 171 -8 q 67 176 67 90 l 67 226 q 126 369 67 317 q 294 422 185 422 l 565 422 l 565 525 q 522 646 565 606 q 364 686 478 686 l 132 686 l 132 735 q 392 753 267 753 q 585 698 524 753 q 646 529 646 643 l 646 0 l 585 0 l 568 86 q 504 56 558 79 q 382 12 450 32 q 254 -8 314 -8 m 288 56 q 392 72 331 56 q 501 105 453 88 q 565 128 550 122 l 565 379 l 307 369 q 186 328 225 367 q 147 225 147 289 l 147 190 q 189 88 147 119 q 288 56 231 56 m 264 1176 q 317 1167 292 1176 q 375 1143 343 1158 q 431 1119 411 1126 q 474 1113 450 1113 q 531 1130 508 1113 q 553 1179 553 1147 l 596 1179 q 564 1098 593 1126 q 481 1069 535 1069 q 435 1076 456 1069 q 374 1101 414 1083 q 319 1125 343 1117 q 271 1133 296 1133 q 216 1117 238 1133 q 194 1069 194 1101 l 151 1069 q 185 1152 153 1128 q 264 1176 217 1176 m 228 1021 q 265 935 228 963 q 361 907 301 907 q 506 1021 506 907 l 546 1021 q 495 904 546 939 q 365 869 444 869 q 238 906 288 869 q 188 1021 188 942 l 228 1021 z "},"â":{"ha":754,"x_min":67,"x_max":646,"o":"m 254 -8 q 119 41 171 -8 q 67 176 67 90 l 67 226 q 126 369 67 317 q 294 422 185 422 l 565 422 l 565 525 q 522 646 565 606 q 364 686 478 686 l 132 686 l 132 735 q 392 753 267 753 q 585 698 524 753 q 646 529 646 643 l 646 0 l 585 0 l 568 86 q 504 56 558 79 q 382 12 450 32 q 254 -8 314 -8 m 288 56 q 392 72 331 56 q 501 105 453 88 q 565 128 550 122 l 565 379 l 307 369 q 186 328 225 367 q 147 225 147 289 l 147 190 q 189 88 147 119 q 288 56 231 56 m 350 1061 l 408 1061 l 567 876 l 515 876 l 378 1021 l 226 876 l 175 876 l 350 1061 z "},"ấ":{"ha":754,"x_min":67,"x_max":699,"o":"m 254 -8 q 119 41 171 -8 q 67 176 67 90 l 67 226 q 126 369 67 317 q 294 422 185 422 l 565 422 l 565 525 q 522 646 565 606 q 364 686 478 686 l 132 686 l 132 735 q 392 753 267 753 q 585 698 524 753 q 646 529 646 643 l 646 0 l 585 0 l 568 86 q 504 56 558 79 q 382 12 450 32 q 254 -8 314 -8 m 288 56 q 392 72 331 56 q 501 105 453 88 q 565 128 550 122 l 565 379 l 307 369 q 186 328 225 367 q 147 225 147 289 l 147 190 q 189 88 147 119 q 288 56 231 56 m 699 1161 l 535 979 l 488 979 l 626 1161 l 699 1161 m 407 1008 l 567 876 l 515 876 l 378 968 l 225 876 l 175 876 l 349 1008 l 407 1008 z "},"ậ":{"ha":754,"x_min":67,"x_max":646,"o":"m 254 -8 q 119 41 171 -8 q 67 176 67 90 l 67 226 q 126 369 67 317 q 294 422 185 422 l 565 422 l 565 525 q 522 646 565 606 q 364 686 478 686 l 132 686 l 132 735 q 392 753 267 753 q 585 698 524 753 q 646 529 646 643 l 646 0 l 585 0 l 568 86 q 504 56 558 79 q 382 12 450 32 q 254 -8 314 -8 m 288 56 q 392 72 331 56 q 501 105 453 88 q 565 128 550 122 l 565 379 l 307 369 q 186 328 225 367 q 147 225 147 289 l 147 190 q 189 88 147 119 q 288 56 231 56 m 350 1061 l 408 1061 l 567 876 l 515 876 l 378 1021 l 226 876 l 175 876 l 350 1061 m 353 -285 q 338 -279 343 -285 q 332 -265 332 -274 l 332 -165 q 353 -144 332 -144 l 389 -144 q 410 -165 410 -144 l 410 -265 q 389 -285 410 -285 l 353 -285 z "},"ầ":{"ha":754,"x_min":51,"x_max":646,"o":"m 254 -8 q 119 41 171 -8 q 67 176 67 90 l 67 226 q 126 369 67 317 q 294 422 185 422 l 565 422 l 565 525 q 522 646 565 606 q 364 686 478 686 l 132 686 l 132 735 q 392 753 267 753 q 585 698 524 753 q 646 529 646 643 l 646 0 l 585 0 l 568 86 q 504 56 558 79 q 382 12 450 32 q 254 -8 314 -8 m 288 56 q 392 72 331 56 q 501 105 453 88 q 565 128 550 122 l 565 379 l 307 369 q 186 328 225 367 q 147 225 147 289 l 147 190 q 189 88 147 119 q 288 56 231 56 m 122 1161 l 263 979 l 215 979 l 51 1161 l 122 1161 m 407 1008 l 567 876 l 515 876 l 378 968 l 225 876 l 175 876 l 349 1008 l 407 1008 z "},"ẩ":{"ha":754,"x_min":67,"x_max":646,"o":"m 254 -8 q 119 41 171 -8 q 67 176 67 90 l 67 226 q 126 369 67 317 q 294 422 185 422 l 565 422 l 565 525 q 522 646 565 606 q 364 686 478 686 l 132 686 l 132 735 q 392 753 267 753 q 585 698 524 753 q 646 529 646 643 l 646 0 l 585 0 l 568 86 q 504 56 558 79 q 382 12 450 32 q 254 -8 314 -8 m 288 56 q 392 72 331 56 q 501 105 453 88 q 565 128 550 122 l 565 379 l 307 369 q 186 328 225 367 q 147 225 147 289 l 147 190 q 189 88 147 119 q 288 56 231 56 m 518 986 q 577 1018 558 997 q 596 1063 596 1039 q 581 1105 596 1090 q 531 1119 565 1119 q 481 1111 506 1119 l 481 1144 q 540 1154 508 1154 q 615 1131 590 1154 q 639 1065 639 1107 q 609 995 639 1026 q 518 947 579 964 l 518 986 m 349 1008 l 407 1008 l 567 876 l 515 876 l 378 968 l 225 876 l 175 876 l 349 1008 z "},"ẫ":{"ha":754,"x_min":67,"x_max":646,"o":"m 254 -8 q 119 41 171 -8 q 67 176 67 90 l 67 226 q 126 369 67 317 q 294 422 185 422 l 565 422 l 565 525 q 522 646 565 606 q 364 686 478 686 l 132 686 l 132 735 q 392 753 267 753 q 585 698 524 753 q 646 529 646 643 l 646 0 l 585 0 l 568 86 q 504 56 558 79 q 382 12 450 32 q 254 -8 314 -8 m 288 56 q 392 72 331 56 q 501 105 453 88 q 565 128 550 122 l 565 379 l 307 369 q 186 328 225 367 q 147 225 147 289 l 147 190 q 189 88 147 119 q 288 56 231 56 m 264 1182 q 317 1173 292 1182 q 375 1149 343 1164 q 431 1125 411 1132 q 474 1118 450 1118 q 531 1135 508 1118 q 553 1185 553 1153 l 596 1185 q 564 1103 593 1132 q 481 1075 535 1075 q 433 1083 456 1075 q 372 1107 410 1090 q 268 1139 308 1139 q 215 1123 236 1139 q 194 1075 194 1107 l 151 1075 q 185 1158 153 1133 q 264 1182 217 1182 m 567 876 l 515 876 l 378 968 l 225 876 l 175 876 l 349 1008 l 407 1008 l 567 876 z "},"ȁ":{"ha":754,"x_min":67,"x_max":646,"o":"m 254 -8 q 119 41 171 -8 q 67 176 67 90 l 67 226 q 126 369 67 317 q 294 422 185 422 l 565 422 l 565 525 q 522 646 565 606 q 364 686 478 686 l 132 686 l 132 735 q 392 753 267 753 q 585 698 524 753 q 646 529 646 643 l 646 0 l 585 0 l 568 86 q 504 56 558 79 q 382 12 450 32 q 254 -8 314 -8 m 288 56 q 392 72 331 56 q 501 105 453 88 q 565 128 550 122 l 565 379 l 307 369 q 186 328 225 367 q 147 225 147 289 l 147 190 q 189 88 147 119 q 288 56 231 56 m 108 1064 l 179 1064 l 333 876 l 286 876 l 108 1064 m 297 1064 l 368 1064 l 522 876 l 475 876 l 297 1064 z "},"ä":{"ha":754,"x_min":67,"x_max":646,"o":"m 254 -8 q 119 41 171 -8 q 67 176 67 90 l 67 226 q 126 369 67 317 q 294 422 185 422 l 565 422 l 565 525 q 522 646 565 606 q 364 686 478 686 l 132 686 l 132 735 q 392 753 267 753 q 585 698 524 753 q 646 529 646 643 l 646 0 l 585 0 l 568 86 q 504 56 558 79 q 382 12 450 32 q 254 -8 314 -8 m 288 56 q 392 72 331 56 q 501 105 453 88 q 565 128 550 122 l 565 379 l 307 369 q 186 328 225 367 q 147 225 147 289 l 147 190 q 189 88 147 119 q 288 56 231 56 m 221 914 q 206 919 211 914 q 200 933 200 925 l 200 1033 q 221 1054 200 1054 l 257 1054 q 278 1033 278 1054 l 278 933 q 257 914 278 914 l 221 914 m 490 914 q 476 919 482 914 q 471 933 471 925 l 471 1033 q 490 1054 471 1054 l 528 1054 q 547 1033 547 1054 l 547 933 q 542 919 547 924 q 528 914 536 914 l 490 914 z "},"ạ":{"ha":754,"x_min":67,"x_max":646,"o":"m 254 -8 q 119 41 171 -8 q 67 176 67 90 l 67 226 q 126 369 67 317 q 294 422 185 422 l 565 422 l 565 525 q 522 646 565 606 q 364 686 478 686 l 132 686 l 132 735 q 392 753 267 753 q 585 698 524 753 q 646 529 646 643 l 646 0 l 585 0 l 568 86 q 504 56 558 79 q 382 12 450 32 q 254 -8 314 -8 m 288 56 q 392 72 331 56 q 501 105 453 88 q 565 128 550 122 l 565 379 l 307 369 q 186 328 225 367 q 147 225 147 289 l 147 190 q 189 88 147 119 q 288 56 231 56 m 353 -285 q 338 -279 343 -285 q 332 -265 332 -274 l 332 -165 q 353 -144 332 -144 l 389 -144 q 410 -165 410 -144 l 410 -265 q 389 -285 410 -285 l 353 -285 z "},"à":{"ha":754,"x_min":67,"x_max":646,"o":"m 254 -8 q 119 41 171 -8 q 67 176 67 90 l 67 226 q 126 369 67 317 q 294 422 185 422 l 565 422 l 565 525 q 522 646 565 606 q 364 686 478 686 l 132 686 l 132 735 q 392 753 267 753 q 585 698 524 753 q 646 529 646 643 l 646 0 l 585 0 l 568 86 q 504 56 558 79 q 382 12 450 32 q 254 -8 314 -8 m 288 56 q 392 72 331 56 q 501 105 453 88 q 565 128 550 122 l 565 379 l 307 369 q 186 328 225 367 q 147 225 147 289 l 147 190 q 189 88 147 119 q 288 56 231 56 m 199 1064 l 269 1064 l 424 876 l 376 876 l 199 1064 z "},"ả":{"ha":754,"x_min":67,"x_max":646,"o":"m 254 -8 q 119 41 171 -8 q 67 176 67 90 l 67 226 q 126 369 67 317 q 294 422 185 422 l 565 422 l 565 525 q 522 646 565 606 q 364 686 478 686 l 132 686 l 132 735 q 392 753 267 753 q 585 698 524 753 q 646 529 646 643 l 646 0 l 585 0 l 568 86 q 504 56 558 79 q 382 12 450 32 q 254 -8 314 -8 m 288 56 q 392 72 331 56 q 501 105 453 88 q 565 128 550 122 l 565 379 l 307 369 q 186 328 225 367 q 147 225 147 289 l 147 190 q 189 88 147 119 q 288 56 231 56 m 353 881 q 419 918 399 894 q 439 969 439 942 q 365 1039 439 1039 q 315 1031 340 1039 l 315 1067 q 375 1076 343 1076 q 457 1048 429 1076 q 485 971 485 1019 q 452 894 485 928 q 353 842 419 860 l 353 881 z "},"ȃ":{"ha":754,"x_min":67,"x_max":646,"o":"m 254 -8 q 119 41 171 -8 q 67 176 67 90 l 67 226 q 126 369 67 317 q 294 422 185 422 l 565 422 l 565 525 q 522 646 565 606 q 364 686 478 686 l 132 686 l 132 735 q 392 753 267 753 q 585 698 524 753 q 646 529 646 643 l 646 0 l 585 0 l 568 86 q 504 56 558 79 q 382 12 450 32 q 254 -8 314 -8 m 288 56 q 392 72 331 56 q 501 105 453 88 q 565 128 550 122 l 565 379 l 307 369 q 186 328 225 367 q 147 225 147 289 l 147 190 q 189 88 147 119 q 288 56 231 56 m 371 1069 q 499 1024 449 1069 q 549 876 549 978 l 508 876 q 471 992 508 954 q 375 1029 433 1029 q 231 876 231 1029 l 190 876 q 241 1025 190 981 q 371 1069 292 1069 z "},"ā":{"ha":754,"x_min":67,"x_max":646,"o":"m 254 -8 q 119 41 171 -8 q 67 176 67 90 l 67 226 q 126 369 67 317 q 294 422 185 422 l 565 422 l 565 525 q 522 646 565 606 q 364 686 478 686 l 132 686 l 132 735 q 392 753 267 753 q 585 698 524 753 q 646 529 646 643 l 646 0 l 585 0 l 568 86 q 504 56 558 79 q 382 12 450 32 q 254 -8 314 -8 m 288 56 q 392 72 331 56 q 501 105 453 88 q 565 128 550 122 l 565 379 l 307 369 q 186 328 225 367 q 147 225 147 289 l 147 190 q 189 88 147 119 q 288 56 231 56 m 192 992 l 553 992 l 553 943 l 192 943 l 192 992 z "},"ą":{"ha":754,"x_min":67,"x_max":685,"o":"m 685 -214 l 685 -254 q 651 -257 663 -257 q 544 -223 585 -257 q 504 -135 504 -189 q 531 -60 504 -94 q 613 0 558 -25 l 585 0 l 568 86 q 504 56 558 79 q 382 12 450 32 q 254 -8 314 -8 q 119 41 171 -8 q 67 176 67 90 l 67 226 q 126 369 67 317 q 294 422 185 422 l 565 422 l 565 525 q 522 646 565 606 q 364 686 478 686 l 132 686 l 132 735 q 392 753 267 753 q 585 698 524 753 q 646 529 646 643 l 646 0 q 576 -54 600 -24 q 551 -118 551 -85 q 583 -189 551 -164 q 676 -214 615 -214 l 685 -214 m 565 379 l 307 369 q 186 328 225 367 q 147 225 147 289 l 147 190 q 189 88 147 119 q 288 56 231 56 q 392 72 331 56 q 501 105 453 88 q 565 128 550 122 l 565 379 z "},"å":{"ha":754,"x_min":67,"x_max":646,"o":"m 254 -8 q 119 41 171 -8 q 67 176 67 90 l 67 226 q 126 369 67 317 q 294 422 185 422 l 565 422 l 565 525 q 522 646 565 606 q 364 686 478 686 l 132 686 l 132 735 q 392 753 267 753 q 585 698 524 753 q 646 529 646 643 l 646 0 l 585 0 l 568 86 q 504 56 558 79 q 382 12 450 32 q 254 -8 314 -8 m 288 56 q 392 72 331 56 q 501 105 453 88 q 565 128 550 122 l 565 379 l 307 369 q 186 328 225 367 q 147 225 147 289 l 147 190 q 189 88 147 119 q 288 56 231 56 m 375 828 q 262 861 299 828 q 225 974 225 894 q 262 1087 225 1053 q 375 1121 299 1121 q 486 1088 450 1121 q 522 974 522 1054 q 486 861 522 894 q 375 828 450 828 m 375 865 q 456 888 432 865 q 481 974 481 911 q 456 1060 481 1036 q 375 1083 432 1083 q 292 1060 318 1083 q 267 974 267 1036 q 292 888 267 911 q 375 865 318 865 z "},"ǻ":{"ha":754,"x_min":67,"x_max":646,"o":"m 375 828 q 262 861 299 828 q 225 974 225 894 q 260 1084 225 1050 q 365 1121 294 1118 l 500 1286 l 572 1286 l 414 1118 q 495 1077 468 1111 q 522 974 522 1043 q 486 861 522 894 q 375 828 450 828 m 375 1083 q 292 1060 318 1083 q 267 974 267 1036 q 292 888 267 911 q 375 865 318 865 q 456 888 432 865 q 481 974 481 911 q 456 1060 481 1036 q 375 1083 432 1083 m 392 753 q 585 698 524 753 q 646 529 646 643 l 646 0 l 585 0 l 568 86 q 504 56 558 79 q 382 12 450 32 q 254 -8 314 -8 q 119 41 171 -8 q 67 176 67 90 l 67 226 q 126 369 67 317 q 294 422 185 422 l 565 422 l 565 525 q 522 646 565 606 q 364 686 478 686 l 132 686 l 132 735 q 392 753 267 753 m 565 379 l 307 369 q 186 328 225 367 q 147 225 147 289 l 147 190 q 189 88 147 119 q 288 56 231 56 q 392 72 331 56 q 501 105 453 88 q 565 128 550 122 l 565 379 z "},"ã":{"ha":754,"x_min":67,"x_max":646,"o":"m 254 -8 q 119 41 171 -8 q 67 176 67 90 l 67 226 q 126 369 67 317 q 294 422 185 422 l 565 422 l 565 525 q 522 646 565 606 q 364 686 478 686 l 132 686 l 132 735 q 392 753 267 753 q 585 698 524 753 q 646 529 646 643 l 646 0 l 585 0 l 568 86 q 504 56 558 79 q 382 12 450 32 q 254 -8 314 -8 m 288 56 q 392 72 331 56 q 501 105 453 88 q 565 128 550 122 l 565 379 l 307 369 q 186 328 225 367 q 147 225 147 289 l 147 190 q 189 88 147 119 q 288 56 231 56 m 153 906 q 192 1011 154 978 q 282 1044 229 1044 q 340 1032 313 1044 q 403 996 367 1019 q 458 964 438 974 q 501 954 479 954 q 567 978 542 954 q 593 1047 593 1003 l 636 1047 q 600 944 635 982 q 504 907 565 907 q 450 919 476 907 q 389 954 424 931 q 332 987 356 976 q 285 997 308 997 q 221 974 246 997 q 196 906 196 951 l 153 906 z "},"æ":{"ha":1236,"x_min":68,"x_max":1147,"o":"m 257 -8 q 117 42 165 -8 q 68 182 68 92 l 68 224 q 126 363 68 313 q 290 413 185 413 l 567 413 l 567 526 q 375 686 567 686 l 133 686 l 133 735 q 244 749 189 744 q 388 753 300 753 q 531 718 471 753 q 615 614 592 683 q 703 718 640 688 q 864 749 765 749 q 1080 695 1013 749 q 1147 507 1147 642 q 1097 388 1147 421 q 940 354 1046 354 l 646 354 q 710 119 644 183 q 896 56 775 56 l 1129 56 l 1129 7 q 868 -8 1015 -8 q 698 35 758 -8 q 601 150 638 79 q 449 37 539 82 q 257 -8 358 -8 m 939 411 q 1040 430 1007 411 q 1074 508 1074 449 q 1026 644 1074 604 q 860 685 979 685 q 729 663 774 685 q 666 583 685 640 q 646 411 647 525 l 939 411 m 283 56 q 442 92 363 56 q 585 196 522 129 q 565 364 567 275 l 301 360 q 185 322 222 358 q 149 224 149 285 l 149 192 q 186 88 149 119 q 283 56 224 56 z "},"ǽ":{"ha":1236,"x_min":68,"x_max":1147,"o":"m 257 -8 q 117 42 165 -8 q 68 182 68 92 l 68 224 q 126 363 68 313 q 290 413 185 413 l 567 413 l 567 526 q 375 686 567 686 l 133 686 l 133 735 q 244 749 189 744 q 388 753 300 753 q 531 718 471 753 q 615 614 592 683 q 703 718 640 688 q 864 749 765 749 q 1080 695 1013 749 q 1147 507 1147 642 q 1097 388 1147 421 q 940 354 1046 354 l 646 354 q 710 119 644 183 q 896 56 775 56 l 1129 56 l 1129 7 q 868 -8 1015 -8 q 698 35 758 -8 q 601 150 638 79 q 449 37 539 82 q 257 -8 358 -8 m 939 411 q 1040 430 1007 411 q 1074 508 1074 449 q 1026 644 1074 604 q 860 685 979 685 q 729 663 774 685 q 666 583 685 640 q 646 411 647 525 l 939 411 m 283 56 q 442 92 363 56 q 585 196 522 129 q 565 364 567 275 l 301 360 q 185 322 222 358 q 149 224 149 285 l 149 192 q 186 88 149 119 q 283 56 224 56 m 726 1064 l 799 1064 l 621 876 l 574 876 l 726 1064 z "},"b":{"ha":800,"x_min":114,"x_max":714,"o":"m 450 -8 q 313 17 379 -8 q 194 76 246 42 l 176 0 l 114 0 l 114 1060 l 194 1060 l 194 668 q 322 726 253 703 q 447 749 392 749 q 649 660 583 749 q 714 365 714 572 q 651 90 714 188 q 450 -8 588 -8 m 429 60 q 582 138 531 60 q 633 368 633 217 q 608 562 633 493 q 539 656 583 631 q 429 682 494 682 q 313 665 365 682 q 194 613 261 649 l 194 128 q 309 78 254 96 q 429 60 364 60 z "},"ḃ":{"ha":800,"x_min":114,"x_max":714,"o":"m 450 -8 q 313 17 379 -8 q 194 76 246 42 l 176 0 l 114 0 l 114 1060 l 194 1060 l 194 668 q 322 726 253 703 q 447 749 392 749 q 649 660 583 749 q 714 365 714 572 q 651 90 714 188 q 450 -8 588 -8 m 429 60 q 582 138 531 60 q 633 368 633 217 q 608 562 633 493 q 539 656 583 631 q 429 682 494 682 q 313 665 365 682 q 194 613 261 649 l 194 128 q 309 78 254 96 q 429 60 364 60 m 135 1201 q 119 1207 125 1201 q 114 1221 114 1213 l 114 1321 q 135 1342 114 1342 l 171 1342 q 192 1321 192 1342 l 192 1221 q 171 1201 192 1201 l 135 1201 z "},"c":{"ha":681,"x_min":86,"x_max":631,"o":"m 378 -8 q 162 74 238 -8 q 86 369 86 156 q 122 601 86 518 q 220 715 157 683 q 379 747 283 747 q 619 732 514 747 l 619 683 l 397 683 q 269 658 318 683 q 193 563 219 632 q 167 365 167 493 q 194 176 167 244 q 272 83 222 108 q 397 57 322 57 l 631 57 l 631 8 q 378 -8 503 -8 z "},"ć":{"ha":681,"x_min":86,"x_max":631,"o":"m 378 -8 q 162 74 238 -8 q 86 369 86 156 q 122 601 86 518 q 220 715 157 683 q 379 747 283 747 q 619 732 514 747 l 619 683 l 397 683 q 269 658 318 683 q 193 563 219 632 q 167 365 167 493 q 194 176 167 244 q 272 83 222 108 q 397 57 322 57 l 631 57 l 631 8 q 378 -8 503 -8 m 488 1064 l 560 1064 l 382 876 l 335 876 l 488 1064 z "},"č":{"ha":681,"x_min":86,"x_max":631,"o":"m 378 -8 q 162 74 238 -8 q 86 369 86 156 q 122 601 86 518 q 220 715 157 683 q 379 747 283 747 q 619 732 514 747 l 619 683 l 397 683 q 269 658 318 683 q 193 563 219 632 q 167 365 167 493 q 194 176 167 244 q 272 83 222 108 q 397 57 322 57 l 631 57 l 631 8 q 378 -8 503 -8 m 186 1061 l 238 1061 l 375 917 l 526 1061 l 578 1061 l 403 876 l 344 876 l 186 1061 z "},"ç":{"ha":681,"x_min":86,"x_max":631,"o":"m 631 8 q 392 -8 524 -7 l 344 -78 q 424 -101 399 -79 q 449 -165 449 -124 q 415 -235 449 -210 q 319 -260 381 -260 l 281 -260 l 281 -226 l 314 -224 q 376 -204 356 -221 q 397 -156 397 -187 q 375 -111 397 -128 q 296 -93 353 -94 l 351 -8 q 156 82 225 -1 q 86 369 86 165 q 122 601 86 518 q 220 715 157 683 q 379 747 283 747 q 619 732 514 747 l 619 683 l 397 683 q 269 658 318 683 q 193 563 219 632 q 167 365 167 493 q 194 176 167 244 q 272 83 222 108 q 397 57 322 57 l 631 57 l 631 8 z "},"ḉ":{"ha":681,"x_min":86,"x_max":631,"o":"m 382 876 l 335 876 l 488 1064 l 560 1064 l 382 876 m 631 8 q 392 -8 524 -7 l 344 -78 q 424 -101 399 -79 q 449 -165 449 -124 q 415 -235 449 -210 q 319 -260 381 -260 l 281 -260 l 281 -226 l 314 -224 q 376 -204 356 -221 q 397 -156 397 -187 q 375 -111 397 -128 q 296 -93 353 -94 l 351 -8 q 156 82 225 -1 q 86 369 86 165 q 122 601 86 518 q 220 715 157 683 q 379 747 283 747 q 619 732 514 747 l 619 683 l 397 683 q 269 658 318 683 q 193 563 219 632 q 167 365 167 493 q 194 176 167 244 q 272 83 222 108 q 397 57 322 57 l 631 57 l 631 8 z "},"ĉ":{"ha":681,"x_min":86,"x_max":631,"o":"m 378 -8 q 162 74 238 -8 q 86 369 86 156 q 122 601 86 518 q 220 715 157 683 q 379 747 283 747 q 619 732 514 747 l 619 683 l 397 683 q 269 658 318 683 q 193 563 219 632 q 167 365 167 493 q 194 176 167 244 q 272 83 222 108 q 397 57 322 57 l 631 57 l 631 8 q 378 -8 503 -8 m 350 1061 l 408 1061 l 567 876 l 515 876 l 378 1021 l 226 876 l 175 876 l 350 1061 z "},"ċ":{"ha":681,"x_min":86,"x_max":631,"o":"m 378 -8 q 162 74 238 -8 q 86 369 86 156 q 122 601 86 518 q 220 715 157 683 q 379 747 283 747 q 619 732 514 747 l 619 683 l 397 683 q 269 658 318 683 q 193 563 219 632 q 167 365 167 493 q 194 176 167 244 q 272 83 222 108 q 397 57 322 57 l 631 57 l 631 8 q 378 -8 503 -8 m 356 924 q 340 929 346 924 q 335 943 335 935 l 335 1043 q 356 1064 335 1064 l 392 1064 q 413 1043 413 1064 l 413 943 q 392 924 413 924 l 356 924 z "},"d":{"ha":794,"x_min":86,"x_max":686,"o":"m 353 -8 q 151 83 215 -8 q 86 365 86 174 q 115 588 86 504 q 204 710 143 671 q 367 749 265 749 q 606 703 476 749 l 606 1060 l 686 1060 l 686 0 l 622 0 l 606 76 q 494 20 574 49 q 353 -8 415 -8 m 372 60 q 491 78 436 60 q 606 128 546 97 l 606 646 q 484 676 526 668 q 385 685 442 685 q 258 656 306 685 q 189 558 211 626 q 167 368 167 489 q 215 132 167 204 q 372 60 263 60 z "},"ð":{"ha":801,"x_min":86,"x_max":717,"o":"m 715 371 l 715 369 l 715 369 q 681 135 715 218 q 578 22 646 53 q 400 -8 511 -8 q 223 22 290 -8 q 121 135 156 53 q 86 368 86 217 q 122 601 86 519 q 222 713 157 683 q 392 743 288 743 q 531 723 475 743 q 619 653 586 703 q 488 907 585 819 l 267 821 l 254 854 l 456 933 q 214 1013 368 997 l 214 1067 q 522 960 410 1049 l 704 1031 l 717 997 l 551 932 q 715 372 715 771 l 715 371 m 400 60 q 533 81 483 60 q 608 169 582 103 q 635 368 635 236 q 608 567 635 500 q 533 655 582 633 q 400 676 483 676 q 267 655 315 676 q 192 567 218 633 q 167 368 167 500 q 192 169 167 236 q 267 81 218 103 q 400 60 315 60 z "},"ď":{"ha":794,"x_min":86,"x_max":861,"o":"m 353 -8 q 151 83 215 -8 q 86 365 86 174 q 115 588 86 504 q 204 710 143 671 q 367 749 265 749 q 606 703 476 749 l 606 1060 l 686 1060 l 686 0 l 622 0 l 606 76 q 494 20 574 49 q 353 -8 415 -8 m 372 60 q 491 78 436 60 q 606 128 546 97 l 606 646 q 484 676 526 668 q 385 685 442 685 q 258 656 306 685 q 189 558 211 626 q 167 368 167 489 q 215 132 167 204 q 372 60 263 60 m 786 1006 l 786 1088 l 861 1088 l 861 1006 l 854 808 l 793 808 l 786 1006 z "},"đ":{"ha":794,"x_min":86,"x_max":786,"o":"m 786 879 l 686 879 l 686 0 l 622 0 l 606 76 q 494 20 574 49 q 353 -8 415 -8 q 151 83 215 -8 q 86 365 86 174 q 115 588 86 504 q 204 710 143 671 q 367 749 265 749 q 606 703 476 749 l 606 879 l 403 879 l 403 918 l 606 918 l 606 1060 l 686 1060 l 686 918 l 786 918 l 786 879 m 606 646 q 484 676 526 668 q 385 685 442 685 q 258 656 306 685 q 189 558 211 626 q 167 368 167 489 q 215 132 167 204 q 372 60 263 60 q 491 78 436 60 q 606 128 546 97 l 606 646 z "},"ḋ":{"ha":794,"x_min":86,"x_max":686,"o":"m 353 -8 q 151 83 215 -8 q 86 365 86 174 q 115 588 86 504 q 204 710 143 671 q 367 749 265 749 q 606 703 476 749 l 606 1060 l 686 1060 l 686 0 l 622 0 l 606 76 q 494 20 574 49 q 353 -8 415 -8 m 372 60 q 491 78 436 60 q 606 128 546 97 l 606 646 q 484 676 526 668 q 385 685 442 685 q 258 656 306 685 q 189 558 211 626 q 167 368 167 489 q 215 132 167 204 q 372 60 263 60 m 626 1201 q 611 1207 617 1201 q 606 1221 606 1213 l 606 1321 q 626 1342 606 1342 l 663 1342 q 683 1321 683 1342 l 683 1221 q 663 1201 683 1201 l 626 1201 z "},"ḍ":{"ha":794,"x_min":86,"x_max":686,"o":"m 353 -8 q 151 83 215 -8 q 86 365 86 174 q 115 588 86 504 q 204 710 143 671 q 367 749 265 749 q 606 703 476 749 l 606 1060 l 686 1060 l 686 0 l 622 0 l 606 76 q 494 20 574 49 q 353 -8 415 -8 m 372 60 q 491 78 436 60 q 606 128 546 97 l 606 646 q 484 676 526 668 q 385 685 442 685 q 258 656 306 685 q 189 558 211 626 q 167 368 167 489 q 215 132 167 204 q 372 60 263 60 m 378 -285 q 363 -279 368 -285 q 357 -265 357 -274 l 357 -165 q 378 -144 357 -144 l 414 -144 q 435 -165 435 -144 l 435 -265 q 414 -285 435 -285 l 378 -285 z "},"ḏ":{"ha":794,"x_min":86,"x_max":686,"o":"m 353 -8 q 151 83 215 -8 q 86 365 86 174 q 115 588 86 504 q 204 710 143 671 q 367 749 265 749 q 606 703 476 749 l 606 1060 l 686 1060 l 686 0 l 622 0 l 606 76 q 494 20 574 49 q 353 -8 415 -8 m 372 60 q 491 78 436 60 q 606 128 546 97 l 606 646 q 484 676 526 668 q 385 685 442 685 q 258 656 306 685 q 189 558 211 626 q 167 368 167 489 q 215 132 167 204 q 372 60 263 60 m 213 -203 l 574 -203 l 574 -251 l 213 -251 l 213 -203 z "},"e":{"ha":753,"x_min":86,"x_max":667,"o":"m 388 -8 q 206 27 271 -8 q 114 144 142 63 q 86 372 86 226 q 115 601 86 519 q 210 715 144 682 q 392 749 276 749 q 549 726 489 749 q 638 651 608 704 q 667 507 667 599 q 615 376 667 417 q 464 335 563 335 l 167 335 q 188 169 168 228 q 258 83 207 110 q 406 56 308 56 l 650 56 l 650 7 q 388 -8 513 -8 m 458 392 q 561 417 529 392 q 593 507 593 442 q 574 615 593 576 q 511 670 554 654 q 392 686 468 686 q 253 660 301 686 q 185 572 206 635 q 165 392 165 510 l 458 392 z "},"é":{"ha":753,"x_min":86,"x_max":667,"o":"m 388 -8 q 206 27 271 -8 q 114 144 142 63 q 86 372 86 226 q 115 601 86 519 q 210 715 144 682 q 392 749 276 749 q 549 726 489 749 q 638 651 608 704 q 667 507 667 599 q 615 376 667 417 q 464 335 563 335 l 167 335 q 188 169 168 228 q 258 83 207 110 q 406 56 308 56 l 650 56 l 650 7 q 388 -8 513 -8 m 458 392 q 561 417 529 392 q 593 507 593 442 q 574 615 593 576 q 511 670 554 654 q 392 686 468 686 q 253 660 301 686 q 185 572 206 635 q 165 392 165 510 l 458 392 m 488 1064 l 560 1064 l 382 876 l 335 876 l 488 1064 z "},"ĕ":{"ha":753,"x_min":86,"x_max":667,"o":"m 388 -8 q 206 27 271 -8 q 114 144 142 63 q 86 372 86 226 q 115 601 86 519 q 210 715 144 682 q 392 749 276 749 q 549 726 489 749 q 638 651 608 704 q 667 507 667 599 q 615 376 667 417 q 464 335 563 335 l 167 335 q 188 169 168 228 q 258 83 207 110 q 406 56 308 56 l 650 56 l 650 7 q 388 -8 513 -8 m 458 392 q 561 417 529 392 q 593 507 593 442 q 574 615 593 576 q 511 670 554 654 q 392 686 468 686 q 253 660 301 686 q 185 572 206 635 q 165 392 165 510 l 458 392 m 365 875 q 238 921 288 875 q 188 1068 188 967 l 228 1068 q 265 953 228 990 q 361 915 303 915 q 506 1068 506 915 l 546 1068 q 495 919 546 964 q 365 875 444 875 z "},"ě":{"ha":753,"x_min":86,"x_max":667,"o":"m 388 -8 q 206 27 271 -8 q 114 144 142 63 q 86 372 86 226 q 115 601 86 519 q 210 715 144 682 q 392 749 276 749 q 549 726 489 749 q 638 651 608 704 q 667 507 667 599 q 615 376 667 417 q 464 335 563 335 l 167 335 q 188 169 168 228 q 258 83 207 110 q 406 56 308 56 l 650 56 l 650 7 q 388 -8 513 -8 m 458 392 q 561 417 529 392 q 593 507 593 442 q 574 615 593 576 q 511 670 554 654 q 392 686 468 686 q 253 660 301 686 q 185 572 206 635 q 165 392 165 510 l 458 392 m 186 1061 l 238 1061 l 375 917 l 526 1061 l 578 1061 l 403 876 l 344 876 l 186 1061 z "},"ḝ":{"ha":753,"x_min":86,"x_max":667,"o":"m 365 875 q 238 921 288 875 q 188 1068 188 967 l 228 1068 q 265 953 228 990 q 361 915 303 915 q 506 1068 506 915 l 546 1068 q 495 919 546 964 q 365 875 444 875 m 167 335 q 188 169 168 228 q 258 83 207 110 q 406 56 308 56 l 650 56 l 650 7 q 392 -8 515 -8 l 344 -78 q 424 -101 399 -79 q 449 -165 449 -124 q 415 -235 449 -210 q 319 -260 381 -260 l 281 -260 l 281 -226 l 314 -224 q 376 -204 356 -221 q 397 -156 397 -187 q 375 -111 397 -128 q 296 -93 353 -94 l 353 -7 q 194 36 251 -1 q 111 153 136 74 q 86 372 86 233 q 115 601 86 519 q 210 715 144 682 q 392 749 276 749 q 549 726 489 749 q 638 651 608 704 q 667 507 667 599 q 615 376 667 417 q 464 335 563 335 l 167 335 m 458 392 q 561 417 529 392 q 593 507 593 442 q 574 615 593 576 q 511 670 554 654 q 392 686 468 686 q 253 660 301 686 q 185 572 206 635 q 165 392 165 510 l 458 392 z "},"ê":{"ha":753,"x_min":86,"x_max":667,"o":"m 388 -8 q 206 27 271 -8 q 114 144 142 63 q 86 372 86 226 q 115 601 86 519 q 210 715 144 682 q 392 749 276 749 q 549 726 489 749 q 638 651 608 704 q 667 507 667 599 q 615 376 667 417 q 464 335 563 335 l 167 335 q 188 169 168 228 q 258 83 207 110 q 406 56 308 56 l 650 56 l 650 7 q 388 -8 513 -8 m 458 392 q 561 417 529 392 q 593 507 593 442 q 574 615 593 576 q 511 670 554 654 q 392 686 468 686 q 253 660 301 686 q 185 572 206 635 q 165 392 165 510 l 458 392 m 350 1061 l 408 1061 l 567 876 l 515 876 l 378 1021 l 226 876 l 175 876 l 350 1061 z "},"ế":{"ha":753,"x_min":86,"x_max":699,"o":"m 388 -8 q 206 27 271 -8 q 114 144 142 63 q 86 372 86 226 q 115 601 86 519 q 210 715 144 682 q 392 749 276 749 q 549 726 489 749 q 638 651 608 704 q 667 507 667 599 q 615 376 667 417 q 464 335 563 335 l 167 335 q 188 169 168 228 q 258 83 207 110 q 406 56 308 56 l 650 56 l 650 7 q 388 -8 513 -8 m 458 392 q 561 417 529 392 q 593 507 593 442 q 574 615 593 576 q 511 670 554 654 q 392 686 468 686 q 253 660 301 686 q 185 572 206 635 q 165 392 165 510 l 458 392 m 699 1161 l 535 979 l 488 979 l 626 1161 l 699 1161 m 407 1008 l 567 876 l 515 876 l 378 968 l 225 876 l 175 876 l 349 1008 l 407 1008 z "},"ệ":{"ha":753,"x_min":86,"x_max":667,"o":"m 388 -8 q 206 27 271 -8 q 114 144 142 63 q 86 372 86 226 q 115 601 86 519 q 210 715 144 682 q 392 749 276 749 q 549 726 489 749 q 638 651 608 704 q 667 507 667 599 q 615 376 667 417 q 464 335 563 335 l 167 335 q 188 169 168 228 q 258 83 207 110 q 406 56 308 56 l 650 56 l 650 7 q 388 -8 513 -8 m 458 392 q 561 417 529 392 q 593 507 593 442 q 574 615 593 576 q 511 670 554 654 q 392 686 468 686 q 253 660 301 686 q 185 572 206 635 q 165 392 165 510 l 458 392 m 350 1061 l 408 1061 l 567 876 l 515 876 l 378 1021 l 226 876 l 175 876 l 350 1061 m 353 -285 q 338 -279 343 -285 q 332 -265 332 -274 l 332 -165 q 353 -144 332 -144 l 389 -144 q 410 -165 410 -144 l 410 -265 q 389 -285 410 -285 l 353 -285 z "},"ề":{"ha":753,"x_min":51,"x_max":667,"o":"m 388 -8 q 206 27 271 -8 q 114 144 142 63 q 86 372 86 226 q 115 601 86 519 q 210 715 144 682 q 392 749 276 749 q 549 726 489 749 q 638 651 608 704 q 667 507 667 599 q 615 376 667 417 q 464 335 563 335 l 167 335 q 188 169 168 228 q 258 83 207 110 q 406 56 308 56 l 650 56 l 650 7 q 388 -8 513 -8 m 458 392 q 561 417 529 392 q 593 507 593 442 q 574 615 593 576 q 511 670 554 654 q 392 686 468 686 q 253 660 301 686 q 185 572 206 635 q 165 392 165 510 l 458 392 m 122 1161 l 263 979 l 215 979 l 51 1161 l 122 1161 m 407 1008 l 567 876 l 515 876 l 378 968 l 225 876 l 175 876 l 349 1008 l 407 1008 z "},"ể":{"ha":753,"x_min":86,"x_max":667,"o":"m 388 -8 q 206 27 271 -8 q 114 144 142 63 q 86 372 86 226 q 115 601 86 519 q 210 715 144 682 q 392 749 276 749 q 549 726 489 749 q 638 651 608 704 q 667 507 667 599 q 615 376 667 417 q 464 335 563 335 l 167 335 q 188 169 168 228 q 258 83 207 110 q 406 56 308 56 l 650 56 l 650 7 q 388 -8 513 -8 m 458 392 q 561 417 529 392 q 593 507 593 442 q 574 615 593 576 q 511 670 554 654 q 392 686 468 686 q 253 660 301 686 q 185 572 206 635 q 165 392 165 510 l 458 392 m 518 986 q 577 1018 558 997 q 596 1063 596 1039 q 581 1105 596 1090 q 531 1119 565 1119 q 481 1111 506 1119 l 481 1144 q 540 1154 508 1154 q 615 1131 590 1154 q 639 1065 639 1107 q 609 995 639 1026 q 518 947 579 964 l 518 986 m 349 1008 l 407 1008 l 567 876 l 515 876 l 378 968 l 225 876 l 175 876 l 349 1008 z "},"ễ":{"ha":753,"x_min":86,"x_max":667,"o":"m 388 -8 q 206 27 271 -8 q 114 144 142 63 q 86 372 86 226 q 115 601 86 519 q 210 715 144 682 q 392 749 276 749 q 549 726 489 749 q 638 651 608 704 q 667 507 667 599 q 615 376 667 417 q 464 335 563 335 l 167 335 q 188 169 168 228 q 258 83 207 110 q 406 56 308 56 l 650 56 l 650 7 q 388 -8 513 -8 m 458 392 q 561 417 529 392 q 593 507 593 442 q 574 615 593 576 q 511 670 554 654 q 392 686 468 686 q 253 660 301 686 q 185 572 206 635 q 165 392 165 510 l 458 392 m 264 1182 q 317 1173 292 1182 q 375 1149 343 1164 q 431 1125 411 1132 q 474 1118 450 1118 q 531 1135 508 1118 q 553 1185 553 1153 l 596 1185 q 564 1103 593 1132 q 481 1075 535 1075 q 433 1083 456 1075 q 372 1107 410 1090 q 268 1139 308 1139 q 215 1123 236 1139 q 194 1075 194 1107 l 151 1075 q 185 1158 153 1133 q 264 1182 217 1182 m 567 876 l 515 876 l 378 968 l 225 876 l 175 876 l 349 1008 l 407 1008 l 567 876 z "},"ȅ":{"ha":753,"x_min":86,"x_max":667,"o":"m 388 -8 q 206 27 271 -8 q 114 144 142 63 q 86 372 86 226 q 115 601 86 519 q 210 715 144 682 q 392 749 276 749 q 549 726 489 749 q 638 651 608 704 q 667 507 667 599 q 615 376 667 417 q 464 335 563 335 l 167 335 q 188 169 168 228 q 258 83 207 110 q 406 56 308 56 l 650 56 l 650 7 q 388 -8 513 -8 m 458 392 q 561 417 529 392 q 593 507 593 442 q 574 615 593 576 q 511 670 554 654 q 392 686 468 686 q 253 660 301 686 q 185 572 206 635 q 165 392 165 510 l 458 392 m 108 1064 l 179 1064 l 333 876 l 286 876 l 108 1064 m 297 1064 l 368 1064 l 522 876 l 475 876 l 297 1064 z "},"ë":{"ha":753,"x_min":86,"x_max":667,"o":"m 388 -8 q 206 27 271 -8 q 114 144 142 63 q 86 372 86 226 q 115 601 86 519 q 210 715 144 682 q 392 749 276 749 q 549 726 489 749 q 638 651 608 704 q 667 507 667 599 q 615 376 667 417 q 464 335 563 335 l 167 335 q 188 169 168 228 q 258 83 207 110 q 406 56 308 56 l 650 56 l 650 7 q 388 -8 513 -8 m 458 392 q 561 417 529 392 q 593 507 593 442 q 574 615 593 576 q 511 670 554 654 q 392 686 468 686 q 253 660 301 686 q 185 572 206 635 q 165 392 165 510 l 458 392 m 221 914 q 206 919 211 914 q 200 933 200 925 l 200 1033 q 221 1054 200 1054 l 257 1054 q 278 1033 278 1054 l 278 933 q 257 914 278 914 l 221 914 m 490 914 q 476 919 482 914 q 471 933 471 925 l 471 1033 q 490 1054 471 1054 l 528 1054 q 547 1033 547 1054 l 547 933 q 542 919 547 924 q 528 914 536 914 l 490 914 z "},"ė":{"ha":753,"x_min":86,"x_max":667,"o":"m 388 -8 q 206 27 271 -8 q 114 144 142 63 q 86 372 86 226 q 115 601 86 519 q 210 715 144 682 q 392 749 276 749 q 549 726 489 749 q 638 651 608 704 q 667 507 667 599 q 615 376 667 417 q 464 335 563 335 l 167 335 q 188 169 168 228 q 258 83 207 110 q 406 56 308 56 l 650 56 l 650 7 q 388 -8 513 -8 m 458 392 q 561 417 529 392 q 593 507 593 442 q 574 615 593 576 q 511 670 554 654 q 392 686 468 686 q 253 660 301 686 q 185 572 206 635 q 165 392 165 510 l 458 392 m 356 924 q 340 929 346 924 q 335 943 335 935 l 335 1043 q 356 1064 335 1064 l 392 1064 q 413 1043 413 1064 l 413 943 q 392 924 413 924 l 356 924 z "},"ẹ":{"ha":753,"x_min":86,"x_max":667,"o":"m 388 -8 q 206 27 271 -8 q 114 144 142 63 q 86 372 86 226 q 115 601 86 519 q 210 715 144 682 q 392 749 276 749 q 549 726 489 749 q 638 651 608 704 q 667 507 667 599 q 615 376 667 417 q 464 335 563 335 l 167 335 q 188 169 168 228 q 258 83 207 110 q 406 56 308 56 l 650 56 l 650 7 q 388 -8 513 -8 m 458 392 q 561 417 529 392 q 593 507 593 442 q 574 615 593 576 q 511 670 554 654 q 392 686 468 686 q 253 660 301 686 q 185 572 206 635 q 165 392 165 510 l 458 392 m 353 -285 q 338 -279 343 -285 q 332 -265 332 -274 l 332 -165 q 353 -144 332 -144 l 389 -144 q 410 -165 410 -144 l 410 -265 q 389 -285 410 -285 l 353 -285 z "},"è":{"ha":753,"x_min":86,"x_max":667,"o":"m 388 -8 q 206 27 271 -8 q 114 144 142 63 q 86 372 86 226 q 115 601 86 519 q 210 715 144 682 q 392 749 276 749 q 549 726 489 749 q 638 651 608 704 q 667 507 667 599 q 615 376 667 417 q 464 335 563 335 l 167 335 q 188 169 168 228 q 258 83 207 110 q 406 56 308 56 l 650 56 l 650 7 q 388 -8 513 -8 m 458 392 q 561 417 529 392 q 593 507 593 442 q 574 615 593 576 q 511 670 554 654 q 392 686 468 686 q 253 660 301 686 q 185 572 206 635 q 165 392 165 510 l 458 392 m 199 1064 l 269 1064 l 424 876 l 376 876 l 199 1064 z "},"ẻ":{"ha":753,"x_min":86,"x_max":667,"o":"m 388 -8 q 206 27 271 -8 q 114 144 142 63 q 86 372 86 226 q 115 601 86 519 q 210 715 144 682 q 392 749 276 749 q 549 726 489 749 q 638 651 608 704 q 667 507 667 599 q 615 376 667 417 q 464 335 563 335 l 167 335 q 188 169 168 228 q 258 83 207 110 q 406 56 308 56 l 650 56 l 650 7 q 388 -8 513 -8 m 458 392 q 561 417 529 392 q 593 507 593 442 q 574 615 593 576 q 511 670 554 654 q 392 686 468 686 q 253 660 301 686 q 185 572 206 635 q 165 392 165 510 l 458 392 m 353 881 q 419 918 399 894 q 439 969 439 942 q 365 1039 439 1039 q 315 1031 340 1039 l 315 1067 q 375 1076 343 1076 q 457 1048 429 1076 q 485 971 485 1019 q 452 894 485 928 q 353 842 419 860 l 353 881 z "},"ȇ":{"ha":753,"x_min":86,"x_max":667,"o":"m 388 -8 q 206 27 271 -8 q 114 144 142 63 q 86 372 86 226 q 115 601 86 519 q 210 715 144 682 q 392 749 276 749 q 549 726 489 749 q 638 651 608 704 q 667 507 667 599 q 615 376 667 417 q 464 335 563 335 l 167 335 q 188 169 168 228 q 258 83 207 110 q 406 56 308 56 l 650 56 l 650 7 q 388 -8 513 -8 m 458 392 q 561 417 529 392 q 593 507 593 442 q 574 615 593 576 q 511 670 554 654 q 392 686 468 686 q 253 660 301 686 q 185 572 206 635 q 165 392 165 510 l 458 392 m 371 1069 q 499 1024 449 1069 q 549 876 549 978 l 508 876 q 471 992 508 954 q 375 1029 433 1029 q 231 876 231 1029 l 190 876 q 241 1025 190 981 q 371 1069 292 1069 z "},"ē":{"ha":753,"x_min":86,"x_max":667,"o":"m 388 -8 q 206 27 271 -8 q 114 144 142 63 q 86 372 86 226 q 115 601 86 519 q 210 715 144 682 q 392 749 276 749 q 549 726 489 749 q 638 651 608 704 q 667 507 667 599 q 615 376 667 417 q 464 335 563 335 l 167 335 q 188 169 168 228 q 258 83 207 110 q 406 56 308 56 l 650 56 l 650 7 q 388 -8 513 -8 m 458 392 q 561 417 529 392 q 593 507 593 442 q 574 615 593 576 q 511 670 554 654 q 392 686 468 686 q 253 660 301 686 q 185 572 206 635 q 165 392 165 510 l 458 392 m 192 992 l 553 992 l 553 943 l 192 943 l 192 992 z "},"ḗ":{"ha":753,"x_min":86,"x_max":667,"o":"m 388 -8 q 206 27 271 -8 q 114 144 142 63 q 86 372 86 226 q 115 601 86 519 q 210 715 144 682 q 392 749 276 749 q 549 726 489 749 q 638 651 608 704 q 667 507 667 599 q 615 376 667 417 q 464 335 563 335 l 167 335 q 188 169 168 228 q 258 83 207 110 q 406 56 308 56 l 650 56 l 650 7 q 388 -8 513 -8 m 458 392 q 561 417 529 392 q 593 507 593 442 q 574 615 593 576 q 511 670 554 654 q 392 686 468 686 q 253 660 301 686 q 185 572 206 635 q 165 392 165 510 l 458 392 m 192 992 l 553 992 l 553 943 l 192 943 l 192 992 m 485 1236 l 557 1236 l 379 1049 l 332 1049 l 485 1236 z "},"ḕ":{"ha":753,"x_min":86,"x_max":667,"o":"m 388 -8 q 206 27 271 -8 q 114 144 142 63 q 86 372 86 226 q 115 601 86 519 q 210 715 144 682 q 392 749 276 749 q 549 726 489 749 q 638 651 608 704 q 667 507 667 599 q 615 376 667 417 q 464 335 563 335 l 167 335 q 188 169 168 228 q 258 83 207 110 q 406 56 308 56 l 650 56 l 650 7 q 388 -8 513 -8 m 458 392 q 561 417 529 392 q 593 507 593 442 q 574 615 593 576 q 511 670 554 654 q 392 686 468 686 q 253 660 301 686 q 185 572 206 635 q 165 392 165 510 l 458 392 m 192 992 l 553 992 l 553 943 l 192 943 l 192 992 m 190 1236 l 261 1236 l 415 1049 l 368 1049 l 190 1236 z "},"ę":{"ha":753,"x_min":86,"x_max":690,"o":"m 690 -182 l 690 -222 q 657 -225 668 -225 q 550 -191 590 -225 q 510 -103 510 -157 q 563 -1 510 -46 q 388 -8 475 -8 q 206 27 271 -8 q 114 144 142 63 q 86 372 86 226 q 115 601 86 519 q 210 715 144 682 q 392 749 276 749 q 549 726 489 749 q 638 651 608 704 q 667 507 667 599 q 615 376 667 417 q 464 335 563 335 l 167 335 q 188 169 168 228 q 258 83 207 110 q 406 56 308 56 l 650 56 l 650 32 l 651 32 q 651 32 651 32 q 650 31 650 32 l 650 7 l 606 3 q 557 -86 557 -37 q 589 -157 557 -132 q 682 -182 621 -182 l 690 -182 m 458 392 q 561 417 529 392 q 593 507 593 442 q 574 615 593 576 q 511 670 554 654 q 392 686 468 686 q 253 660 301 686 q 185 572 206 635 q 165 392 165 510 l 458 392 z "},"ẽ":{"ha":753,"x_min":86,"x_max":667,"o":"m 388 -8 q 206 27 271 -8 q 114 144 142 63 q 86 372 86 226 q 115 601 86 519 q 210 715 144 682 q 392 749 276 749 q 549 726 489 749 q 638 651 608 704 q 667 507 667 599 q 615 376 667 417 q 464 335 563 335 l 167 335 q 188 169 168 228 q 258 83 207 110 q 406 56 308 56 l 650 56 l 650 7 q 388 -8 513 -8 m 458 392 q 561 417 529 392 q 593 507 593 442 q 574 615 593 576 q 511 670 554 654 q 392 686 468 686 q 253 660 301 686 q 185 572 206 635 q 165 392 165 510 l 458 392 m 153 906 q 192 1011 154 978 q 282 1044 229 1044 q 340 1032 313 1044 q 403 996 367 1019 q 458 964 438 974 q 501 954 479 954 q 567 978 542 954 q 593 1047 593 1003 l 636 1047 q 600 944 635 982 q 504 907 565 907 q 450 919 476 907 q 389 954 424 931 q 332 987 356 976 q 285 997 308 997 q 221 974 246 997 q 196 906 196 951 l 153 906 z "},"ə":{"ha":753,"x_min":86,"x_max":667,"o":"m 365 749 q 547 713 482 749 q 639 596 611 678 q 667 368 667 514 q 638 140 667 221 q 542 25 608 58 q 361 -8 476 -8 q 204 14 264 -8 q 115 89 144 36 q 86 233 86 142 q 138 365 86 324 q 289 406 190 406 l 586 406 q 565 572 585 513 q 495 658 546 631 q 347 685 444 685 l 103 685 l 103 733 q 365 749 240 749 m 294 349 q 192 324 224 349 q 160 233 160 299 q 179 125 160 164 q 242 70 199 86 q 361 54 285 54 q 499 80 451 54 q 567 168 547 106 q 588 349 588 231 l 294 349 z "},"f":{"ha":500,"x_min":35,"x_max":492,"o":"m 151 672 l 35 672 l 35 725 l 151 740 l 151 836 q 195 1011 151 954 q 353 1068 239 1068 q 492 1057 419 1068 l 492 1000 l 365 1000 q 259 963 286 1000 q 232 839 232 925 l 232 740 l 474 740 l 474 672 l 232 672 l 232 0 l 151 0 l 151 672 z "},"ḟ":{"ha":500,"x_min":35,"x_max":492,"o":"m 151 672 l 35 672 l 35 725 l 151 740 l 151 836 q 195 1011 151 954 q 353 1068 239 1068 q 492 1057 419 1068 l 492 1000 l 365 1000 q 259 963 286 1000 q 232 839 232 925 l 232 740 l 474 740 l 474 672 l 232 672 l 232 0 l 151 0 l 151 672 m 336 1210 q 321 1215 326 1210 q 315 1229 315 1221 l 315 1329 q 336 1350 315 1350 l 372 1350 q 393 1329 393 1350 l 393 1229 q 372 1210 393 1210 l 336 1210 z "},"g":{"ha":797,"x_min":47,"x_max":764,"o":"m 764 694 l 581 683 q 632 646 610 665 q 671 586 654 626 q 688 482 688 546 q 626 322 688 388 q 428 257 565 257 l 314 257 q 209 238 244 257 q 174 171 174 218 q 198 119 174 136 q 256 103 222 103 l 514 103 q 703 53 642 103 q 764 -94 764 4 l 764 -128 q 694 -284 764 -229 q 494 -339 625 -339 l 292 -339 q 113 -292 179 -339 q 47 -154 47 -244 l 47 -118 q 82 -10 47 -54 q 174 56 117 33 q 120 98 139 71 q 101 161 101 125 q 228 289 101 264 q 122 376 153 318 q 90 504 90 433 q 369 742 90 742 l 764 742 l 764 694 m 613 490 q 433 678 613 678 l 354 678 q 214 636 263 678 q 165 501 165 594 q 335 322 165 322 l 419 322 q 613 490 613 322 m 300 39 q 175 2 226 39 q 124 -107 124 -35 l 124 -142 q 172 -246 124 -214 q 308 -278 219 -278 l 488 -278 q 636 -241 583 -278 q 689 -132 689 -204 l 689 -100 q 647 3 689 -32 q 504 39 606 39 l 300 39 z "},"ğ":{"ha":797,"x_min":47,"x_max":764,"o":"m 764 694 l 581 683 q 632 646 610 665 q 671 586 654 626 q 688 482 688 546 q 626 322 688 388 q 428 257 565 257 l 314 257 q 209 238 244 257 q 174 171 174 218 q 198 119 174 136 q 256 103 222 103 l 514 103 q 703 53 642 103 q 764 -94 764 4 l 764 -128 q 694 -284 764 -229 q 494 -339 625 -339 l 292 -339 q 113 -292 179 -339 q 47 -154 47 -244 l 47 -118 q 82 -10 47 -54 q 174 56 117 33 q 120 98 139 71 q 101 161 101 125 q 228 289 101 264 q 122 376 153 318 q 90 504 90 433 q 369 742 90 742 l 764 742 l 764 694 m 613 490 q 433 678 613 678 l 354 678 q 214 636 263 678 q 165 501 165 594 q 335 322 165 322 l 419 322 q 613 490 613 322 m 300 39 q 175 2 226 39 q 124 -107 124 -35 l 124 -142 q 172 -246 124 -214 q 308 -278 219 -278 l 488 -278 q 636 -241 583 -278 q 689 -132 689 -204 l 689 -100 q 647 3 689 -32 q 504 39 606 39 l 300 39 m 392 875 q 264 921 314 875 q 214 1068 214 967 l 254 1068 q 292 953 254 990 q 388 915 329 915 q 532 1068 532 915 l 572 1068 q 522 919 572 964 q 392 875 471 875 z "},"ǧ":{"ha":797,"x_min":47,"x_max":764,"o":"m 764 694 l 581 683 q 632 646 610 665 q 671 586 654 626 q 688 482 688 546 q 626 322 688 388 q 428 257 565 257 l 314 257 q 209 238 244 257 q 174 171 174 218 q 198 119 174 136 q 256 103 222 103 l 514 103 q 703 53 642 103 q 764 -94 764 4 l 764 -128 q 694 -284 764 -229 q 494 -339 625 -339 l 292 -339 q 113 -292 179 -339 q 47 -154 47 -244 l 47 -118 q 82 -10 47 -54 q 174 56 117 33 q 120 98 139 71 q 101 161 101 125 q 228 289 101 264 q 122 376 153 318 q 90 504 90 433 q 369 742 90 742 l 764 742 l 764 694 m 613 490 q 433 678 613 678 l 354 678 q 214 636 263 678 q 165 501 165 594 q 335 322 165 322 l 419 322 q 613 490 613 322 m 300 39 q 175 2 226 39 q 124 -107 124 -35 l 124 -142 q 172 -246 124 -214 q 308 -278 219 -278 l 488 -278 q 636 -241 583 -278 q 689 -132 689 -204 l 689 -100 q 647 3 689 -32 q 504 39 606 39 l 300 39 m 213 1061 l 264 1061 l 401 917 l 553 1061 l 604 1061 l 429 876 l 371 876 l 213 1061 z "},"ĝ":{"ha":797,"x_min":47,"x_max":764,"o":"m 764 694 l 581 683 q 632 646 610 665 q 671 586 654 626 q 688 482 688 546 q 626 322 688 388 q 428 257 565 257 l 314 257 q 209 238 244 257 q 174 171 174 218 q 198 119 174 136 q 256 103 222 103 l 514 103 q 703 53 642 103 q 764 -94 764 4 l 764 -128 q 694 -284 764 -229 q 494 -339 625 -339 l 292 -339 q 113 -292 179 -339 q 47 -154 47 -244 l 47 -118 q 82 -10 47 -54 q 174 56 117 33 q 120 98 139 71 q 101 161 101 125 q 228 289 101 264 q 122 376 153 318 q 90 504 90 433 q 369 742 90 742 l 764 742 l 764 694 m 613 490 q 433 678 613 678 l 354 678 q 214 636 263 678 q 165 501 165 594 q 335 322 165 322 l 419 322 q 613 490 613 322 m 300 39 q 175 2 226 39 q 124 -107 124 -35 l 124 -142 q 172 -246 124 -214 q 308 -278 219 -278 l 488 -278 q 636 -241 583 -278 q 689 -132 689 -204 l 689 -100 q 647 3 689 -32 q 504 39 606 39 l 300 39 m 376 1061 l 435 1061 l 593 876 l 542 876 l 404 1021 l 253 876 l 201 876 l 376 1061 z "},"ģ":{"ha":797,"x_min":47,"x_max":764,"o":"m 764 694 l 581 683 q 632 646 610 665 q 671 586 654 626 q 688 482 688 546 q 626 322 688 388 q 428 257 565 257 l 314 257 q 209 238 244 257 q 174 171 174 218 q 198 119 174 136 q 256 103 222 103 l 514 103 q 703 53 642 103 q 764 -94 764 4 l 764 -128 q 694 -284 764 -229 q 494 -339 625 -339 l 292 -339 q 113 -292 179 -339 q 47 -154 47 -244 l 47 -118 q 82 -10 47 -54 q 174 56 117 33 q 120 98 139 71 q 101 161 101 125 q 228 289 101 264 q 122 376 153 318 q 90 504 90 433 q 369 742 90 742 l 764 742 l 764 694 m 613 490 q 433 678 613 678 l 354 678 q 214 636 263 678 q 165 501 165 594 q 335 322 165 322 l 419 322 q 613 490 613 322 m 300 39 q 175 2 226 39 q 124 -107 124 -35 l 124 -142 q 172 -246 124 -214 q 308 -278 219 -278 l 488 -278 q 636 -241 583 -278 q 689 -132 689 -204 l 689 -100 q 647 3 689 -32 q 504 39 606 39 l 300 39 m 333 850 q 346 964 333 924 q 390 1023 358 1004 q 483 1042 422 1042 l 531 1042 l 531 1008 l 488 1003 q 427 988 449 999 q 395 944 406 976 q 385 850 385 913 l 333 850 z "},"ġ":{"ha":797,"x_min":47,"x_max":764,"o":"m 764 694 l 581 683 q 632 646 610 665 q 671 586 654 626 q 688 482 688 546 q 626 322 688 388 q 428 257 565 257 l 314 257 q 209 238 244 257 q 174 171 174 218 q 198 119 174 136 q 256 103 222 103 l 514 103 q 703 53 642 103 q 764 -94 764 4 l 764 -128 q 694 -284 764 -229 q 494 -339 625 -339 l 292 -339 q 113 -292 179 -339 q 47 -154 47 -244 l 47 -118 q 82 -10 47 -54 q 174 56 117 33 q 120 98 139 71 q 101 161 101 125 q 228 289 101 264 q 122 376 153 318 q 90 504 90 433 q 369 742 90 742 l 764 742 l 764 694 m 613 490 q 433 678 613 678 l 354 678 q 214 636 263 678 q 165 501 165 594 q 335 322 165 322 l 419 322 q 613 490 613 322 m 300 39 q 175 2 226 39 q 124 -107 124 -35 l 124 -142 q 172 -246 124 -214 q 308 -278 219 -278 l 488 -278 q 636 -241 583 -278 q 689 -132 689 -204 l 689 -100 q 647 3 689 -32 q 504 39 606 39 l 300 39 m 382 924 q 367 929 372 924 q 361 943 361 935 l 361 1043 q 382 1064 361 1064 l 418 1064 q 439 1043 439 1064 l 439 943 q 418 924 439 924 l 382 924 z "},"ḡ":{"ha":797,"x_min":47,"x_max":764,"o":"m 764 694 l 581 683 q 632 646 610 665 q 671 586 654 626 q 688 482 688 546 q 626 322 688 388 q 428 257 565 257 l 314 257 q 209 238 244 257 q 174 171 174 218 q 198 119 174 136 q 256 103 222 103 l 514 103 q 703 53 642 103 q 764 -94 764 4 l 764 -128 q 694 -284 764 -229 q 494 -339 625 -339 l 292 -339 q 113 -292 179 -339 q 47 -154 47 -244 l 47 -118 q 82 -10 47 -54 q 174 56 117 33 q 120 98 139 71 q 101 161 101 125 q 228 289 101 264 q 122 376 153 318 q 90 504 90 433 q 369 742 90 742 l 764 742 l 764 694 m 613 490 q 433 678 613 678 l 354 678 q 214 636 263 678 q 165 501 165 594 q 335 322 165 322 l 419 322 q 613 490 613 322 m 300 39 q 175 2 226 39 q 124 -107 124 -35 l 124 -142 q 172 -246 124 -214 q 308 -278 219 -278 l 488 -278 q 636 -241 583 -278 q 689 -132 689 -204 l 689 -100 q 647 3 689 -32 q 504 39 606 39 l 300 39 m 218 992 l 579 992 l 579 943 l 218 943 l 218 992 z "},"h":{"ha":814,"x_min":114,"x_max":706,"o":"m 114 1060 l 194 1060 l 194 657 q 328 726 254 699 q 476 753 403 753 q 646 683 586 753 q 706 508 706 614 l 706 0 l 625 0 l 625 501 q 578 628 625 578 q 454 679 532 679 q 324 660 381 679 q 194 601 268 642 l 194 0 l 114 0 l 114 1060 z "},"ħ":{"ha":814,"x_min":8,"x_max":706,"o":"m 476 753 q 646 683 586 753 q 706 508 706 614 l 706 0 l 625 0 l 625 501 q 578 628 625 578 q 454 679 532 679 q 324 660 381 679 q 194 601 268 642 l 194 0 l 114 0 l 114 879 l 8 879 l 8 918 l 114 918 l 114 1060 l 194 1060 l 194 918 l 392 918 l 392 879 l 194 879 l 194 657 q 328 726 254 699 q 476 753 403 753 z "},"ḫ":{"ha":814,"x_min":114,"x_max":706,"o":"m 114 1060 l 194 1060 l 194 657 q 328 726 254 699 q 476 753 403 753 q 646 683 586 753 q 706 508 706 614 l 706 0 l 625 0 l 625 501 q 578 628 625 578 q 454 679 532 679 q 324 660 381 679 q 194 601 268 642 l 194 0 l 114 0 l 114 1060 m 401 -306 q 274 -260 324 -306 q 224 -112 224 -214 l 264 -112 q 301 -228 264 -190 q 397 -265 339 -265 q 542 -112 542 -265 l 582 -112 q 531 -261 582 -217 q 401 -306 481 -306 z "},"ĥ":{"ha":814,"x_min":32,"x_max":706,"o":"m 114 1060 l 194 1060 l 194 657 q 328 726 254 699 q 476 753 403 753 q 646 683 586 753 q 706 508 706 614 l 706 0 l 625 0 l 625 501 q 578 628 625 578 q 454 679 532 679 q 324 660 381 679 q 194 601 268 642 l 194 0 l 114 0 l 114 1060 m 207 1306 l 265 1306 l 424 1121 l 372 1121 l 235 1265 l 83 1121 l 32 1121 l 207 1306 z "},"ḥ":{"ha":814,"x_min":114,"x_max":706,"o":"m 114 1060 l 194 1060 l 194 657 q 328 726 254 699 q 476 753 403 753 q 646 683 586 753 q 706 508 706 614 l 706 0 l 625 0 l 625 501 q 578 628 625 578 q 454 679 532 679 q 324 660 381 679 q 194 601 268 642 l 194 0 l 114 0 l 114 1060 m 386 -285 q 371 -279 376 -285 q 365 -265 365 -274 l 365 -165 q 386 -144 365 -144 l 422 -144 q 443 -165 443 -144 l 443 -265 q 422 -285 443 -285 l 386 -285 z "},"i":{"ha":307,"x_min":107,"x_max":200,"o":"m 128 879 q 113 885 118 879 q 107 900 107 890 l 107 999 q 128 1019 107 1019 l 182 1019 q 200 999 200 1019 l 200 900 q 182 879 200 879 l 128 879 m 114 740 l 194 740 l 194 0 l 114 0 l 114 740 z "},"ı":{"ha":303,"x_min":114,"x_max":194,"o":"m 114 740 l 194 740 l 194 0 l 114 0 l 114 740 z "},"í":{"ha":303,"x_min":114,"x_max":339,"o":"m 114 740 l 194 740 l 194 0 l 114 0 l 114 740 m 267 1064 l 339 1064 l 161 876 l 114 876 l 267 1064 z "},"ĭ":{"ha":303,"x_min":-33,"x_max":325,"o":"m 114 740 l 194 740 l 194 0 l 114 0 l 114 740 m 144 875 q 17 921 67 875 q -33 1068 -33 967 l 7 1068 q 44 953 7 990 q 140 915 82 915 q 285 1068 285 915 l 325 1068 q 274 919 325 964 q 144 875 224 875 z "},"î":{"ha":303,"x_min":-46,"x_max":346,"o":"m 114 740 l 194 740 l 194 0 l 114 0 l 114 740 m 129 1061 l 188 1061 l 346 876 l 294 876 l 157 1021 l 6 876 l -46 876 l 129 1061 z "},"ȉ":{"ha":303,"x_min":-112,"x_max":301,"o":"m 114 740 l 194 740 l 194 0 l 114 0 l 114 740 m -112 1064 l -42 1064 l 113 876 l 65 876 l -112 1064 m 76 1064 l 147 1064 l 301 876 l 254 876 l 76 1064 z "},"ï":{"ha":303,"x_min":-21,"x_max":326,"o":"m 114 740 l 194 740 l 194 0 l 114 0 l 114 740 m 0 914 q -15 919 -10 914 q -21 933 -21 925 l -21 1033 q 0 1054 -21 1054 l 36 1054 q 57 1033 57 1054 l 57 933 q 36 914 57 914 l 0 914 m 269 914 q 256 919 261 914 q 250 933 250 925 l 250 1033 q 269 1054 250 1054 l 307 1054 q 326 1033 326 1054 l 326 933 q 321 919 326 924 q 307 914 315 914 l 269 914 z "},"ḯ":{"ha":303,"x_min":-21,"x_max":336,"o":"m 114 740 l 194 740 l 194 0 l 114 0 l 114 740 m 0 914 q -15 919 -10 914 q -21 933 -21 925 l -21 1033 q 0 1054 -21 1054 l 36 1054 q 57 1033 57 1054 l 57 933 q 36 914 57 914 l 0 914 m 269 914 q 256 919 261 914 q 250 933 250 925 l 250 1033 q 269 1054 250 1054 l 307 1054 q 326 1033 326 1054 l 326 933 q 321 919 326 924 q 307 914 315 914 l 269 914 m 264 1286 l 336 1286 l 158 1099 l 111 1099 l 264 1286 z "},"ị":{"ha":307,"x_min":107,"x_max":200,"o":"m 128 879 q 113 885 118 879 q 107 900 107 890 l 107 999 q 128 1019 107 1019 l 182 1019 q 200 999 200 1019 l 200 900 q 182 879 200 879 l 128 879 m 114 740 l 194 740 l 194 0 l 114 0 l 114 740 m 132 -285 q 117 -279 122 -285 q 111 -265 111 -274 l 111 -165 q 132 -144 111 -144 l 168 -144 q 189 -165 189 -144 l 189 -265 q 168 -285 189 -285 l 132 -285 z "},"ì":{"ha":303,"x_min":-22,"x_max":203,"o":"m 114 740 l 194 740 l 194 0 l 114 0 l 114 740 m -22 1064 l 49 1064 l 203 876 l 156 876 l -22 1064 z "},"ỉ":{"ha":303,"x_min":94,"x_max":264,"o":"m 114 740 l 194 740 l 194 0 l 114 0 l 114 740 m 132 881 q 198 918 178 894 q 218 969 218 942 q 144 1039 218 1039 q 94 1031 119 1039 l 94 1067 q 154 1076 122 1076 q 236 1048 208 1076 q 264 971 264 1019 q 231 894 264 928 q 132 842 199 860 l 132 881 z "},"ȋ":{"ha":303,"x_min":-31,"x_max":328,"o":"m 114 740 l 194 740 l 194 0 l 114 0 l 114 740 m 150 1069 q 278 1024 228 1069 q 328 876 328 978 l 288 876 q 250 992 288 954 q 154 1029 213 1029 q 10 876 10 1029 l -31 876 q 20 1025 -31 981 q 150 1069 71 1069 z "},"ī":{"ha":303,"x_min":-29,"x_max":332,"o":"m 114 740 l 194 740 l 194 0 l 114 0 l 114 740 m -29 992 l 332 992 l 332 943 l -29 943 l -29 992 z "},"į":{"ha":307,"x_min":53,"x_max":233,"o":"m 128 879 q 113 885 118 879 q 107 900 107 890 l 107 999 q 128 1019 107 1019 l 182 1019 q 200 999 200 1019 l 200 900 q 182 879 200 879 l 128 879 m 114 740 l 194 740 l 194 0 l 114 0 l 114 740 m 200 -257 q 93 -223 133 -257 q 53 -135 53 -189 q 80 -60 53 -94 q 161 0 107 -25 l 194 0 q 124 -54 149 -24 q 100 -118 100 -85 q 132 -189 100 -164 q 225 -214 164 -214 l 233 -214 l 233 -254 q 200 -257 211 -257 z "},"ĩ":{"ha":303,"x_min":-69,"x_max":414,"o":"m 114 740 l 194 740 l 194 0 l 114 0 l 114 740 m -69 906 q -31 1011 -68 978 q 60 1044 7 1044 q 117 1032 90 1044 q 181 996 144 1019 q 236 964 215 974 q 279 954 257 954 q 345 978 319 954 q 371 1047 371 1003 l 414 1047 q 378 944 413 982 q 282 907 343 907 q 228 919 254 907 q 167 954 201 931 q 110 987 133 976 q 63 997 86 997 q -1 974 24 997 q -26 906 -26 951 l -69 906 z "},"j":{"ha":307,"x_min":107,"x_max":200,"o":"m 126 879 q 113 885 118 879 q 107 900 107 890 l 107 999 q 126 1019 107 1019 l 182 1019 q 200 999 200 1019 l 200 900 q 182 879 200 879 l 126 879 m 114 740 l 194 740 l 194 29 q 172 -329 194 -157 l 114 -329 l 114 740 z "},"ȷ":{"ha":307,"x_min":114,"x_max":194,"o":"m 114 740 l 194 740 l 194 29 q 172 -329 194 -157 l 114 -329 l 114 740 z "},"ĵ":{"ha":307,"x_min":-46,"x_max":346,"o":"m 114 740 l 194 740 l 194 29 q 172 -329 194 -157 l 114 -329 l 114 740 m 129 1061 l 188 1061 l 346 876 l 294 876 l 157 1021 l 6 876 l -46 876 l 129 1061 z "},"k":{"ha":683,"x_min":114,"x_max":654,"o":"m 114 1060 l 194 1060 l 194 433 l 306 433 l 551 740 l 639 740 l 364 396 l 654 0 l 565 0 l 301 361 l 194 361 l 194 0 l 114 0 l 114 1060 z "},"ķ":{"ha":683,"x_min":114,"x_max":654,"o":"m 114 1060 l 194 1060 l 194 433 l 306 433 l 551 740 l 639 740 l 364 396 l 654 0 l 565 0 l 301 361 l 194 361 l 194 0 l 114 0 l 114 1060 m 233 -242 l 276 -236 q 336 -221 315 -232 q 368 -178 357 -210 q 378 -83 379 -146 l 429 -83 q 417 -197 429 -156 q 372 -256 404 -237 q 281 -275 340 -275 l 233 -275 l 233 -242 z "},"ĸ":{"ha":683,"x_min":114,"x_max":654,"o":"m 114 751 l 194 751 l 194 431 l 304 431 l 550 740 l 639 740 l 364 393 l 654 0 l 565 0 l 301 357 l 194 357 l 194 0 l 114 0 l 114 751 z "},"l":{"ha":400,"x_min":114,"x_max":386,"o":"m 296 -1 q 159 52 204 -1 q 114 236 114 106 l 114 1060 l 194 1060 l 194 244 q 207 138 194 175 q 243 85 219 100 q 306 65 267 69 l 386 56 l 386 -1 l 296 -1 z "},"ĺ":{"ha":400,"x_min":114,"x_max":386,"o":"m 296 -1 q 159 52 204 -1 q 114 236 114 106 l 114 1060 l 194 1060 l 194 244 q 207 138 194 175 q 243 85 219 100 q 306 65 267 69 l 386 56 l 386 -1 l 296 -1 m 267 1397 l 339 1397 l 161 1210 l 114 1210 l 267 1397 z "},"ľ":{"ha":400,"x_min":114,"x_max":386,"o":"m 296 -1 q 159 52 204 -1 q 114 236 114 106 l 114 1060 l 194 1060 l 194 244 q 207 138 194 175 q 243 85 219 100 q 306 65 267 69 l 386 56 l 386 -1 l 296 -1 m 294 1006 l 294 1088 l 369 1088 l 369 1006 l 363 808 l 301 808 l 294 1006 z "},"ļ":{"ha":400,"x_min":108,"x_max":386,"o":"m 296 -1 q 159 52 204 -1 q 114 236 114 106 l 114 1060 l 194 1060 l 194 244 q 207 138 194 175 q 243 85 219 100 q 306 65 267 69 l 386 56 l 386 -1 l 296 -1 m 108 -242 l 151 -236 q 211 -221 190 -232 q 243 -178 232 -210 q 253 -83 254 -146 l 304 -83 q 292 -197 304 -156 q 247 -256 279 -237 q 156 -275 215 -275 l 108 -275 l 108 -242 z "},"ŀ":{"ha":424,"x_min":114,"x_max":408,"o":"m 296 -1 q 159 52 204 -1 q 114 236 114 106 l 114 1060 l 194 1060 l 194 244 q 207 138 194 175 q 243 85 219 100 q 306 65 267 69 l 386 56 l 386 -1 l 296 -1 m 344 483 q 331 489 336 483 q 325 503 325 494 l 325 549 q 344 569 325 569 l 388 569 q 408 549 408 569 l 408 503 q 388 483 408 483 l 344 483 z "},"ḷ":{"ha":400,"x_min":114,"x_max":386,"o":"m 296 -1 q 159 52 204 -1 q 114 236 114 106 l 114 1060 l 194 1060 l 194 244 q 207 138 194 175 q 243 85 219 100 q 306 65 267 69 l 386 56 l 386 -1 l 296 -1 m 200 -285 q 185 -279 190 -285 q 179 -265 179 -274 l 179 -165 q 200 -144 179 -144 l 236 -144 q 257 -165 257 -144 l 257 -265 q 236 -285 257 -285 l 200 -285 z "},"ḻ":{"ha":400,"x_min":35,"x_max":396,"o":"m 296 -1 q 159 52 204 -1 q 114 236 114 106 l 114 1060 l 194 1060 l 194 244 q 207 138 194 175 q 243 85 219 100 q 306 65 267 69 l 386 56 l 386 -1 l 296 -1 m 35 -203 l 396 -203 l 396 -251 l 35 -251 l 35 -203 z "},"ł":{"ha":400,"x_min":8,"x_max":386,"o":"m 386 56 l 386 -1 l 296 -1 q 159 52 204 -1 q 114 236 114 106 l 114 540 l 8 503 l 8 554 l 114 592 l 114 1060 l 194 1060 l 194 618 l 342 668 l 342 617 l 194 567 l 194 244 q 207 138 194 175 q 243 85 219 100 q 306 65 267 69 l 386 56 z "},"m":{"ha":1325,"x_min":114,"x_max":1217,"o":"m 114 740 l 174 740 l 194 657 q 481 753 338 753 q 597 722 547 753 q 675 640 647 692 q 821 718 732 683 q 985 753 910 753 q 1157 683 1097 753 q 1217 506 1217 613 l 1217 0 l 1136 0 l 1136 500 q 1090 628 1136 578 q 964 679 1043 679 q 826 655 899 679 q 688 590 754 631 q 706 500 706 546 l 706 0 l 625 0 l 625 500 q 578 628 625 578 q 454 679 532 679 q 324 660 381 679 q 194 601 268 642 l 194 0 l 114 0 l 114 740 z "},"ṁ":{"ha":1325,"x_min":114,"x_max":1217,"o":"m 114 740 l 174 740 l 194 657 q 481 753 338 753 q 597 722 547 753 q 675 640 647 692 q 821 718 732 683 q 985 753 910 753 q 1157 683 1097 753 q 1217 506 1217 613 l 1217 0 l 1136 0 l 1136 500 q 1090 628 1136 578 q 964 679 1043 679 q 826 655 899 679 q 688 590 754 631 q 706 500 706 546 l 706 0 l 625 0 l 625 500 q 578 628 625 578 q 454 679 532 679 q 324 660 381 679 q 194 601 268 642 l 194 0 l 114 0 l 114 740 m 647 924 q 632 929 638 924 q 626 943 626 935 l 626 1043 q 647 1064 626 1064 l 683 1064 q 704 1043 704 1064 l 704 943 q 683 924 704 924 l 647 924 z "},"ṃ":{"ha":1325,"x_min":114,"x_max":1217,"o":"m 114 740 l 174 740 l 194 657 q 481 753 338 753 q 597 722 547 753 q 675 640 647 692 q 821 718 732 683 q 985 753 910 753 q 1157 683 1097 753 q 1217 506 1217 613 l 1217 0 l 1136 0 l 1136 500 q 1090 628 1136 578 q 964 679 1043 679 q 826 655 899 679 q 688 590 754 631 q 706 500 706 546 l 706 0 l 625 0 l 625 500 q 578 628 625 578 q 454 679 532 679 q 324 660 381 679 q 194 601 268 642 l 194 0 l 114 0 l 114 740 m 639 -285 q 624 -279 629 -285 q 618 -265 618 -274 l 618 -165 q 639 -144 618 -144 l 675 -144 q 696 -165 696 -144 l 696 -265 q 675 -285 696 -285 l 639 -285 z "},"n":{"ha":814,"x_min":114,"x_max":706,"o":"m 114 740 l 174 740 l 194 657 q 329 726 256 699 q 476 753 403 753 q 647 682 588 753 q 706 508 706 611 l 706 0 l 625 0 l 625 500 q 578 628 625 578 q 454 679 532 679 q 324 660 381 679 q 194 601 268 642 l 194 0 l 114 0 l 114 740 z "},"ń":{"ha":814,"x_min":114,"x_max":706,"o":"m 114 740 l 174 740 l 194 657 q 329 726 256 699 q 476 753 403 753 q 647 682 588 753 q 706 508 706 611 l 706 0 l 625 0 l 625 500 q 578 628 625 578 q 454 679 532 679 q 324 660 381 679 q 194 601 268 642 l 194 0 l 114 0 l 114 740 m 518 1064 l 590 1064 l 413 876 l 365 876 l 518 1064 z "},"ň":{"ha":814,"x_min":114,"x_max":706,"o":"m 114 740 l 174 740 l 194 657 q 329 726 256 699 q 476 753 403 753 q 647 682 588 753 q 706 508 706 611 l 706 0 l 625 0 l 625 500 q 578 628 625 578 q 454 679 532 679 q 324 660 381 679 q 194 601 268 642 l 194 0 l 114 0 l 114 740 m 217 1061 l 268 1061 l 406 917 l 557 1061 l 608 1061 l 433 876 l 375 876 l 217 1061 z "},"ņ":{"ha":814,"x_min":114,"x_max":706,"o":"m 114 740 l 174 740 l 194 657 q 329 726 256 699 q 476 753 403 753 q 647 682 588 753 q 706 508 706 611 l 706 0 l 625 0 l 625 500 q 578 628 625 578 q 454 679 532 679 q 324 660 381 679 q 194 601 268 642 l 194 0 l 114 0 l 114 740 m 292 -242 l 335 -236 q 394 -221 374 -232 q 426 -178 415 -210 q 436 -83 438 -146 l 488 -83 q 475 -197 488 -156 q 431 -256 463 -237 q 339 -275 399 -275 l 292 -275 l 292 -242 z "},"ṅ":{"ha":814,"x_min":114,"x_max":706,"o":"m 114 740 l 174 740 l 194 657 q 329 726 256 699 q 476 753 403 753 q 647 682 588 753 q 706 508 706 611 l 706 0 l 625 0 l 625 500 q 578 628 625 578 q 454 679 532 679 q 324 660 381 679 q 194 601 268 642 l 194 0 l 114 0 l 114 740 m 383 -285 q 368 -279 374 -285 q 363 -265 363 -274 l 363 -165 q 383 -144 363 -144 l 419 -144 q 440 -165 440 -144 l 440 -265 q 419 -285 440 -285 l 383 -285 z "},"ṇ":{"ha":814,"x_min":114,"x_max":706,"o":"m 114 740 l 174 740 l 194 657 q 329 726 256 699 q 476 753 403 753 q 647 682 588 753 q 706 508 706 611 l 706 0 l 625 0 l 625 500 q 578 628 625 578 q 454 679 532 679 q 324 660 381 679 q 194 601 268 642 l 194 0 l 114 0 l 114 740 m 383 -285 q 368 -279 374 -285 q 363 -265 363 -274 l 363 -165 q 383 -144 363 -144 l 419 -144 q 440 -165 440 -144 l 440 -265 q 419 -285 440 -285 l 383 -285 z "},"ŋ":{"ha":814,"x_min":114,"x_max":706,"o":"m 476 753 q 647 682 588 753 q 706 508 706 611 l 706 0 q 519 -329 701 -231 l 451 -329 q 581 -190 536 -269 q 625 8 625 -110 l 625 500 q 578 628 625 578 q 454 679 532 679 q 324 660 381 679 q 194 601 268 642 l 194 0 l 114 0 l 114 740 l 174 740 l 194 657 q 329 726 256 699 q 476 753 403 753 z "},"ṉ":{"ha":814,"x_min":114,"x_max":706,"o":"m 114 740 l 174 740 l 194 657 q 329 726 256 699 q 476 753 403 753 q 647 682 588 753 q 706 508 706 611 l 706 0 l 625 0 l 625 500 q 578 628 625 578 q 454 679 532 679 q 324 660 381 679 q 194 601 268 642 l 194 0 l 114 0 l 114 740 m 218 -203 l 579 -203 l 579 -251 l 218 -251 l 218 -203 z "},"ñ":{"ha":814,"x_min":114,"x_max":706,"o":"m 114 740 l 174 740 l 194 657 q 329 726 256 699 q 476 753 403 753 q 647 682 588 753 q 706 508 706 611 l 706 0 l 625 0 l 625 500 q 578 628 625 578 q 454 679 532 679 q 324 660 381 679 q 194 601 268 642 l 194 0 l 114 0 l 114 740 m 183 906 q 222 1011 185 978 q 313 1044 260 1044 q 370 1032 343 1044 q 433 996 397 1019 q 489 964 468 974 q 532 954 510 954 q 598 978 572 954 q 624 1047 624 1003 l 667 1047 q 631 944 665 982 q 535 907 596 907 q 481 919 507 907 q 419 954 454 931 q 363 987 386 976 q 315 997 339 997 q 251 974 276 997 q 226 906 226 951 l 183 906 z "},"o":{"ha":801,"x_min":86,"x_max":715,"o":"m 400 -8 q 223 23 290 -8 q 121 137 156 54 q 86 371 86 219 q 121 607 86 525 q 222 719 156 689 q 400 749 289 749 q 578 718 511 749 q 681 606 646 688 q 715 371 715 524 q 681 136 715 218 q 578 23 646 54 q 400 -8 511 -8 m 400 60 q 533 82 483 60 q 608 171 582 104 q 635 371 635 238 q 608 572 635 504 q 533 660 582 639 q 400 682 483 682 q 267 660 315 682 q 192 572 218 639 q 167 371 167 504 q 192 171 167 238 q 267 82 218 104 q 400 60 315 60 z "},"ó":{"ha":801,"x_min":86,"x_max":715,"o":"m 400 -8 q 223 23 290 -8 q 121 137 156 54 q 86 371 86 219 q 121 607 86 525 q 222 719 156 689 q 400 749 289 749 q 578 718 511 749 q 681 606 646 688 q 715 371 715 524 q 681 136 715 218 q 578 23 646 54 q 400 -8 511 -8 m 400 60 q 533 82 483 60 q 608 171 582 104 q 635 371 635 238 q 608 572 635 504 q 533 660 582 639 q 400 682 483 682 q 267 660 315 682 q 192 572 218 639 q 167 371 167 504 q 192 171 167 238 q 267 82 218 104 q 400 60 315 60 m 513 1064 l 585 1064 l 407 876 l 360 876 l 513 1064 z "},"ŏ":{"ha":801,"x_min":86,"x_max":715,"o":"m 400 -8 q 223 23 290 -8 q 121 137 156 54 q 86 371 86 219 q 121 607 86 525 q 222 719 156 689 q 400 749 289 749 q 578 718 511 749 q 681 606 646 688 q 715 371 715 524 q 681 136 715 218 q 578 23 646 54 q 400 -8 511 -8 m 400 60 q 533 82 483 60 q 608 171 582 104 q 635 371 635 238 q 608 572 635 504 q 533 660 582 639 q 400 682 483 682 q 267 660 315 682 q 192 572 218 639 q 167 371 167 504 q 192 171 167 238 q 267 82 218 104 q 400 60 315 60 m 390 875 q 263 921 313 875 q 213 1068 213 967 l 253 1068 q 290 953 253 990 q 386 915 328 915 q 531 1068 531 915 l 571 1068 q 520 919 571 964 q 390 875 469 875 z "},"ô":{"ha":801,"x_min":86,"x_max":715,"o":"m 400 -8 q 223 23 290 -8 q 121 137 156 54 q 86 371 86 219 q 121 607 86 525 q 222 719 156 689 q 400 749 289 749 q 578 718 511 749 q 681 606 646 688 q 715 371 715 524 q 681 136 715 218 q 578 23 646 54 q 400 -8 511 -8 m 400 60 q 533 82 483 60 q 608 171 582 104 q 635 371 635 238 q 608 572 635 504 q 533 660 582 639 q 400 682 483 682 q 267 660 315 682 q 192 572 218 639 q 167 371 167 504 q 192 171 167 238 q 267 82 218 104 q 400 60 315 60 m 375 1061 l 433 1061 l 592 876 l 540 876 l 403 1021 l 251 876 l 200 876 l 375 1061 z "},"ố":{"ha":801,"x_min":86,"x_max":724,"o":"m 400 -8 q 223 23 290 -8 q 121 137 156 54 q 86 371 86 219 q 121 607 86 525 q 222 719 156 689 q 400 749 289 749 q 578 718 511 749 q 681 606 646 688 q 715 371 715 524 q 681 136 715 218 q 578 23 646 54 q 400 -8 511 -8 m 400 60 q 533 82 483 60 q 608 171 582 104 q 635 371 635 238 q 608 572 635 504 q 533 660 582 639 q 400 682 483 682 q 267 660 315 682 q 192 572 218 639 q 167 371 167 504 q 192 171 167 238 q 267 82 218 104 q 400 60 315 60 m 724 1161 l 560 979 l 513 979 l 651 1161 l 724 1161 m 432 1008 l 592 876 l 540 876 l 403 968 l 250 876 l 200 876 l 374 1008 l 432 1008 z "},"ộ":{"ha":801,"x_min":86,"x_max":715,"o":"m 400 -8 q 223 23 290 -8 q 121 137 156 54 q 86 371 86 219 q 121 607 86 525 q 222 719 156 689 q 400 749 289 749 q 578 718 511 749 q 681 606 646 688 q 715 371 715 524 q 681 136 715 218 q 578 23 646 54 q 400 -8 511 -8 m 400 60 q 533 82 483 60 q 608 171 582 104 q 635 371 635 238 q 608 572 635 504 q 533 660 582 639 q 400 682 483 682 q 267 660 315 682 q 192 572 218 639 q 167 371 167 504 q 192 171 167 238 q 267 82 218 104 q 400 60 315 60 m 375 1061 l 433 1061 l 592 876 l 540 876 l 403 1021 l 251 876 l 200 876 l 375 1061 m 378 -285 q 363 -279 368 -285 q 357 -265 357 -274 l 357 -165 q 378 -144 357 -144 l 414 -144 q 435 -165 435 -144 l 435 -265 q 414 -285 435 -285 l 378 -285 z "},"ồ":{"ha":801,"x_min":76,"x_max":715,"o":"m 400 -8 q 223 23 290 -8 q 121 137 156 54 q 86 371 86 219 q 121 607 86 525 q 222 719 156 689 q 400 749 289 749 q 578 718 511 749 q 681 606 646 688 q 715 371 715 524 q 681 136 715 218 q 578 23 646 54 q 400 -8 511 -8 m 400 60 q 533 82 483 60 q 608 171 582 104 q 635 371 635 238 q 608 572 635 504 q 533 660 582 639 q 400 682 483 682 q 267 660 315 682 q 192 572 218 639 q 167 371 167 504 q 192 171 167 238 q 267 82 218 104 q 400 60 315 60 m 147 1161 l 288 979 l 240 979 l 76 1161 l 147 1161 m 432 1008 l 592 876 l 540 876 l 403 968 l 250 876 l 200 876 l 374 1008 l 432 1008 z "},"ổ":{"ha":801,"x_min":86,"x_max":715,"o":"m 400 -8 q 223 23 290 -8 q 121 137 156 54 q 86 371 86 219 q 121 607 86 525 q 222 719 156 689 q 400 749 289 749 q 578 718 511 749 q 681 606 646 688 q 715 371 715 524 q 681 136 715 218 q 578 23 646 54 q 400 -8 511 -8 m 400 60 q 533 82 483 60 q 608 171 582 104 q 635 371 635 238 q 608 572 635 504 q 533 660 582 639 q 400 682 483 682 q 267 660 315 682 q 192 572 218 639 q 167 371 167 504 q 192 171 167 238 q 267 82 218 104 q 400 60 315 60 m 543 986 q 602 1018 583 997 q 621 1063 621 1039 q 606 1105 621 1090 q 556 1119 590 1119 q 506 1111 531 1119 l 506 1144 q 565 1154 533 1154 q 640 1131 615 1154 q 664 1065 664 1107 q 634 995 664 1026 q 543 947 604 964 l 543 986 m 374 1008 l 432 1008 l 592 876 l 540 876 l 403 968 l 250 876 l 200 876 l 374 1008 z "},"ỗ":{"ha":801,"x_min":86,"x_max":715,"o":"m 400 -8 q 223 23 290 -8 q 121 137 156 54 q 86 371 86 219 q 121 607 86 525 q 222 719 156 689 q 400 749 289 749 q 578 718 511 749 q 681 606 646 688 q 715 371 715 524 q 681 136 715 218 q 578 23 646 54 q 400 -8 511 -8 m 400 60 q 533 82 483 60 q 608 171 582 104 q 635 371 635 238 q 608 572 635 504 q 533 660 582 639 q 400 682 483 682 q 267 660 315 682 q 192 572 218 639 q 167 371 167 504 q 192 171 167 238 q 267 82 218 104 q 400 60 315 60 m 289 1182 q 342 1173 317 1182 q 400 1149 368 1164 q 456 1125 436 1132 q 499 1118 475 1118 q 556 1135 533 1118 q 578 1185 578 1153 l 621 1185 q 589 1103 618 1132 q 506 1075 560 1075 q 458 1083 481 1075 q 397 1107 435 1090 q 293 1139 333 1139 q 240 1123 261 1139 q 219 1075 219 1107 l 176 1075 q 210 1158 178 1133 q 289 1182 242 1182 m 592 876 l 540 876 l 403 968 l 250 876 l 200 876 l 374 1008 l 432 1008 l 592 876 z "},"ȍ":{"ha":801,"x_min":86,"x_max":715,"o":"m 400 -8 q 223 23 290 -8 q 121 137 156 54 q 86 371 86 219 q 121 607 86 525 q 222 719 156 689 q 400 749 289 749 q 578 718 511 749 q 681 606 646 688 q 715 371 715 524 q 681 136 715 218 q 578 23 646 54 q 400 -8 511 -8 m 400 60 q 533 82 483 60 q 608 171 582 104 q 635 371 635 238 q 608 572 635 504 q 533 660 582 639 q 400 682 483 682 q 267 660 315 682 q 192 572 218 639 q 167 371 167 504 q 192 171 167 238 q 267 82 218 104 q 400 60 315 60 m 133 1064 l 204 1064 l 358 876 l 311 876 l 133 1064 m 322 1064 l 393 1064 l 547 876 l 500 876 l 322 1064 z "},"ö":{"ha":801,"x_min":86,"x_max":715,"o":"m 400 -8 q 223 23 290 -8 q 121 137 156 54 q 86 371 86 219 q 121 607 86 525 q 222 719 156 689 q 400 749 289 749 q 578 718 511 749 q 681 606 646 688 q 715 371 715 524 q 681 136 715 218 q 578 23 646 54 q 400 -8 511 -8 m 400 60 q 533 82 483 60 q 608 171 582 104 q 635 371 635 238 q 608 572 635 504 q 533 660 582 639 q 400 682 483 682 q 267 660 315 682 q 192 572 218 639 q 167 371 167 504 q 192 171 167 238 q 267 82 218 104 q 400 60 315 60 m 246 914 q 231 919 236 914 q 225 933 225 925 l 225 1033 q 246 1054 225 1054 l 282 1054 q 303 1033 303 1054 l 303 933 q 282 914 303 914 l 246 914 m 515 914 q 501 919 507 914 q 496 933 496 925 l 496 1033 q 515 1054 496 1054 l 553 1054 q 572 1033 572 1054 l 572 933 q 567 919 572 924 q 553 914 561 914 l 515 914 z "},"ȫ":{"ha":801,"x_min":86,"x_max":715,"o":"m 400 -8 q 223 23 290 -8 q 121 137 156 54 q 86 371 86 219 q 121 607 86 525 q 222 719 156 689 q 400 749 289 749 q 578 718 511 749 q 681 606 646 688 q 715 371 715 524 q 681 136 715 218 q 578 23 646 54 q 400 -8 511 -8 m 400 60 q 533 82 483 60 q 608 171 582 104 q 635 371 635 238 q 608 572 635 504 q 533 660 582 639 q 400 682 483 682 q 267 660 315 682 q 192 572 218 639 q 167 371 167 504 q 192 171 167 238 q 267 82 218 104 q 400 60 315 60 m 246 914 q 231 919 236 914 q 225 933 225 925 l 225 1033 q 246 1054 225 1054 l 282 1054 q 303 1033 303 1054 l 303 933 q 282 914 303 914 l 246 914 m 515 914 q 501 919 507 914 q 496 933 496 925 l 496 1033 q 515 1054 496 1054 l 553 1054 q 572 1033 572 1054 l 572 933 q 567 919 572 924 q 553 914 561 914 l 515 914 m 217 1214 l 578 1214 l 578 1165 l 217 1165 l 217 1214 z "},"ȱ":{"ha":801,"x_min":86,"x_max":715,"o":"m 400 -8 q 223 23 290 -8 q 121 137 156 54 q 86 371 86 219 q 121 607 86 525 q 222 719 156 689 q 400 749 289 749 q 578 718 511 749 q 681 606 646 688 q 715 371 715 524 q 681 136 715 218 q 578 23 646 54 q 400 -8 511 -8 m 400 60 q 533 82 483 60 q 608 171 582 104 q 635 371 635 238 q 608 572 635 504 q 533 660 582 639 q 400 682 483 682 q 267 660 315 682 q 192 572 218 639 q 167 371 167 504 q 192 171 167 238 q 267 82 218 104 q 400 60 315 60 m 381 924 q 365 929 371 924 q 360 943 360 935 l 360 1043 q 381 1064 360 1064 l 417 1064 q 438 1043 438 1064 l 438 943 q 417 924 438 924 l 381 924 m 217 1203 l 578 1203 l 578 1154 l 217 1154 l 217 1203 z "},"ọ":{"ha":801,"x_min":86,"x_max":715,"o":"m 400 -8 q 223 23 290 -8 q 121 137 156 54 q 86 371 86 219 q 121 607 86 525 q 222 719 156 689 q 400 749 289 749 q 578 718 511 749 q 681 606 646 688 q 715 371 715 524 q 681 136 715 218 q 578 23 646 54 q 400 -8 511 -8 m 400 60 q 533 82 483 60 q 608 171 582 104 q 635 371 635 238 q 608 572 635 504 q 533 660 582 639 q 400 682 483 682 q 267 660 315 682 q 192 572 218 639 q 167 371 167 504 q 192 171 167 238 q 267 82 218 104 q 400 60 315 60 m 378 -285 q 363 -279 368 -285 q 357 -265 357 -274 l 357 -165 q 378 -144 357 -144 l 414 -144 q 435 -165 435 -144 l 435 -265 q 414 -285 435 -285 l 378 -285 z "},"ò":{"ha":801,"x_min":86,"x_max":715,"o":"m 400 -8 q 223 23 290 -8 q 121 137 156 54 q 86 371 86 219 q 121 607 86 525 q 222 719 156 689 q 400 749 289 749 q 578 718 511 749 q 681 606 646 688 q 715 371 715 524 q 681 136 715 218 q 578 23 646 54 q 400 -8 511 -8 m 400 60 q 533 82 483 60 q 608 171 582 104 q 635 371 635 238 q 608 572 635 504 q 533 660 582 639 q 400 682 483 682 q 267 660 315 682 q 192 572 218 639 q 167 371 167 504 q 192 171 167 238 q 267 82 218 104 q 400 60 315 60 m 224 1064 l 294 1064 l 449 876 l 401 876 l 224 1064 z "},"ỏ":{"ha":801,"x_min":86,"x_max":715,"o":"m 400 -8 q 223 23 290 -8 q 121 137 156 54 q 86 371 86 219 q 121 607 86 525 q 222 719 156 689 q 400 749 289 749 q 578 718 511 749 q 681 606 646 688 q 715 371 715 524 q 681 136 715 218 q 578 23 646 54 q 400 -8 511 -8 m 400 60 q 533 82 483 60 q 608 171 582 104 q 635 371 635 238 q 608 572 635 504 q 533 660 582 639 q 400 682 483 682 q 267 660 315 682 q 192 572 218 639 q 167 371 167 504 q 192 171 167 238 q 267 82 218 104 q 400 60 315 60 m 378 881 q 444 918 424 894 q 464 969 464 942 q 390 1039 464 1039 q 340 1031 365 1039 l 340 1067 q 400 1076 368 1076 q 482 1048 454 1076 q 510 971 510 1019 q 477 894 510 928 q 378 842 444 860 l 378 881 z "},"ơ":{"ha":801,"x_min":86,"x_max":761,"o":"m 617 694 q 691 576 667 654 q 715 371 715 499 q 681 136 715 218 q 578 23 646 54 q 400 -8 511 -8 q 223 23 290 -8 q 121 137 156 54 q 86 371 86 219 q 121 607 86 525 q 222 719 156 689 q 400 749 289 749 q 507 740 460 749 l 588 740 q 671 777 642 740 q 700 899 700 814 l 761 899 q 721 749 761 797 q 617 694 681 700 m 400 60 q 533 82 483 60 q 608 171 582 104 q 635 371 635 238 q 608 572 635 504 q 533 660 582 639 q 400 682 483 682 q 267 660 315 682 q 192 572 218 639 q 167 371 167 504 q 192 171 167 238 q 267 82 218 104 q 400 60 315 60 z "},"ớ":{"ha":801,"x_min":86,"x_max":761,"o":"m 617 694 q 691 576 667 654 q 715 371 715 499 q 681 136 715 218 q 578 23 646 54 q 400 -8 511 -8 q 223 23 290 -8 q 121 137 156 54 q 86 371 86 219 q 121 607 86 525 q 222 719 156 689 q 400 749 289 749 q 507 740 460 749 l 588 740 q 671 777 642 740 q 700 899 700 814 l 761 899 q 721 749 761 797 q 617 694 681 700 m 400 60 q 533 82 483 60 q 608 171 582 104 q 635 371 635 238 q 608 572 635 504 q 533 660 582 639 q 400 682 483 682 q 267 660 315 682 q 192 572 218 639 q 167 371 167 504 q 192 171 167 238 q 267 82 218 104 q 400 60 315 60 m 531 1064 l 603 1064 l 425 876 l 378 876 l 531 1064 z "},"ợ":{"ha":801,"x_min":86,"x_max":761,"o":"m 617 694 q 691 576 667 654 q 715 371 715 499 q 681 136 715 218 q 578 23 646 54 q 400 -8 511 -8 q 223 23 290 -8 q 121 137 156 54 q 86 371 86 219 q 121 607 86 525 q 222 719 156 689 q 400 749 289 749 q 507 740 460 749 l 588 740 q 671 777 642 740 q 700 899 700 814 l 761 899 q 721 749 761 797 q 617 694 681 700 m 400 60 q 533 82 483 60 q 608 171 582 104 q 635 371 635 238 q 608 572 635 504 q 533 660 582 639 q 400 682 483 682 q 267 660 315 682 q 192 572 218 639 q 167 371 167 504 q 192 171 167 238 q 267 82 218 104 q 400 60 315 60 m 393 -285 q 378 -279 383 -285 q 372 -265 372 -274 l 372 -165 q 393 -144 372 -144 l 429 -144 q 450 -165 450 -144 l 450 -265 q 429 -285 450 -285 l 393 -285 z "},"ờ":{"ha":801,"x_min":86,"x_max":761,"o":"m 617 694 q 691 576 667 654 q 715 371 715 499 q 681 136 715 218 q 578 23 646 54 q 400 -8 511 -8 q 223 23 290 -8 q 121 137 156 54 q 86 371 86 219 q 121 607 86 525 q 222 719 156 689 q 400 749 289 749 q 507 740 460 749 l 588 740 q 671 777 642 740 q 700 899 700 814 l 761 899 q 721 749 761 797 q 617 694 681 700 m 400 60 q 533 82 483 60 q 608 171 582 104 q 635 371 635 238 q 608 572 635 504 q 533 660 582 639 q 400 682 483 682 q 267 660 315 682 q 192 572 218 639 q 167 371 167 504 q 192 171 167 238 q 267 82 218 104 q 400 60 315 60 m 219 1064 l 290 1064 l 444 876 l 397 876 l 219 1064 z "},"ở":{"ha":801,"x_min":86,"x_max":761,"o":"m 617 694 q 691 576 667 654 q 715 371 715 499 q 681 136 715 218 q 578 23 646 54 q 400 -8 511 -8 q 223 23 290 -8 q 121 137 156 54 q 86 371 86 219 q 121 607 86 525 q 222 719 156 689 q 400 749 289 749 q 507 740 460 749 l 588 740 q 671 777 642 740 q 700 899 700 814 l 761 899 q 721 749 761 797 q 617 694 681 700 m 400 60 q 533 82 483 60 q 608 171 582 104 q 635 371 635 238 q 608 572 635 504 q 533 660 582 639 q 400 682 483 682 q 267 660 315 682 q 192 572 218 639 q 167 371 167 504 q 192 171 167 238 q 267 82 218 104 q 400 60 315 60 m 381 881 q 447 918 426 894 q 467 969 467 942 q 393 1039 467 1039 q 343 1031 368 1039 l 343 1067 q 403 1076 371 1076 q 485 1048 457 1076 q 513 971 513 1019 q 480 894 513 928 q 381 842 447 860 l 381 881 z "},"ỡ":{"ha":801,"x_min":86,"x_max":761,"o":"m 617 694 q 691 576 667 654 q 715 371 715 499 q 681 136 715 218 q 578 23 646 54 q 400 -8 511 -8 q 223 23 290 -8 q 121 137 156 54 q 86 371 86 219 q 121 607 86 525 q 222 719 156 689 q 400 749 289 749 q 507 740 460 749 l 588 740 q 671 777 642 740 q 700 899 700 814 l 761 899 q 721 749 761 797 q 617 694 681 700 m 400 60 q 533 82 483 60 q 608 171 582 104 q 635 371 635 238 q 608 572 635 504 q 533 660 582 639 q 400 682 483 682 q 267 660 315 682 q 192 572 218 639 q 167 371 167 504 q 192 171 167 238 q 267 82 218 104 q 400 60 315 60 m 156 906 q 194 1011 157 978 q 285 1044 232 1044 q 342 1032 315 1044 q 406 996 369 1019 q 461 964 440 974 q 504 954 482 954 q 570 978 544 954 q 596 1047 596 1003 l 639 1047 q 603 944 638 982 q 507 907 568 907 q 453 919 479 907 q 392 954 426 931 q 335 987 358 976 q 288 997 311 997 q 224 974 249 997 q 199 906 199 951 l 156 906 z "},"ő":{"ha":801,"x_min":86,"x_max":715,"o":"m 400 -8 q 223 23 290 -8 q 121 137 156 54 q 86 371 86 219 q 121 607 86 525 q 222 719 156 689 q 400 749 289 749 q 578 718 511 749 q 681 606 646 688 q 715 371 715 524 q 681 136 715 218 q 578 23 646 54 q 400 -8 511 -8 m 400 60 q 533 82 483 60 q 608 171 582 104 q 635 371 635 238 q 608 572 635 504 q 533 660 582 639 q 400 682 483 682 q 267 660 315 682 q 192 572 218 639 q 167 371 167 504 q 192 171 167 238 q 267 82 218 104 q 400 60 315 60 m 393 1064 l 463 1064 l 290 876 l 243 876 l 393 1064 m 596 1064 l 665 1064 l 493 876 l 446 876 l 596 1064 z "},"ȏ":{"ha":801,"x_min":86,"x_max":715,"o":"m 400 -8 q 223 23 290 -8 q 121 137 156 54 q 86 371 86 219 q 121 607 86 525 q 222 719 156 689 q 400 749 289 749 q 578 718 511 749 q 681 606 646 688 q 715 371 715 524 q 681 136 715 218 q 578 23 646 54 q 400 -8 511 -8 m 400 60 q 533 82 483 60 q 608 171 582 104 q 635 371 635 238 q 608 572 635 504 q 533 660 582 639 q 400 682 483 682 q 267 660 315 682 q 192 572 218 639 q 167 371 167 504 q 192 171 167 238 q 267 82 218 104 q 400 60 315 60 m 396 1069 q 524 1024 474 1069 q 574 876 574 978 l 533 876 q 496 992 533 954 q 400 1029 458 1029 q 256 876 256 1029 l 215 876 q 266 1025 215 981 q 396 1069 317 1069 z "},"ō":{"ha":801,"x_min":86,"x_max":715,"o":"m 400 -8 q 223 23 290 -8 q 121 137 156 54 q 86 371 86 219 q 121 607 86 525 q 222 719 156 689 q 400 749 289 749 q 578 718 511 749 q 681 606 646 688 q 715 371 715 524 q 681 136 715 218 q 578 23 646 54 q 400 -8 511 -8 m 400 60 q 533 82 483 60 q 608 171 582 104 q 635 371 635 238 q 608 572 635 504 q 533 660 582 639 q 400 682 483 682 q 267 660 315 682 q 192 572 218 639 q 167 371 167 504 q 192 171 167 238 q 267 82 218 104 q 400 60 315 60 m 217 992 l 578 992 l 578 943 l 217 943 l 217 992 z "},"ṓ":{"ha":801,"x_min":86,"x_max":715,"o":"m 400 -8 q 223 23 290 -8 q 121 137 156 54 q 86 371 86 219 q 121 607 86 525 q 222 719 156 689 q 400 749 289 749 q 578 718 511 749 q 681 606 646 688 q 715 371 715 524 q 681 136 715 218 q 578 23 646 54 q 400 -8 511 -8 m 400 60 q 533 82 483 60 q 608 171 582 104 q 635 371 635 238 q 608 572 635 504 q 533 660 582 639 q 400 682 483 682 q 267 660 315 682 q 192 572 218 639 q 167 371 167 504 q 192 171 167 238 q 267 82 218 104 q 400 60 315 60 m 217 992 l 578 992 l 578 943 l 217 943 l 217 992 m 510 1236 l 582 1236 l 404 1049 l 357 1049 l 510 1236 z "},"ṑ":{"ha":801,"x_min":86,"x_max":715,"o":"m 400 -8 q 223 23 290 -8 q 121 137 156 54 q 86 371 86 219 q 121 607 86 525 q 222 719 156 689 q 400 749 289 749 q 578 718 511 749 q 681 606 646 688 q 715 371 715 524 q 681 136 715 218 q 578 23 646 54 q 400 -8 511 -8 m 400 60 q 533 82 483 60 q 608 171 582 104 q 635 371 635 238 q 608 572 635 504 q 533 660 582 639 q 400 682 483 682 q 267 660 315 682 q 192 572 218 639 q 167 371 167 504 q 192 171 167 238 q 267 82 218 104 q 400 60 315 60 m 217 992 l 578 992 l 578 943 l 217 943 l 217 992 m 218 1236 l 289 1236 l 443 1049 l 396 1049 l 218 1236 z "},"ǫ":{"ha":801,"x_min":86,"x_max":715,"o":"m 456 -7 q 374 -118 374 -53 q 406 -189 374 -164 q 499 -214 438 -214 l 507 -214 l 507 -254 q 474 -257 485 -257 q 367 -223 407 -257 q 326 -135 326 -189 q 349 -65 326 -97 q 418 -8 372 -32 l 400 -8 q 223 23 290 -8 q 121 137 156 54 q 86 371 86 219 q 121 607 86 525 q 222 719 156 689 q 400 749 289 749 q 578 718 511 749 q 681 606 646 688 q 715 371 715 524 q 687 152 715 232 q 602 36 658 72 q 456 -7 546 0 m 167 371 q 192 171 167 238 q 267 82 218 104 q 400 60 315 60 q 533 82 483 60 q 608 171 582 104 q 635 371 635 238 q 608 572 635 504 q 533 660 582 639 q 400 682 483 682 q 267 660 315 682 q 192 572 218 639 q 167 371 167 504 z "},"ø":{"ha":801,"x_min":82,"x_max":721,"o":"m 653 656 q 715 371 715 571 q 681 136 715 218 q 578 23 646 54 q 400 -8 511 -8 q 267 6 322 -8 q 174 57 211 21 l 129 0 l 82 0 l 150 85 q 86 371 86 169 q 121 607 86 525 q 222 719 156 689 q 400 749 289 749 q 534 734 478 749 q 628 685 590 719 l 672 740 l 721 740 l 653 656 m 167 371 q 201 150 167 222 l 579 624 q 508 670 551 658 q 400 682 465 682 q 267 660 315 682 q 192 572 218 639 q 167 371 167 504 m 635 371 q 600 590 635 521 l 222 117 q 292 72 250 83 q 400 60 335 60 q 533 82 483 60 q 608 171 582 104 q 635 371 635 238 z "},"ǿ":{"ha":801,"x_min":82,"x_max":721,"o":"m 653 656 q 715 371 715 571 q 681 136 715 218 q 578 23 646 54 q 400 -8 511 -8 q 267 6 322 -8 q 174 57 211 21 l 129 0 l 82 0 l 150 85 q 86 371 86 169 q 121 607 86 525 q 222 719 156 689 q 400 749 289 749 q 534 734 478 749 q 628 685 590 719 l 672 740 l 721 740 l 653 656 m 167 371 q 201 150 167 222 l 579 624 q 508 670 551 658 q 400 682 465 682 q 267 660 315 682 q 192 572 218 639 q 167 371 167 504 m 635 371 q 600 590 635 521 l 222 117 q 292 72 250 83 q 400 60 335 60 q 533 82 483 60 q 608 171 582 104 q 635 371 635 238 m 513 1064 l 585 1064 l 407 876 l 360 876 l 513 1064 z "},"õ":{"ha":801,"x_min":86,"x_max":715,"o":"m 400 -8 q 223 23 290 -8 q 121 137 156 54 q 86 371 86 219 q 121 607 86 525 q 222 719 156 689 q 400 749 289 749 q 578 718 511 749 q 681 606 646 688 q 715 371 715 524 q 681 136 715 218 q 578 23 646 54 q 400 -8 511 -8 m 400 60 q 533 82 483 60 q 608 171 582 104 q 635 371 635 238 q 608 572 635 504 q 533 660 582 639 q 400 682 483 682 q 267 660 315 682 q 192 572 218 639 q 167 371 167 504 q 192 171 167 238 q 267 82 218 104 q 400 60 315 60 m 178 906 q 217 1011 179 978 q 307 1044 254 1044 q 365 1032 338 1044 q 428 996 392 1019 q 483 964 463 974 q 526 954 504 954 q 592 978 567 954 q 618 1047 618 1003 l 661 1047 q 625 944 660 982 q 529 907 590 907 q 475 919 501 907 q 414 954 449 931 q 357 987 381 976 q 310 997 333 997 q 246 974 271 997 q 221 906 221 951 l 178 906 z "},"ṍ":{"ha":801,"x_min":86,"x_max":715,"o":"m 400 -8 q 223 23 290 -8 q 121 137 156 54 q 86 371 86 219 q 121 607 86 525 q 222 719 156 689 q 400 749 289 749 q 578 718 511 749 q 681 606 646 688 q 715 371 715 524 q 681 136 715 218 q 578 23 646 54 q 400 -8 511 -8 m 400 60 q 533 82 483 60 q 608 171 582 104 q 635 371 635 238 q 608 572 635 504 q 533 660 582 639 q 400 682 483 682 q 267 660 315 682 q 192 572 218 639 q 167 371 167 504 q 192 171 167 238 q 267 82 218 104 q 400 60 315 60 m 178 906 q 217 1011 179 978 q 307 1044 254 1044 q 365 1032 338 1044 q 428 996 392 1019 q 483 964 463 974 q 526 954 504 954 q 592 978 567 954 q 618 1047 618 1003 l 661 1047 q 625 944 660 982 q 529 907 590 907 q 475 919 501 907 q 414 954 449 931 q 357 987 381 976 q 310 997 333 997 q 246 974 271 997 q 221 906 221 951 l 178 906 m 510 1275 l 582 1275 l 404 1088 l 357 1088 l 510 1275 z "},"ṏ":{"ha":801,"x_min":86,"x_max":715,"o":"m 400 -8 q 223 23 290 -8 q 121 137 156 54 q 86 371 86 219 q 121 607 86 525 q 222 719 156 689 q 400 749 289 749 q 578 718 511 749 q 681 606 646 688 q 715 371 715 524 q 681 136 715 218 q 578 23 646 54 q 400 -8 511 -8 m 400 60 q 533 82 483 60 q 608 171 582 104 q 635 371 635 238 q 608 572 635 504 q 533 660 582 639 q 400 682 483 682 q 267 660 315 682 q 192 572 218 639 q 167 371 167 504 q 192 171 167 238 q 267 82 218 104 q 400 60 315 60 m 178 906 q 217 1011 179 978 q 307 1044 254 1044 q 365 1032 338 1044 q 428 996 392 1019 q 483 964 463 974 q 526 954 504 954 q 592 978 567 954 q 618 1047 618 1003 l 661 1047 q 625 944 660 982 q 529 907 590 907 q 475 919 501 907 q 414 954 449 931 q 357 987 381 976 q 310 997 333 997 q 246 974 271 997 q 221 906 221 951 l 178 906 m 260 1128 q 244 1133 250 1128 q 239 1147 239 1139 l 239 1247 q 260 1268 239 1268 l 296 1268 q 317 1247 317 1268 l 317 1147 q 296 1128 317 1128 l 260 1128 m 529 1128 q 515 1133 521 1128 q 510 1147 510 1139 l 510 1247 q 529 1268 510 1268 l 567 1268 q 586 1247 586 1268 l 586 1147 q 581 1133 586 1138 q 567 1128 575 1128 l 529 1128 z "},"ȭ":{"ha":801,"x_min":86,"x_max":715,"o":"m 400 -8 q 223 23 290 -8 q 121 137 156 54 q 86 371 86 219 q 121 607 86 525 q 222 719 156 689 q 400 749 289 749 q 578 718 511 749 q 681 606 646 688 q 715 371 715 524 q 681 136 715 218 q 578 23 646 54 q 400 -8 511 -8 m 400 60 q 533 82 483 60 q 608 171 582 104 q 635 371 635 238 q 608 572 635 504 q 533 660 582 639 q 400 682 483 682 q 267 660 315 682 q 192 572 218 639 q 167 371 167 504 q 192 171 167 238 q 267 82 218 104 q 400 60 315 60 m 217 1214 l 578 1214 l 578 1165 l 217 1165 l 217 1214 m 165 906 q 204 1011 167 978 q 294 1044 242 1044 q 352 1032 325 1044 q 415 996 379 1019 q 471 964 450 974 q 514 954 492 954 q 580 978 554 954 q 606 1047 606 1003 l 649 1047 q 613 944 647 982 q 517 907 578 907 q 463 919 489 907 q 401 954 436 931 q 344 987 368 976 q 297 997 321 997 q 233 974 258 997 q 208 906 208 951 l 165 906 z "},"œ":{"ha":1297,"x_min":86,"x_max":1211,"o":"m 711 335 q 767 122 711 188 q 947 56 824 56 l 1194 56 l 1194 7 q 928 -8 1039 -8 q 767 29 829 -8 q 674 150 704 67 q 575 26 642 60 q 396 -8 508 -8 q 221 23 288 -8 q 120 137 154 54 q 86 371 86 219 q 121 607 86 525 q 222 719 156 689 q 400 749 289 749 q 575 715 510 749 q 672 596 640 682 q 762 712 701 675 q 924 749 822 749 q 1084 729 1022 749 q 1178 656 1146 710 q 1211 501 1211 601 q 1160 376 1211 417 q 1017 335 1108 335 l 711 335 m 924 686 q 795 656 842 686 q 729 561 749 625 q 710 392 710 497 l 1003 392 q 1103 416 1069 392 q 1138 507 1138 440 q 1115 621 1138 582 q 1047 673 1092 660 q 924 686 1001 686 m 400 57 q 533 79 483 57 q 608 169 582 101 q 635 371 635 236 q 608 573 635 506 q 533 663 582 640 q 400 685 483 685 q 267 663 315 685 q 192 573 218 640 q 167 371 167 506 q 192 169 167 236 q 267 79 218 101 q 400 57 315 57 z "},"p":{"ha":800,"x_min":114,"x_max":714,"o":"m 114 740 l 176 740 l 194 663 q 312 721 239 693 q 447 749 385 749 q 649 640 585 749 q 714 372 714 532 q 447 -8 714 -8 q 319 13 386 -8 q 194 68 253 33 l 194 -329 l 114 -329 l 114 740 m 429 60 q 633 372 633 60 q 575 605 633 528 q 429 682 517 682 q 312 663 365 682 q 194 613 258 644 l 194 128 q 429 60 317 60 z "},"ṗ":{"ha":800,"x_min":114,"x_max":714,"o":"m 114 740 l 176 740 l 194 663 q 312 721 239 693 q 447 749 385 749 q 649 640 585 749 q 714 372 714 532 q 447 -8 714 -8 q 319 13 386 -8 q 194 68 253 33 l 194 -329 l 114 -329 l 114 740 m 429 60 q 633 372 633 60 q 575 605 633 528 q 429 682 517 682 q 312 663 365 682 q 194 613 258 644 l 194 128 q 429 60 317 60 m 360 924 q 344 929 350 924 q 339 943 339 935 l 339 1043 q 360 1064 339 1064 l 396 1064 q 417 1043 417 1064 l 417 943 q 396 924 417 924 l 360 924 z "},"þ":{"ha":800,"x_min":114,"x_max":714,"o":"m 114 1060 l 194 1060 l 194 663 q 312 721 239 693 q 447 749 385 749 q 649 640 583 749 q 714 372 714 531 q 647 88 714 183 q 447 -8 579 -8 q 319 13 386 -8 q 194 68 253 33 l 194 -329 l 114 -329 l 114 1060 m 429 60 q 633 369 633 60 q 575 604 633 526 q 429 682 517 682 q 312 663 365 682 q 194 613 258 644 l 194 128 q 429 60 317 60 z "},"q":{"ha":794,"x_min":86,"x_max":686,"o":"m 606 76 q 477 15 546 38 q 346 -8 408 -8 q 147 85 207 -8 q 86 372 86 178 q 153 654 86 560 q 361 749 221 749 q 686 733 518 749 l 686 -329 l 606 -329 l 606 76 m 363 60 q 485 77 426 60 q 606 128 543 94 l 606 685 l 375 685 q 215 603 263 685 q 167 374 167 521 q 213 133 167 207 q 363 60 258 60 z "},"r":{"ha":568,"x_min":114,"x_max":533,"o":"m 114 740 l 174 740 l 194 607 q 317 711 253 674 q 461 749 382 749 q 533 740 504 749 l 533 658 q 454 667 486 667 q 321 638 378 667 q 194 544 264 610 l 194 0 l 114 0 l 114 740 z "},"ŕ":{"ha":568,"x_min":114,"x_max":533,"o":"m 114 740 l 174 740 l 194 607 q 317 711 253 674 q 461 749 382 749 q 533 740 504 749 l 533 658 q 454 667 486 667 q 321 638 378 667 q 194 544 264 610 l 194 0 l 114 0 l 114 740 m 399 1064 l 471 1064 l 293 876 l 246 876 l 399 1064 z "},"ř":{"ha":568,"x_min":97,"x_max":533,"o":"m 114 740 l 174 740 l 194 607 q 317 711 253 674 q 461 749 382 749 q 533 740 504 749 l 533 658 q 454 667 486 667 q 321 638 378 667 q 194 544 264 610 l 194 0 l 114 0 l 114 740 m 97 1061 l 149 1061 l 286 917 l 438 1061 l 489 1061 l 314 876 l 256 876 l 97 1061 z "},"ŗ":{"ha":568,"x_min":40,"x_max":533,"o":"m 114 740 l 174 740 l 194 607 q 317 711 253 674 q 461 749 382 749 q 533 740 504 749 l 533 658 q 454 667 486 667 q 321 638 378 667 q 194 544 264 610 l 194 0 l 114 0 l 114 740 m 40 -242 l 83 -236 q 143 -221 122 -232 q 175 -178 164 -210 q 185 -83 186 -146 l 236 -83 q 224 -197 236 -156 q 179 -256 211 -237 q 88 -275 147 -275 l 40 -275 l 40 -242 z "},"ȑ":{"ha":568,"x_min":19,"x_max":533,"o":"m 114 740 l 174 740 l 194 607 q 317 711 253 674 q 461 749 382 749 q 533 740 504 749 l 533 658 q 454 667 486 667 q 321 638 378 667 q 194 544 264 610 l 194 0 l 114 0 l 114 740 m 19 1064 l 90 1064 l 244 876 l 197 876 l 19 1064 m 208 1064 l 279 1064 l 433 876 l 386 876 l 208 1064 z "}}}
